Giphurs-Regular.ufo
<glyph name="percent" format="2">
  <advance width="1634"/>
  <unicode hex="0025"/>
  <outline>
    <contour>
      <point x="280" y="1180" type="curve" smooth="yes"/>
      <point x="280" y="1090"/>
      <point x="330" y="1020"/>
      <point x="420" y="1020" type="curve" smooth="yes"/>
      <point x="510" y="1020"/>
      <point x="560" y="1090"/>
      <point x="560" y="1180" type="curve" smooth="yes"/>
      <point x="560" y="1270"/>
      <point x="510" y="1340"/>
      <point x="420" y="1340" type="curve" smooth="yes"/>
      <point x="330" y="1340"/>
      <point x="280" y="1270"/>
    </contour>
    <contour>
      <point x="100" y="1180" type="curve" smooth="yes"/>
      <point x="100" y="1358"/>
      <point x="242" y="1500"/>
      <point x="420" y="1500" type="curve" smooth="yes"/>
      <point x="598" y="1500"/>
      <point x="740" y="1358"/>
      <point x="740" y="1180" type="curve" smooth="yes"/>
      <point x="740" y="1002"/>
      <point x="598" y="860"/>
      <point x="420" y="860" type="curve" smooth="yes"/>
      <point x="242" y="860"/>
      <point x="100" y="1002"/>
    </contour>
    <contour>
      <point x="1074" y="300" type="curve" smooth="yes"/>
      <point x="1074" y="210"/>
      <point x="1124" y="140"/>
      <point x="1214" y="140" type="curve" smooth="yes"/>
      <point x="1304" y="140"/>
      <point x="1354" y="210"/>
      <point x="1354" y="300" type="curve" smooth="yes"/>
      <point x="1354" y="390"/>
      <point x="1304" y="460"/>
      <point x="1214" y="460" type="curve" smooth="yes"/>
      <point x="1124" y="460"/>
      <point x="1074" y="390"/>
    </contour>
    <contour>
      <point x="894" y="300" type="curve" smooth="yes"/>
      <point x="894" y="478"/>
      <point x="1036" y="620"/>
      <point x="1214" y="620" type="curve" smooth="yes"/>
      <point x="1392" y="620"/>
      <point x="1534" y="478"/>
      <point x="1534" y="300" type="curve" smooth="yes"/>
      <point x="1534" y="122"/>
      <point x="1392" y="-20"/>
      <point x="1214" y="-20" type="curve" smooth="yes"/>
      <point x="1036" y="-20"/>
      <point x="894" y="122"/>
    </contour>
    <contour>
      <point x="1335" y="1395" type="line"/>
      <point x="438" y="0" type="line"/>
      <point x="291" y="85" type="line"/>
      <point x="1188" y="1480" type="line"/>
    </contour>
  </outline>
</glyph>
<glyph name="four" format="2">
  <advance width="1232"/>
  <unicode hex="0034"/>
  <outline>
    <contour>
      <point x="125" y="488" type="line"/>
      <point x="609" y="1480" type="line"/>
      <point x="809" y="1480" type="line"/>
      <point x="321" y="488" type="line"/>
      <point x="707" y="488" type="line"/>
      <point x="707" y="808" type="line"/>
      <point x="897" y="808" type="line"/>
      <point x="897" y="488" type="line"/>
      <point x="1107" y="488" type="line"/>
      <point x="1107" y="320" type="line"/>
      <point x="897" y="320" type="line"/>
      <point x="897" y="0" type="line"/>
      <point x="707" y="0" type="line"/>
      <point x="707" y="320" type="line"/>
      <point x="125" y="320" type="line"/>
    </contour>
  </outline>
</glyph>
<glyph name="nine" format="2">
  <advance width="1232"/>
  <unicode hex="0039"/>
  <outline>
    <contour>
      <point x="476" y="-20" type="curve" smooth="yes"/>
      <point x="266" y="-20"/>
      <point x="145" y="100"/>
      <point x="145" y="100" type="curve"/>
      <point x="232" y="253" type="line"/>
      <point x="232" y="253"/>
      <point x="320" y="148"/>
      <point x="515" y="148" type="curve" smooth="yes"/>
      <point x="739" y="148"/>
      <point x="945" y="384"/>
      <point x="945" y="784" type="curve" smooth="yes"/>
      <point x="945" y="1144"/>
      <point x="858" y="1198"/>
      <point x="858" y="1198" type="curve"/>
      <point x="1004" y="1280" type="line"/>
      <point x="1004" y="1280"/>
      <point x="1127" y="1114"/>
      <point x="1127" y="784" type="curve" smooth="yes"/>
      <point x="1127" y="264"/>
      <point x="836" y="-20"/>
    </contour>
    <contour>
      <point x="911" y="994" type="curve" smooth="yes"/>
      <point x="911" y="1198"/>
      <point x="781" y="1332"/>
      <point x="603" y="1332" type="curve" smooth="yes"/>
      <point x="425" y="1332"/>
      <point x="295" y="1198"/>
      <point x="295" y="994" type="curve" smooth="yes"/>
      <point x="295" y="790"/>
      <point x="425" y="656"/>
      <point x="603" y="656" type="curve" smooth="yes"/>
      <point x="781" y="656"/>
      <point x="911" y="790"/>
    </contour>
    <contour>
      <point x="1079" y="994" type="curve"/>
      <point x="1007" y="994" type="line"/>
      <point x="1007" y="711"/>
      <point x="894" y="488"/>
      <point x="603" y="488" type="curve" smooth="yes"/>
      <point x="312" y="488"/>
      <point x="105" y="703"/>
      <point x="105" y="994" type="curve" smooth="yes"/>
      <point x="105" y="1285"/>
      <point x="312" y="1500"/>
      <point x="603" y="1500" type="curve" smooth="yes"/>
      <point x="894" y="1500"/>
      <point x="1079" y="1285"/>
    </contour>
  </outline>
</glyph>
<glyph name="colon" format="2">
  <advance width="532"/>
  <unicode hex="003A"/>
  <outline>
    <contour>
      <point x="140" y="931" type="curve" smooth="yes"/>
      <point x="140" y="1003"/>
      <point x="193" y="1060"/>
      <point x="265" y="1060" type="curve" smooth="yes"/>
      <point x="337" y="1060"/>
      <point x="392" y="1003"/>
      <point x="392" y="931" type="curve" smooth="yes"/>
      <point x="392" y="859"/>
      <point x="337" y="804"/>
      <point x="265" y="804" type="curve" smooth="yes"/>
      <point x="193" y="804"/>
      <point x="140" y="859"/>
    </contour>
    <contour>
      <point x="140" y="107" type="curve" smooth="yes"/>
      <point x="140" y="179"/>
      <point x="193" y="236"/>
      <point x="265" y="236" type="curve" smooth="yes"/>
      <point x="337" y="236"/>
      <point x="392" y="179"/>
      <point x="392" y="107" type="curve" smooth="yes"/>
      <point x="392" y="35"/>
      <point x="337" y="-20"/>
      <point x="265" y="-20" type="curve" smooth="yes"/>
      <point x="193" y="-20"/>
      <point x="140" y="35"/>
    </contour>
  </outline>
</glyph>
<glyph name="K" format="2">
  <advance width="1356"/>
  <unicode hex="004B"/>
  <anchor x="699" y="1380" name="top_center"/>
  <anchor x="699" y="0" name="bottom_center"/>
  <outline>
    <contour>
      <point x="549" y="794" type="line"/>
      <point x="679" y="917" type="line"/>
      <point x="1296" y="0" type="line"/>
      <point x="1082" y="0" type="line"/>
    </contour>
    <contour>
      <point x="330" y="490" type="line"/>
      <point x="330" y="0" type="line"/>
      <point x="140" y="0" type="line"/>
      <point x="140" y="1480" type="line"/>
      <point x="330" y="1480" type="line"/>
      <point x="330" y="730" type="line"/>
      <point x="1056" y="1480" type="line"/>
      <point x="1116" y="1480"/>
      <point x="1236" y="1480"/>
      <point x="1296" y="1480" type="curve"/>
    </contour>
  </outline>
</glyph>
<glyph name="O" format="2">
  <advance width="1602"/>
  <unicode hex="004F"/>
  <anchor x="252" y="1224" name="top_left_O2"/>
  <anchor x="968" y="0" name="bottom_right"/>
  <anchor x="801" y="0" name="bottom_center"/>
  <anchor x="1380" y="1480" name="top_right"/>
  <anchor x="801" y="1380" name="top_center"/>
  <outline>
    <contour>
      <point x="290" y="740" type="curve" smooth="yes"/>
      <point x="290" y="390"/>
      <point x="511" y="148"/>
      <point x="801" y="148" type="curve" smooth="yes"/>
      <point x="1091" y="148"/>
      <point x="1312" y="390"/>
      <point x="1312" y="740" type="curve" smooth="yes"/>
      <point x="1312" y="1090"/>
      <point x="1091" y="1332"/>
      <point x="801" y="1332" type="curve" smooth="yes"/>
      <point x="511" y="1332"/>
      <point x="290" y="1090"/>
    </contour>
    <contour>
      <point x="100" y="740" type="curve" smooth="yes"/>
      <point x="100" y="1179"/>
      <point x="406" y="1500"/>
      <point x="801" y="1500" type="curve" smooth="yes"/>
      <point x="1196" y="1500"/>
      <point x="1502" y="1179"/>
      <point x="1502" y="740" type="curve" smooth="yes"/>
      <point x="1502" y="301"/>
      <point x="1196" y="-20"/>
      <point x="801" y="-20" type="curve" smooth="yes"/>
      <point x="406" y="-20"/>
      <point x="100" y="301"/>
    </contour>
  </outline>
</glyph>
<glyph name="T" format="2">
  <advance width="1398"/>
  <unicode hex="0054"/>
  <anchor x="699" y="1380" name="top_center"/>
  <anchor x="699" y="0" name="bottom_center"/>
  <anchor x="699" y="-20" name="bottom_cedilla"/>
  <outline>
    <contour>
      <point x="794" y="0" type="line"/>
      <point x="604" y="0" type="line"/>
      <point x="604" y="1312" type="line"/>
      <point x="140" y="1312" type="line"/>
      <point x="140" y="1480" type="line"/>
      <point x="1258" y="1480" type="line"/>
      <point x="1258" y="1312" type="line"/>
      <point x="794" y="1312" type="line"/>
    </contour>
  </outline>
</glyph>
<glyph name="bracketleft" format="2">
  <advance width="858"/>
  <unicode hex="005B"/>
  <outline>
    <contour>
      <point x="788" y="1480" type="line"/>
      <point x="320" y="1480" type="line"/>
      <point x="320" y="-160" type="line"/>
      <point x="788" y="-160" type="line"/>
      <point x="788" y="-320" type="line"/>
      <point x="140" y="-320" type="line"/>
      <point x="140" y="1640" type="line"/>
      <point x="788" y="1640" type="line"/>
    </contour>
  </outline>
</glyph>
<glyph name="bracketright" format="2">
  <advance width="858"/>
  <unicode hex="005D"/>
  <outline>
    <contour>
      <point x="70" y="1480" type="line"/>
      <point x="70" y="1640" type="line"/>
      <point x="718" y="1640" type="line"/>
      <point x="718" y="-320" type="line"/>
      <point x="70" y="-320" type="line"/>
      <point x="70" y="-160" type="line"/>
      <point x="538" y="-160" type="line"/>
      <point x="538" y="1480" type="line"/>
    </contour>
  </outline>
</glyph>
<glyph name="e" format="2">
  <advance width="1196"/>
  <unicode hex="0065"/>
  <anchor x="598" y="1040" name="top_center"/>
  <anchor x="598" y="0" name="bottom_center"/>
  <anchor x="752" y="0" name="bottom_right"/>
  <anchor x="598" y="-20" name="bottom_cedilla"/>
  <outline>
    <contour>
      <point x="174" y="600" type="line"/>
      <point x="980" y="600" type="line"/>
      <point x="910" y="440" type="line"/>
      <point x="174" y="440" type="line"/>
    </contour>
    <contour>
      <point x="910" y="340" type="curve"/>
      <point x="1063" y="252" type="line"/>
      <point x="980" y="74"/>
      <point x="797" y="-20"/>
      <point x="598" y="-20" type="curve" smooth="yes"/>
      <point x="317" y="-20"/>
      <point x="100" y="208"/>
      <point x="100" y="520" type="curve" smooth="yes"/>
      <point x="100" y="832"/>
      <point x="317" y="1060"/>
      <point x="598" y="1060" type="curve" smooth="yes"/>
      <point x="879" y="1060"/>
      <point x="1096" y="832"/>
      <point x="1096" y="520" type="curve" smooth="yes"/>
      <point x="1096" y="493"/>
      <point x="1094" y="466"/>
      <point x="1091" y="440" type="curve"/>
      <point x="910" y="440" type="line"/>
      <point x="914" y="466"/>
      <point x="916" y="492"/>
      <point x="916" y="520" type="curve" smooth="yes"/>
      <point x="916" y="740"/>
      <point x="789" y="900"/>
      <point x="598" y="900" type="curve" smooth="yes"/>
      <point x="407" y="900"/>
      <point x="280" y="740"/>
      <point x="280" y="520" type="curve" smooth="yes"/>
      <point x="280" y="300"/>
      <point x="407" y="140"/>
      <point x="598" y="140" type="curve" smooth="yes"/>
      <point x="739" y="140"/>
      <point x="861" y="207"/>
    </contour>
  </outline>
</glyph>
<glyph name="braceright" format="2">
  <advance width="770"/>
  <unicode hex="007D"/>
  <outline>
    <contour>
      <point x="290" y="60" type="curve" smooth="yes"/>
      <point x="290" y="410" type="line" smooth="yes"/>
      <point x="290" y="630"/>
      <point x="450" y="740"/>
      <point x="670" y="740" type="curve"/>
      <point x="670" y="580" type="line"/>
      <point x="560" y="580"/>
      <point x="470" y="520"/>
      <point x="470" y="410" type="curve" smooth="yes"/>
      <point x="470" y="60" type="line" smooth="yes"/>
      <point x="470" y="-195"/>
      <point x="325" y="-320"/>
      <point x="70" y="-320" type="curve" smooth="yes"/>
      <point x="70" y="-160" type="line" smooth="yes"/>
      <point x="228" y="-160"/>
      <point x="290" y="-98"/>
    </contour>
    <contour>
      <point x="290" y="1260" type="line" smooth="yes"/>
      <point x="290" y="1418"/>
      <point x="228" y="1480"/>
      <point x="70" y="1480" type="curve" smooth="yes"/>
      <point x="70" y="1640" type="line" smooth="yes"/>
      <point x="325" y="1640"/>
      <point x="470" y="1515"/>
      <point x="470" y="1260" type="curve" smooth="yes"/>
      <point x="470" y="910" type="line" smooth="yes"/>
      <point x="470" y="800"/>
      <point x="560" y="740"/>
      <point x="670" y="740" type="curve"/>
      <point x="670" y="580" type="line"/>
      <point x="450" y="580"/>
      <point x="290" y="690"/>
      <point x="290" y="910" type="curve" smooth="yes"/>
    </contour>
  </outline>
</glyph>
<glyph name="exclamdown" format="2">
  <advance width="532"/>
  <unicode hex="00A1"/>
  <outline>
    <contour>
      <point x="392" y="933" type="curve" smooth="yes"/>
      <point x="392" y="861"/>
      <point x="339" y="804"/>
      <point x="267" y="804" type="curve" smooth="yes"/>
      <point x="195" y="804"/>
      <point x="140" y="861"/>
      <point x="140" y="933" type="curve" smooth="yes"/>
      <point x="140" y="1005"/>
      <point x="195" y="1060"/>
      <point x="267" y="1060" type="curve" smooth="yes"/>
      <point x="339" y="1060"/>
      <point x="392" y="1005"/>
    </contour>
    <contour>
      <point x="373" y="-440" type="line"/>
      <point x="161" y="-440" type="line"/>
      <point x="177" y="588" type="line"/>
      <point x="357" y="588" type="line"/>
    </contour>
  </outline>
</glyph>
<glyph name="section" format="2">
  <advance width="1122"/>
  <unicode hex="00A7"/>
  <outline>
    <contour>
      <point x="559" y="778" type="line" smooth="yes"/>
      <point x="376" y="778"/>
      <point x="279" y="630"/>
      <point x="279" y="522" type="curve" smooth="yes"/>
      <point x="279" y="414"/>
      <point x="385" y="344"/>
      <point x="557" y="303" type="curve" smooth="yes"/>
      <point x="814" y="241"/>
      <point x="1020" y="123"/>
      <point x="1020" y="-90" type="curve" smooth="yes"/>
      <point x="1020" y="-303"/>
      <point x="822" y="-460"/>
      <point x="555" y="-460" type="curve" smooth="yes"/>
      <point x="310" y="-460"/>
      <point x="124" y="-308"/>
      <point x="100" y="-104" type="curve"/>
      <point x="276" y="-44" type="line" smooth="yes"/>
      <point x="276" y="-188"/>
      <point x="388" y="-300"/>
      <point x="555" y="-300" type="curve" smooth="yes"/>
      <point x="738" y="-300"/>
      <point x="845" y="-198"/>
      <point x="845" y="-90" type="curve" smooth="yes"/>
      <point x="845" y="18"/>
      <point x="731" y="88"/>
      <point x="557" y="129" type="curve" smooth="yes"/>
      <point x="302" y="191"/>
      <point x="101" y="309"/>
      <point x="101" y="522" type="curve" smooth="yes"/>
      <point x="101" y="735"/>
      <point x="292" y="908"/>
      <point x="559" y="908" type="curve" smooth="yes"/>
    </contour>
    <contour>
      <point x="557" y="259" type="line" smooth="yes"/>
      <point x="740" y="259"/>
      <point x="847" y="396"/>
      <point x="847" y="504" type="curve" smooth="yes"/>
      <point x="847" y="612"/>
      <point x="731" y="692"/>
      <point x="559" y="734" type="curve" smooth="yes"/>
      <point x="304" y="797"/>
      <point x="145" y="933"/>
      <point x="145" y="1125" type="curve" smooth="yes"/>
      <point x="145" y="1317"/>
      <point x="306" y="1500"/>
      <point x="558" y="1500" type="curve" smooth="yes"/>
      <point x="801" y="1500"/>
      <point x="963" y="1329"/>
      <point x="986" y="1125" type="curve"/>
      <point x="809" y="1075" type="line" smooth="yes"/>
      <point x="809" y="1209"/>
      <point x="722" y="1340"/>
      <point x="559" y="1340" type="curve" smooth="yes"/>
      <point x="388" y="1340"/>
      <point x="325" y="1223"/>
      <point x="325" y="1125" type="curve" smooth="yes"/>
      <point x="325" y="1027"/>
      <point x="391" y="948"/>
      <point x="559" y="908" type="curve" smooth="yes"/>
      <point x="814" y="846"/>
      <point x="1022" y="713"/>
      <point x="1022" y="500" type="curve" smooth="yes"/>
      <point x="1022" y="287"/>
      <point x="824" y="129"/>
      <point x="557" y="129" type="curve" smooth="yes"/>
    </contour>
  </outline>
</glyph>
<glyph name="degree" format="2">
  <advance width="840"/>
  <unicode hex="00B0"/>
  <outline>
    <contour>
      <point x="280" y="1180" type="curve" smooth="yes"/>
      <point x="280" y="1090"/>
      <point x="330" y="1020"/>
      <point x="420" y="1020" type="curve" smooth="yes"/>
      <point x="510" y="1020"/>
      <point x="560" y="1090"/>
      <point x="560" y="1180" type="curve" smooth="yes"/>
      <point x="560" y="1270"/>
      <point x="510" y="1340"/>
      <point x="420" y="1340" type="curve" smooth="yes"/>
      <point x="330" y="1340"/>
      <point x="280" y="1270"/>
    </contour>
    <contour>
      <point x="100" y="1180" type="curve" smooth="yes"/>
      <point x="100" y="1358"/>
      <point x="242" y="1500"/>
      <point x="420" y="1500" type="curve" smooth="yes"/>
      <point x="598" y="1500"/>
      <point x="740" y="1358"/>
      <point x="740" y="1180" type="curve" smooth="yes"/>
      <point x="740" y="1002"/>
      <point x="598" y="860"/>
      <point x="420" y="860" type="curve" smooth="yes"/>
      <point x="242" y="860"/>
      <point x="100" y="1002"/>
    </contour>
  </outline>
</glyph>
<glyph name="uni00B2" format="2">
  <advance width="796"/>
  <unicode hex="00B2"/>
  <outline>
    <contour>
      <point x="85" y="810" type="line"/>
      <point x="85" y="920"/>
      <point x="97" y="1032"/>
      <point x="388" y="1200" type="curve" smooth="yes"/>
      <point x="481" y="1254"/>
      <point x="571" y="1295"/>
      <point x="571" y="1396" type="curve" smooth="yes"/>
      <point x="571" y="1497"/>
      <point x="502" y="1560"/>
      <point x="398" y="1560" type="curve" smooth="yes"/>
      <point x="294" y="1560"/>
      <point x="225" y="1477"/>
      <point x="225" y="1380" type="curve" smooth="yes"/>
      <point x="225" y="1370"/>
      <point x="226" y="1352"/>
      <point x="227" y="1343" type="curve"/>
      <point x="90" y="1380" type="line"/>
      <point x="90" y="1560"/>
      <point x="221" y="1680"/>
      <point x="398" y="1680" type="curve" smooth="yes"/>
      <point x="575" y="1680"/>
      <point x="706" y="1579"/>
      <point x="706" y="1421" type="curve" smooth="yes"/>
      <point x="706" y="1257"/>
      <point x="612" y="1182"/>
      <point x="447" y="1087" type="curve" smooth="yes"/>
      <point x="343" y="1027"/>
      <point x="265" y="982"/>
      <point x="245" y="930" type="curve"/>
      <point x="711" y="930" type="line"/>
      <point x="711" y="810" type="line"/>
      <point x="205" y="810" type="line"/>
      <point x="141" y="810" type="line"/>
    </contour>
  </outline>
</glyph>
<glyph name="uni00B9" format="2">
  <advance width="796"/>
  <unicode hex="00B9"/>
  <outline>
    <contour>
      <point x="363" y="1389" type="line"/>
      <point x="180" y="1389" type="line"/>
      <point x="180" y="1503" type="line"/>
      <point x="226" y="1503" type="line" smooth="yes"/>
      <point x="301" y="1503"/>
      <point x="371" y="1557"/>
      <point x="371" y="1628" type="curve" smooth="yes"/>
      <point x="371" y="1668" type="line"/>
      <point x="498" y="1668" type="line"/>
      <point x="498" y="1413" type="line"/>
      <point x="498" y="810" type="line"/>
      <point x="363" y="810" type="line"/>
    </contour>
  </outline>
</glyph>
<glyph name="ordmasculine" format="2">
  <advance width="868"/>
  <unicode hex="00BA"/>
  <outline>
    <contour>
      <point x="439" y="1607" type="curve" smooth="yes"/>
      <point x="267" y="1607"/>
      <point x="130" y="1473"/>
      <point x="130" y="1293" type="curve" smooth="yes"/>
      <point x="130" y="1113"/>
      <point x="267" y="980"/>
      <point x="439" y="980" type="curve" smooth="yes"/>
      <point x="611" y="980"/>
      <point x="748" y="1113"/>
      <point x="748" y="1293" type="curve" smooth="yes"/>
      <point x="748" y="1473"/>
      <point x="611" y="1607"/>
    </contour>
    <contour>
      <point x="439" y="1101" type="curve" smooth="yes"/>
      <point x="331" y="1101"/>
      <point x="265" y="1178"/>
      <point x="265" y="1293" type="curve" smooth="yes"/>
      <point x="265" y="1408"/>
      <point x="331" y="1486"/>
      <point x="439" y="1486" type="curve" smooth="yes"/>
      <point x="547" y="1486"/>
      <point x="613" y="1408"/>
      <point x="613" y="1293" type="curve" smooth="yes"/>
      <point x="613" y="1178"/>
      <point x="547" y="1101"/>
    </contour>
    <contour>
      <point x="108" y="741" type="line"/>
      <point x="108" y="861" type="line"/>
      <point x="760" y="861" type="line"/>
      <point x="760" y="741" type="line"/>
    </contour>
  </outline>
</glyph>
<glyph name="onehalf" format="2">
  <advance width="2000"/>
  <unicode hex="00BD"/>
  <outline>
    <contour>
      <point x="1235" y="0" type="line"/>
      <point x="1235" y="110"/>
      <point x="1247" y="222"/>
      <point x="1538" y="390" type="curve" smooth="yes"/>
      <point x="1631" y="444"/>
      <point x="1721" y="485"/>
      <point x="1721" y="586" type="curve" smooth="yes"/>
      <point x="1721" y="687"/>
      <point x="1652" y="750"/>
      <point x="1548" y="750" type="curve" smooth="yes"/>
      <point x="1444" y="750"/>
      <point x="1375" y="667"/>
      <point x="1375" y="570" type="curve" smooth="yes"/>
      <point x="1375" y="560"/>
      <point x="1376" y="542"/>
      <point x="1377" y="533" type="curve"/>
      <point x="1240" y="570" type="line"/>
      <point x="1240" y="750"/>
      <point x="1371" y="870"/>
      <point x="1548" y="870" type="curve" smooth="yes"/>
      <point x="1725" y="870"/>
      <point x="1856" y="769"/>
      <point x="1856" y="611" type="curve" smooth="yes"/>
      <point x="1856" y="447"/>
      <point x="1762" y="372"/>
      <point x="1597" y="277" type="curve" smooth="yes"/>
      <point x="1493" y="217"/>
      <point x="1415" y="172"/>
      <point x="1395" y="120" type="curve"/>
      <point x="1861" y="120" type="line"/>
      <point x="1861" y="0" type="line"/>
      <point x="1355" y="0" type="line"/>
      <point x="1291" y="0" type="line"/>
    </contour>
    <contour>
      <point x="417" y="1201" type="line"/>
      <point x="234" y="1201" type="line"/>
      <point x="234" y="1315" type="line"/>
      <point x="280" y="1315" type="line" smooth="yes"/>
      <point x="355" y="1315"/>
      <point x="425" y="1369"/>
      <point x="425" y="1440" type="curve" smooth="yes"/>
      <point x="425" y="1480" type="line"/>
      <point x="552" y="1480" type="line"/>
      <point x="552" y="1225" type="line"/>
      <point x="552" y="622" type="line"/>
      <point x="417" y="622" type="line"/>
    </contour>
    <contour>
      <point x="700" y="98" type="line"/>
      <point x="592" y="160" type="line"/>
      <point x="1300" y="1382" type="line"/>
      <point x="1408" y="1320" type="line"/>
    </contour>
  </outline>
</glyph>
<glyph name="ae" format="2">
  <advance width="1896"/>
  <unicode hex="00E6"/>
  <anchor x="920" y="1040" name="top_center"/>
  <anchor x="920" y="0" name="bottom_center"/>
  <outline>
    <contour>
      <point x="874" y="600" type="line"/>
      <point x="1680" y="600" type="line"/>
      <point x="1610" y="440" type="line"/>
      <point x="874" y="440" type="line"/>
    </contour>
    <contour>
      <point x="1610" y="340" type="curve"/>
      <point x="1763" y="252" type="line"/>
      <point x="1680" y="74"/>
      <point x="1497" y="-20"/>
      <point x="1298" y="-20" type="curve" smooth="yes"/>
      <point x="1017" y="-20"/>
      <point x="800" y="208"/>
      <point x="800" y="520" type="curve" smooth="yes"/>
      <point x="800" y="832"/>
      <point x="1017" y="1060"/>
      <point x="1298" y="1060" type="curve" smooth="yes"/>
      <point x="1579" y="1060"/>
      <point x="1796" y="832"/>
      <point x="1796" y="520" type="curve" smooth="yes"/>
      <point x="1796" y="493"/>
      <point x="1794" y="466"/>
      <point x="1791" y="440" type="curve"/>
      <point x="1610" y="440" type="line"/>
      <point x="1614" y="466"/>
      <point x="1616" y="492"/>
      <point x="1616" y="520" type="curve" smooth="yes"/>
      <point x="1616" y="740"/>
      <point x="1489" y="900"/>
      <point x="1298" y="900" type="curve" smooth="yes"/>
      <point x="1107" y="900"/>
      <point x="980" y="740"/>
      <point x="980" y="520" type="curve" smooth="yes"/>
      <point x="980" y="300"/>
      <point x="1107" y="140"/>
      <point x="1298" y="140" type="curve" smooth="yes"/>
      <point x="1439" y="140"/>
      <point x="1561" y="207"/>
    </contour>
    <contour>
      <point x="500" y="-20" type="curve" smooth="yes"/>
      <point x="245" y="-20"/>
      <point x="100" y="140"/>
      <point x="100" y="340" type="curve" smooth="yes"/>
      <point x="100" y="540"/>
      <point x="285" y="700"/>
      <point x="540" y="700" type="curve" smooth="yes"/>
      <point x="755" y="700"/>
      <point x="950" y="540"/>
      <point x="950" y="340" type="curve" smooth="yes"/>
      <point x="950" y="140"/>
      <point x="785" y="-20"/>
    </contour>
    <contour>
      <point x="800" y="340" type="curve"/>
      <point x="800" y="460"/>
      <point x="720" y="540"/>
      <point x="540" y="540" type="curve" smooth="yes"/>
      <point x="360" y="540"/>
      <point x="280" y="460"/>
      <point x="280" y="340" type="curve" smooth="yes"/>
      <point x="280" y="220"/>
      <point x="360" y="140"/>
      <point x="540" y="140" type="curve" smooth="yes"/>
      <point x="690" y="140"/>
      <point x="800" y="220"/>
    </contour>
    <contour>
      <point x="980" y="227" type="line"/>
      <point x="800" y="468" type="line"/>
      <point x="800" y="640" type="line" smooth="yes"/>
      <point x="800" y="820"/>
      <point x="707" y="901"/>
      <point x="539" y="901" type="curve" smooth="yes"/>
      <point x="359" y="901"/>
      <point x="222" y="795"/>
      <point x="222" y="795" type="curve"/>
      <point x="140" y="936" type="line"/>
      <point x="140" y="936"/>
      <point x="285" y="1060"/>
      <point x="540" y="1060" type="curve" smooth="yes"/>
      <point x="786" y="1060"/>
      <point x="980" y="958"/>
      <point x="980" y="608" type="curve"/>
    </contour>
  </outline>
</glyph>
<glyph name="lslash" format="2">
  <advance width="509"/>
  <unicode hex="0142"/>
  <outline>
    <contour>
      <point x="530" y="1060" type="line"/>
      <point x="530" y="867" type="line"/>
      <point x="-70" y="520" type="line"/>
      <point x="-70" y="713" type="line"/>
    </contour>
    <contour>
      <point x="462" y="156" type="curve"/>
      <point x="504" y="4" type="line"/>
      <point x="482" y="-9"/>
      <point x="442" y="-20"/>
      <point x="410" y="-20" type="curve" smooth="yes"/>
      <point x="240" y="-20"/>
      <point x="140" y="60"/>
      <point x="140" y="230" type="curve" smooth="yes"/>
      <point x="140" y="440" type="line"/>
      <point x="140" y="578" type="line"/>
      <point x="140" y="1480" type="line"/>
      <point x="320" y="1480" type="line"/>
      <point x="320" y="578" type="line"/>
      <point x="320" y="440" type="line"/>
      <point x="320" y="230" type="line" smooth="yes"/>
      <point x="320" y="170"/>
      <point x="350" y="140"/>
      <point x="410" y="140" type="curve" smooth="yes"/>
      <point x="426" y="140"/>
      <point x="450" y="149"/>
    </contour>
  </outline>
</glyph>
<glyph name="Eng" format="2">
  <advance width="1398"/>
  <unicode hex="014A"/>
  <outline>
    <contour>
      <point x="1258" y="-202" type="line" smooth="yes"/>
      <point x="1258" y="-372"/>
      <point x="1148" y="-460"/>
      <point x="978" y="-460" type="curve" smooth="yes"/>
      <point x="946" y="-460"/>
      <point x="896" y="-449"/>
      <point x="874" y="-436" type="curve"/>
      <point x="916" y="-284" type="line"/>
      <point x="928" y="-291"/>
      <point x="962" y="-292"/>
      <point x="978" y="-292" type="curve" smooth="yes"/>
      <point x="1038" y="-292"/>
      <point x="1068" y="-262"/>
      <point x="1068" y="-202" type="curve" smooth="yes"/>
      <point x="1068" y="0" type="line"/>
      <point x="1258" y="0" type="line"/>
    </contour>
    <contour>
      <point x="330" y="1480" type="line"/>
      <point x="1068" y="320" type="line"/>
      <point x="1068" y="1480" type="line"/>
      <point x="1258" y="1480" type="line"/>
      <point x="1258" y="0" type="line"/>
      <point x="1068" y="0" type="line"/>
      <point x="330" y="1160" type="line"/>
      <point x="330" y="0" type="line"/>
      <point x="140" y="0" type="line"/>
      <point x="140" y="1480" type="line"/>
    </contour>
  </outline>
</glyph>
<glyph name="oe" format="2">
  <advance width="2012"/>
  <unicode hex="0153"/>
  <outline>
    <contour>
      <point x="990" y="600" type="line"/>
      <point x="1796" y="600" type="line"/>
      <point x="1726" y="440" type="line"/>
      <point x="990" y="440" type="line"/>
    </contour>
    <contour>
      <point x="1726" y="340" type="curve"/>
      <point x="1879" y="252" type="line"/>
      <point x="1796" y="74"/>
      <point x="1613" y="-20"/>
      <point x="1414" y="-20" type="curve" smooth="yes"/>
      <point x="1133" y="-20"/>
      <point x="916" y="208"/>
      <point x="916" y="520" type="curve" smooth="yes"/>
      <point x="916" y="832"/>
      <point x="1133" y="1060"/>
      <point x="1414" y="1060" type="curve" smooth="yes"/>
      <point x="1695" y="1060"/>
      <point x="1912" y="832"/>
      <point x="1912" y="520" type="curve" smooth="yes"/>
      <point x="1912" y="493"/>
      <point x="1910" y="466"/>
      <point x="1907" y="440" type="curve"/>
      <point x="1726" y="440" type="line"/>
      <point x="1730" y="466"/>
      <point x="1732" y="492"/>
      <point x="1732" y="520" type="curve" smooth="yes"/>
      <point x="1732" y="740"/>
      <point x="1605" y="900"/>
      <point x="1414" y="900" type="curve" smooth="yes"/>
      <point x="1223" y="900"/>
      <point x="1096" y="740"/>
      <point x="1096" y="520" type="curve" smooth="yes"/>
      <point x="1096" y="300"/>
      <point x="1223" y="140"/>
      <point x="1414" y="140" type="curve" smooth="yes"/>
      <point x="1555" y="140"/>
      <point x="1677" y="207"/>
    </contour>
    <contour>
      <point x="280" y="520" type="curve" smooth="yes"/>
      <point x="280" y="300"/>
      <point x="407" y="140"/>
      <point x="598" y="140" type="curve" smooth="yes"/>
      <point x="789" y="140"/>
      <point x="916" y="300"/>
      <point x="916" y="520" type="curve" smooth="yes"/>
      <point x="916" y="740"/>
      <point x="789" y="900"/>
      <point x="598" y="900" type="curve" smooth="yes"/>
      <point x="407" y="900"/>
      <point x="280" y="740"/>
    </contour>
    <contour>
      <point x="100" y="520" type="curve" smooth="yes"/>
      <point x="100" y="832"/>
      <point x="317" y="1060"/>
      <point x="598" y="1060" type="curve" smooth="yes"/>
      <point x="879" y="1060"/>
      <point x="1096" y="832"/>
      <point x="1096" y="520" type="curve" smooth="yes"/>
      <point x="1096" y="208"/>
      <point x="879" y="-20"/>
      <point x="598" y="-20" type="curve" smooth="yes"/>
      <point x="317" y="-20"/>
      <point x="100" y="208"/>
    </contour>
  </outline>
</glyph>
<glyph name="uni018E" format="2">
  <advance width="1208"/>
  <unicode hex="018E"/>
  <outline>
    <contour>
      <point x="235" y="656" type="line"/>
      <point x="235" y="824" type="line"/>
      <point x="878" y="824" type="line"/>
      <point x="878" y="1312" type="line"/>
      <point x="140" y="1312" type="line"/>
      <point x="140" y="1480" type="line"/>
      <point x="1068" y="1480" type="line"/>
      <point x="1068" y="0" type="line"/>
      <point x="140" y="0" type="line"/>
      <point x="140" y="168" type="line"/>
      <point x="878" y="168" type="line"/>
      <point x="878" y="656" type="line"/>
    </contour>
  </outline>
</glyph>
<glyph name="florin" format="2">
  <advance width="770"/>
  <unicode hex="0192"/>
  <outline>
    <contour>
      <point x="67" y="-146" type="line"/>
      <point x="80" y="-150"/>
      <point x="95" y="-152"/>
      <point x="111" y="-152" type="curve" smooth="yes"/>
      <point x="201" y="-152"/>
      <point x="260" y="-90"/>
      <point x="260" y="0" type="curve" smooth="yes"/>
      <point x="440" y="0" type="line" smooth="yes"/>
      <point x="440" y="-178"/>
      <point x="289" y="-312"/>
      <point x="111" y="-312" type="curve" smooth="yes"/>
      <point x="96" y="-312"/>
      <point x="81" y="-311"/>
      <point x="67" y="-309" type="curve"/>
    </contour>
    <contour>
      <point x="720" y="1305" type="line"/>
      <point x="694" y="1324"/>
      <point x="643" y="1340"/>
      <point x="600" y="1340" type="curve" smooth="yes"/>
      <point x="498" y="1340"/>
      <point x="440" y="1282"/>
      <point x="440" y="1180" type="curve" smooth="yes"/>
      <point x="440" y="1040" type="line"/>
      <point x="720" y="1040" type="line"/>
      <point x="720" y="880" type="line"/>
      <point x="440" y="880" type="line"/>
      <point x="440" y="0" type="line"/>
      <point x="260" y="0" type="line"/>
      <point x="260" y="880" type="line"/>
      <point x="50" y="880" type="line"/>
      <point x="50" y="1040" type="line"/>
      <point x="260" y="1040" type="line"/>
      <point x="260" y="1180" type="line" smooth="yes"/>
      <point x="260" y="1380"/>
      <point x="400" y="1500"/>
      <point x="600" y="1500" type="curve" smooth="yes"/>
      <point x="656" y="1500"/>
      <point x="720" y="1486"/>
      <point x="765" y="1468" type="curve"/>
    </contour>
  </outline>
</glyph>
<glyph name="uni01A7" format="2">
  <advance width="1220"/>
  <unicode hex="01A7"/>
  <anchor x="610" y="0" name="bottom_center"/>
  <anchor x="610" y="1380" name="top_center"/>
  <outline>
    <contour>
      <point x="610" y="1332" type="curve" smooth="yes"/>
      <point x="820" y="1332"/>
      <point x="885" y="1212"/>
      <point x="885" y="1084" type="curve" smooth="yes"/>
      <point x="885" y="956"/>
      <point x="755" y="876"/>
      <point x="610" y="837" type="curve" smooth="yes"/>
      <point x="320" y="759"/>
      <point x="100" y="656"/>
      <point x="100" y="396" type="curve" smooth="yes"/>
      <point x="100" y="136"/>
      <point x="304" y="-20"/>
      <point x="610" y="-20" type="curve" smooth="yes"/>
      <point x="891" y="-20"/>
      <point x="1093" y="158"/>
      <point x="1120" y="396" type="curve"/>
      <point x="934" y="446" type="line" smooth="yes"/>
      <point x="934" y="289"/>
      <point x="811" y="148"/>
      <point x="610" y="148" type="curve" smooth="yes"/>
      <point x="390" y="148"/>
      <point x="290" y="255"/>
      <point x="290" y="396" type="curve" smooth="yes"/>
      <point x="290" y="537"/>
      <point x="417" y="601"/>
      <point x="610" y="653" type="curve" smooth="yes"/>
      <point x="900" y="731"/>
      <point x="1075" y="854"/>
      <point x="1075" y="1084" type="curve" smooth="yes"/>
      <point x="1075" y="1314"/>
      <point x="901" y="1500"/>
      <point x="610" y="1500" type="curve" smooth="yes"/>
      <point x="329" y="1500"/>
      <point x="147" y="1332"/>
      <point x="120" y="1094" type="curve"/>
      <point x="307" y="1044" type="line" smooth="yes"/>
      <point x="307" y="1201"/>
      <point x="409" y="1332"/>
    </contour>
  </outline>
</glyph>
<glyph name="uni01AE" format="2">
  <advance width="1398"/>
  <unicode hex="01AE"/>
  <outline>
    <contour>
      <point x="978" y="-146" type="line"/>
      <point x="965" y="-150"/>
      <point x="950" y="-152"/>
      <point x="934" y="-152" type="curve" smooth="yes"/>
      <point x="844" y="-152"/>
      <point x="794" y="-90"/>
      <point x="794" y="0" type="curve" smooth="yes"/>
      <point x="604" y="0" type="line" smooth="yes"/>
      <point x="604" y="-178"/>
      <point x="756" y="-320"/>
      <point x="934" y="-320" type="curve" smooth="yes"/>
      <point x="949" y="-320"/>
      <point x="964" y="-319"/>
      <point x="978" y="-317" type="curve"/>
    </contour>
    <contour>
      <point x="604" y="1312" type="line"/>
      <point x="140" y="1312" type="line"/>
      <point x="140" y="1480" type="line"/>
      <point x="1258" y="1480" type="line"/>
      <point x="1258" y="1312" type="line"/>
      <point x="794" y="1312" type="line"/>
      <point x="794" y="0" type="line"/>
      <point x="604" y="0" type="line"/>
    </contour>
  </outline>
</glyph>
<glyph name="uni01B5" format="2">
  <advance width="1308"/>
  <unicode hex="01B5"/>
  <outline>
    <contour>
      <point x="1000" y="656" type="line"/>
      <point x="300" y="656" type="line"/>
      <point x="300" y="702"/>
      <point x="300" y="778"/>
      <point x="300" y="824" type="curve"/>
      <point x="1000" y="824" type="line"/>
    </contour>
    <contour>
      <point x="242" y="0" type="line"/>
      <point x="140" y="152" type="line"/>
      <point x="1038" y="1480" type="line"/>
      <point x="1140" y="1328" type="line"/>
    </contour>
    <contour>
      <point x="325" y="168" type="line"/>
      <point x="1160" y="168" type="line"/>
      <point x="1160" y="0" type="line"/>
      <point x="790" y="0"/>
      <point x="510" y="0"/>
      <point x="140" y="0" type="curve"/>
      <point x="140" y="152" type="line"/>
    </contour>
    <contour>
      <point x="954" y="1312" type="line"/>
      <point x="160" y="1312" type="line"/>
      <point x="160" y="1480" type="line"/>
      <point x="530" y="1480"/>
      <point x="770" y="1480"/>
      <point x="1140" y="1480" type="curve"/>
      <point x="1140" y="1328" type="line"/>
    </contour>
  </outline>
</glyph>
<glyph name="uni01B7" format="2">
  <advance width="1222"/>
  <unicode hex="01B7"/>
  <outline>
    <contour>
      <point x="640" y="740" type="line"/>
      <point x="515" y="840" type="line"/>
      <point x="863" y="1312" type="line"/>
      <point x="1077" y="1328" type="line"/>
    </contour>
    <contour>
      <point x="1122" y="422" type="curve" smooth="yes"/>
      <point x="1122" y="179"/>
      <point x="910" y="-20"/>
      <point x="610" y="-20" type="curve" smooth="yes"/>
      <point x="329" y="-20"/>
      <point x="127" y="158"/>
      <point x="100" y="396" type="curve"/>
      <point x="287" y="446" type="line" smooth="yes"/>
      <point x="287" y="290"/>
      <point x="410" y="148"/>
      <point x="610" y="148" type="curve" smooth="yes"/>
      <point x="810" y="148"/>
      <point x="932" y="266"/>
      <point x="932" y="422" type="curve" smooth="yes"/>
      <point x="932" y="578"/>
      <point x="810" y="696"/>
      <point x="610" y="696" type="curve"/>
      <point x="539" y="696"/>
      <point x="515" y="696"/>
      <point x="515" y="696" type="curve"/>
      <point x="515" y="840" type="line"/>
      <point x="515" y="840"/>
      <point x="540" y="856"/>
      <point x="610" y="856" type="curve"/>
      <point x="893" y="856"/>
      <point x="1122" y="662"/>
    </contour>
    <contour>
      <point x="172" y="1480" type="line"/>
      <point x="1077" y="1480" type="line"/>
      <point x="1077" y="1328" type="line"/>
      <point x="903" y="1312" type="line"/>
      <point x="172" y="1312" type="line"/>
    </contour>
  </outline>
</glyph>
<glyph name="uni0239" format="2">
  <advance width="1908"/>
  <unicode hex="0239"/>
  <outline>
    <contour>
      <point x="876" y="520" type="curve" smooth="yes"/>
      <point x="876" y="290"/>
      <point x="758" y="140"/>
      <point x="578" y="140" type="curve" smooth="yes"/>
      <point x="398" y="140"/>
      <point x="280" y="290"/>
      <point x="280" y="520" type="curve" smooth="yes"/>
      <point x="280" y="750"/>
      <point x="398" y="900"/>
      <point x="578" y="900" type="curve" smooth="yes"/>
      <point x="758" y="900"/>
      <point x="876" y="750"/>
    </contour>
    <contour>
      <point x="864" y="-440" type="line"/>
      <point x="1044" y="-440" type="line"/>
      <point x="1044" y="120" type="line"/>
      <point x="1129" y="35"/>
      <point x="1205" y="-20"/>
      <point x="1330" y="-20" type="curve" smooth="yes"/>
      <point x="1611" y="-20"/>
      <point x="1808" y="208"/>
      <point x="1808" y="520" type="curve" smooth="yes"/>
      <point x="1808" y="832"/>
      <point x="1611" y="1060"/>
      <point x="1330" y="1060" type="curve" smooth="yes"/>
      <point x="1205" y="1060"/>
      <point x="1121" y="1005"/>
      <point x="1036" y="920" type="curve"/>
      <point x="1036" y="1040" type="line"/>
      <point x="872" y="1040" type="line"/>
      <point x="872" y="920" type="line"/>
      <point x="787" y="1005"/>
      <point x="703" y="1060"/>
      <point x="578" y="1060" type="curve" smooth="yes"/>
      <point x="297" y="1060"/>
      <point x="100" y="832"/>
      <point x="100" y="520" type="curve" smooth="yes"/>
      <point x="100" y="208"/>
      <point x="297" y="-20"/>
      <point x="578" y="-20" type="curve" smooth="yes"/>
      <point x="703" y="-20"/>
      <point x="779" y="35"/>
      <point x="864" y="120" type="curve"/>
    </contour>
    <contour>
      <point x="1032" y="520" type="curve" smooth="yes"/>
      <point x="1032" y="750"/>
      <point x="1150" y="900"/>
      <point x="1330" y="900" type="curve" smooth="yes"/>
      <point x="1510" y="900"/>
      <point x="1628" y="750"/>
      <point x="1628" y="520" type="curve" smooth="yes"/>
      <point x="1628" y="290"/>
      <point x="1510" y="140"/>
      <point x="1330" y="140" type="curve" smooth="yes"/>
      <point x="1150" y="140"/>
      <point x="1032" y="290"/>
    </contour>
  </outline>
</glyph>
<glyph name="uni0240" format="2">
  <advance width="1042"/>
  <unicode hex="0240"/>
  <outline>
    <contour>
      <point x="910" y="-42" type="curve"/>
      <point x="1032" y="-165" type="line"/>
      <point x="971" y="-242"/>
      <point x="887" y="-283"/>
      <point x="797" y="-283" type="curve" smooth="yes"/>
      <point x="743" y="-283"/>
      <point x="687" y="-268"/>
      <point x="633" y="-237" type="curve" smooth="yes"/>
      <point x="460" y="-137"/>
      <point x="519" y="-1"/>
      <point x="419" y="57" type="curve" smooth="yes"/>
      <point x="398" y="69"/>
      <point x="374" y="76"/>
      <point x="350" y="76" type="curve" smooth="yes"/>
      <point x="306" y="76"/>
      <point x="259" y="53"/>
      <point x="222" y="0" type="curve"/>
      <point x="100" y="123" type="line"/>
      <point x="161" y="200"/>
      <point x="245" y="241"/>
      <point x="335" y="241" type="curve" smooth="yes"/>
      <point x="389" y="241"/>
      <point x="445" y="226"/>
      <point x="499" y="195" type="curve" smooth="yes"/>
      <point x="672" y="95"/>
      <point x="613" y="-41"/>
      <point x="713" y="-99" type="curve" smooth="yes"/>
      <point x="734" y="-111"/>
      <point x="758" y="-118"/>
      <point x="782" y="-118" type="curve" smooth="yes"/>
      <point x="826" y="-118"/>
      <point x="873" y="-95"/>
    </contour>
    <contour>
      <point x="140" y="1040" type="line"/>
      <point x="880" y="1040" type="line"/>
      <point x="880" y="896" type="line"/>
      <point x="786" y="880" type="line"/>
      <point x="140" y="880" type="line"/>
    </contour>
    <contour>
      <point x="304" y="139" type="line"/>
      <point x="100" y="123" type="line"/>
      <point x="676" y="880" type="line"/>
      <point x="880" y="896" type="line"/>
    </contour>
  </outline>
</glyph>
<glyph name="uni024A" format="2">
  <advance width="1686"/>
  <unicode hex="024A"/>
  <outline>
    <contour>
      <point x="1686" y="-286" type="curve"/>
      <point x="1686" y="-457" type="line"/>
      <point x="1672" y="-459"/>
      <point x="1657" y="-460"/>
      <point x="1642" y="-460" type="curve" smooth="yes"/>
      <point x="1464" y="-460"/>
      <point x="1312" y="-318"/>
      <point x="1312" y="-140" type="curve" smooth="yes"/>
      <point x="1502" y="-140" type="line" smooth="yes"/>
      <point x="1502" y="-230"/>
      <point x="1552" y="-292"/>
      <point x="1642" y="-292" type="curve" smooth="yes"/>
      <point x="1658" y="-292"/>
      <point x="1673" y="-290"/>
    </contour>
    <contour>
      <point x="1502" y="1480" type="line"/>
      <point x="1502" y="-140" type="line"/>
      <point x="1312" y="-140" type="line"/>
      <point x="1312" y="338" type="line"/>
      <point x="1352" y="406" type="line"/>
      <point x="1352" y="1086" type="line"/>
      <point x="1312" y="1162" type="line"/>
      <point x="1312" y="1480" type="line"/>
    </contour>
    <contour>
      <point x="290" y="740" type="curve" smooth="yes"/>
      <point x="290" y="390"/>
      <point x="511" y="148"/>
      <point x="801" y="148" type="curve" smooth="yes"/>
      <point x="1091" y="148"/>
      <point x="1312" y="390"/>
      <point x="1312" y="740" type="curve" smooth="yes"/>
      <point x="1312" y="1090"/>
      <point x="1091" y="1332"/>
      <point x="801" y="1332" type="curve" smooth="yes"/>
      <point x="511" y="1332"/>
      <point x="290" y="1090"/>
    </contour>
    <contour>
      <point x="100" y="740" type="curve" smooth="yes"/>
      <point x="100" y="1179"/>
      <point x="406" y="1500"/>
      <point x="801" y="1500" type="curve" smooth="yes"/>
      <point x="1196" y="1500"/>
      <point x="1472" y="1179"/>
      <point x="1472" y="740" type="curve" smooth="yes"/>
      <point x="1472" y="301"/>
      <point x="1196" y="-20"/>
      <point x="801" y="-20" type="curve" smooth="yes"/>
      <point x="406" y="-20"/>
      <point x="100" y="301"/>
    </contour>
  </outline>
</glyph>
<glyph name="uni025C" format="2">
  <advance width="1013"/>
  <unicode hex="025C"/>
  <outline>
    <contour>
      <point x="505" y="618" type="curve"/>
      <point x="626" y="618"/>
      <point x="691" y="680"/>
      <point x="691" y="762" type="curve" smooth="yes"/>
      <point x="691" y="844"/>
      <point x="626" y="900"/>
      <point x="505" y="900" type="curve" smooth="yes"/>
      <point x="384" y="900"/>
      <point x="313" y="823"/>
      <point x="313" y="741" type="curve" smooth="yes"/>
      <point x="141" y="788" type="line"/>
      <point x="162" y="937"/>
      <point x="290" y="1060"/>
      <point x="505" y="1060" type="curve" smooth="yes"/>
      <point x="720" y="1060"/>
      <point x="871" y="932"/>
      <point x="871" y="774" type="curve" smooth="yes"/>
      <point x="871" y="683"/>
      <point x="831" y="600"/>
      <point x="732" y="549" type="curve"/>
      <point x="857" y="493"/>
      <point x="913" y="398"/>
      <point x="913" y="290" type="curve" smooth="yes"/>
      <point x="913" y="117"/>
      <point x="744" y="-20"/>
      <point x="505" y="-20" type="curve" smooth="yes"/>
      <point x="281" y="-20"/>
      <point x="128" y="78"/>
      <point x="100" y="252" type="curve"/>
      <point x="272" y="299" type="line" smooth="yes"/>
      <point x="284" y="204"/>
      <point x="361" y="140"/>
      <point x="505" y="140" type="curve" smooth="yes"/>
      <point x="649" y="140"/>
      <point x="734" y="208"/>
      <point x="734" y="303" type="curve" smooth="yes"/>
      <point x="734" y="398"/>
      <point x="649" y="471"/>
      <point x="505" y="471" type="curve"/>
      <point x="456" y="471"/>
      <point x="440" y="471"/>
      <point x="440" y="471" type="curve"/>
      <point x="440" y="618" type="line"/>
      <point x="440" y="618"/>
      <point x="457" y="618"/>
    </contour>
  </outline>
</glyph>
<glyph name="uni025D" format="2">
  <advance width="1272"/>
  <unicode hex="025D"/>
  <outline>
    <contour>
      <point x="505" y="618" type="curve"/>
      <point x="626" y="618"/>
      <point x="691" y="680"/>
      <point x="691" y="762" type="curve" smooth="yes"/>
      <point x="691" y="844"/>
      <point x="626" y="900"/>
      <point x="505" y="900" type="curve" smooth="yes"/>
      <point x="384" y="900"/>
      <point x="313" y="823"/>
      <point x="313" y="741" type="curve" smooth="yes"/>
      <point x="141" y="788" type="line"/>
      <point x="162" y="937"/>
      <point x="290" y="1060"/>
      <point x="505" y="1060" type="curve" smooth="yes"/>
      <point x="720" y="1060"/>
      <point x="871" y="932"/>
      <point x="871" y="774" type="curve" smooth="yes"/>
      <point x="871" y="683"/>
      <point x="831" y="600"/>
      <point x="732" y="549" type="curve"/>
      <point x="857" y="493"/>
      <point x="913" y="398"/>
      <point x="913" y="290" type="curve" smooth="yes"/>
      <point x="913" y="117"/>
      <point x="744" y="-20"/>
      <point x="505" y="-20" type="curve" smooth="yes"/>
      <point x="281" y="-20"/>
      <point x="128" y="78"/>
      <point x="100" y="252" type="curve"/>
      <point x="272" y="299" type="line" smooth="yes"/>
      <point x="284" y="204"/>
      <point x="361" y="140"/>
      <point x="505" y="140" type="curve" smooth="yes"/>
      <point x="649" y="140"/>
      <point x="734" y="208"/>
      <point x="734" y="303" type="curve" smooth="yes"/>
      <point x="734" y="398"/>
      <point x="649" y="471"/>
      <point x="505" y="471" type="curve"/>
      <point x="456" y="471"/>
      <point x="440" y="471"/>
      <point x="440" y="471" type="curve"/>
      <point x="440" y="618" type="line"/>
      <point x="440" y="618"/>
      <point x="457" y="618"/>
    </contour>
    <contour>
      <point x="933" y="698" type="curve"/>
      <point x="1078" y="781" type="line"/>
      <point x="1078" y="673"/>
      <point x="1138" y="558"/>
      <point x="1228" y="558" type="curve" smooth="yes"/>
      <point x="1244" y="558"/>
      <point x="1259" y="560"/>
      <point x="1272" y="564" type="curve"/>
      <point x="1272" y="401" type="line"/>
      <point x="1258" y="399"/>
      <point x="1243" y="398"/>
      <point x="1228" y="398" type="curve" smooth="yes"/>
      <point x="1019" y="398"/>
      <point x="939" y="606"/>
    </contour>
    <contour>
      <point x="754" y="694" type="line"/>
      <point x="1078" y="781" type="line"/>
      <point x="1056" y="690" type="line"/>
      <point x="1119" y="626" type="line"/>
      <point x="679" y="508" type="line"/>
    </contour>
  </outline>
</glyph>
<glyph name="uni0264" format="2">
  <advance width="1028"/>
  <unicode hex="0264"/>
  <outline>
    <contour>
      <point x="751" y="365" type="line"/>
      <point x="769" y="334"/>
      <point x="789" y="283"/>
      <point x="789" y="223" type="curve" smooth="yes"/>
      <point x="789" y="93"/>
      <point x="694" y="-20"/>
      <point x="514" y="-20" type="curve" smooth="yes"/>
      <point x="334" y="-20"/>
      <point x="239" y="93"/>
      <point x="239" y="223" type="curve" smooth="yes"/>
      <point x="239" y="283"/>
      <point x="266" y="334"/>
      <point x="284" y="365" type="curve"/>
      <point x="413" y="560" type="line"/>
      <point x="70" y="1040" type="line"/>
      <point x="278" y="1040" type="line"/>
      <point x="514" y="690" type="line"/>
      <point x="750" y="1040" type="line"/>
      <point x="958" y="1040" type="line"/>
      <point x="615" y="560" type="line"/>
    </contour>
    <contour>
      <point x="572" y="356" type="curve"/>
      <point x="514" y="426" type="line"/>
      <point x="462" y="356" type="line"/>
      <point x="443" y="327"/>
      <point x="419" y="292"/>
      <point x="419" y="252" type="curve" smooth="yes"/>
      <point x="419" y="191"/>
      <point x="451" y="140"/>
      <point x="514" y="140" type="curve" smooth="yes"/>
      <point x="577" y="140"/>
      <point x="609" y="191"/>
      <point x="609" y="252" type="curve" smooth="yes"/>
      <point x="609" y="292"/>
      <point x="591" y="326"/>
    </contour>
  </outline>
</glyph>
<glyph name="uni0273" format="2">
  <advance width="1210"/>
  <unicode hex="0273"/>
  <outline>
    <contour>
      <point x="836" y="0" type="curve"/>
      <point x="836" y="572" type="line" smooth="yes"/>
      <point x="836" y="791"/>
      <point x="758" y="900"/>
      <point x="578" y="900" type="curve" smooth="yes"/>
      <point x="398" y="900"/>
      <point x="320" y="791"/>
      <point x="320" y="572" type="curve" smooth="yes"/>
      <point x="320" y="0" type="line"/>
      <point x="140" y="0" type="line"/>
      <point x="140" y="1040" type="line"/>
      <point x="308" y="1040" type="line"/>
      <point x="308" y="920" type="line"/>
      <point x="393" y="1005"/>
      <point x="493" y="1060"/>
      <point x="618" y="1060" type="curve" smooth="yes"/>
      <point x="888" y="1060"/>
      <point x="1016" y="892"/>
      <point x="1016" y="572" type="curve"/>
      <point x="1016" y="0" type="line"/>
      <point x="1016" y="-93"/>
      <point x="1076" y="-163"/>
      <point x="1166" y="-163" type="curve" smooth="yes"/>
      <point x="1182" y="-163"/>
      <point x="1197" y="-161"/>
      <point x="1210" y="-157" type="curve"/>
      <point x="1210" y="-320" type="line"/>
      <point x="1196" y="-322"/>
      <point x="1181" y="-323"/>
      <point x="1166" y="-323" type="curve" smooth="yes"/>
      <point x="988" y="-323"/>
      <point x="836" y="-181"/>
    </contour>
  </outline>
</glyph>
<glyph name="uni027C" format="2">
  <advance width="797"/>
  <unicode hex="027C"/>
  <outline>
    <contour>
      <point x="744" y="849" type="line"/>
      <point x="701" y="883"/>
      <point x="649" y="900"/>
      <point x="578" y="900" type="curve" smooth="yes"/>
      <point x="398" y="900"/>
      <point x="320" y="791"/>
      <point x="320" y="572" type="curve" smooth="yes"/>
      <point x="320" y="-440" type="line"/>
      <point x="140" y="-440" type="line"/>
      <point x="140" y="1040" type="line"/>
      <point x="308" y="1040" type="line"/>
      <point x="308" y="920" type="line"/>
      <point x="393" y="1005"/>
      <point x="493" y="1060"/>
      <point x="618" y="1060" type="curve" smooth="yes"/>
      <point x="686" y="1060"/>
      <point x="741" y="1049"/>
      <point x="792" y="1028" type="curve"/>
    </contour>
  </outline>
</glyph>
<glyph name="uni0282" format="2">
  <advance width="1032"/>
  <unicode hex="0282"/>
  <outline>
    <contour>
      <point x="280" y="0" type="line"/>
      <point x="280" y="-93"/>
      <point x="340" y="-163"/>
      <point x="430" y="-163" type="curve" smooth="yes"/>
      <point x="446" y="-163"/>
      <point x="461" y="-161"/>
      <point x="474" y="-157" type="curve"/>
      <point x="474" y="-320" type="line"/>
      <point x="460" y="-322"/>
      <point x="445" y="-323"/>
      <point x="430" y="-323" type="curve" smooth="yes"/>
      <point x="252" y="-323"/>
      <point x="100" y="-181"/>
      <point x="100" y="0" type="curve"/>
      <point x="100" y="252" type="line"/>
      <point x="280" y="149" type="line"/>
    </contour>
    <contour>
      <point x="312" y="755" type="curve" smooth="yes"/>
      <point x="312" y="674"/>
      <point x="379" y="651"/>
      <point x="532" y="613" type="curve" smooth="yes"/>
      <point x="755" y="557"/>
      <point x="932" y="473"/>
      <point x="932" y="285" type="curve" smooth="yes"/>
      <point x="932" y="97"/>
      <point x="762" y="-20"/>
      <point x="532" y="-20" type="curve" smooth="yes"/>
      <point x="302" y="-20"/>
      <point x="151" y="63"/>
      <point x="100" y="252" type="curve"/>
      <point x="253" y="340" type="line"/>
      <point x="278" y="200"/>
      <point x="392" y="140"/>
      <point x="532" y="140" type="curve" smooth="yes"/>
      <point x="708" y="140"/>
      <point x="752" y="204"/>
      <point x="752" y="285" type="curve" smooth="yes"/>
      <point x="752" y="366"/>
      <point x="685" y="391"/>
      <point x="532" y="431" type="curve" smooth="yes"/>
      <point x="309" y="489"/>
      <point x="132" y="567"/>
      <point x="132" y="755" type="curve" smooth="yes"/>
      <point x="132" y="942"/>
      <point x="302" y="1060"/>
      <point x="532" y="1060" type="curve" smooth="yes"/>
      <point x="762" y="1060"/>
      <point x="862" y="957"/>
      <point x="924" y="788" type="curve"/>
      <point x="771" y="700" type="line"/>
      <point x="735" y="799"/>
      <point x="690" y="900"/>
      <point x="532" y="900" type="curve" smooth="yes"/>
      <point x="356" y="900"/>
      <point x="312" y="836"/>
    </contour>
  </outline>
</glyph>
<glyph name="uni0286" format="2">
  <advance width="855"/>
  <unicode hex="0286"/>
  <outline>
    <contour>
      <point x="770" y="-8" type="line"/>
      <point x="240" y="-8" type="line"/>
      <point x="240" y="-168" type="line"/>
      <point x="770" y="-168" type="line"/>
    </contour>
    <contour>
      <point x="480" y="-234" type="curve" smooth="yes"/>
      <point x="480" y="1180" type="line" smooth="yes"/>
      <point x="480" y="1282"/>
      <point x="538" y="1340"/>
      <point x="640" y="1340" type="curve" smooth="yes"/>
      <point x="683" y="1340"/>
      <point x="734" y="1324"/>
      <point x="760" y="1305" type="curve"/>
      <point x="805" y="1468" type="line"/>
      <point x="760" y="1486"/>
      <point x="696" y="1500"/>
      <point x="640" y="1500" type="curve" smooth="yes"/>
      <point x="440" y="1500"/>
      <point x="300" y="1380"/>
      <point x="300" y="1180" type="curve" smooth="yes"/>
      <point x="300" y="-234" type="line" smooth="yes"/>
      <point x="300" y="-270"/>
      <point x="276" y="-300"/>
      <point x="240" y="-300" type="curve" smooth="yes"/>
      <point x="204" y="-300"/>
      <point x="180" y="-270"/>
      <point x="180" y="-234" type="curve" smooth="yes"/>
      <point x="180" y="-198"/>
      <point x="204" y="-168"/>
      <point x="240" y="-168" type="curve" smooth="yes"/>
      <point x="240" y="-8" type="line" smooth="yes"/>
      <point x="110" y="-8"/>
      <point x="0" y="-92"/>
      <point x="0" y="-234" type="curve" smooth="yes"/>
      <point x="0" y="-376"/>
      <point x="110" y="-460"/>
      <point x="240" y="-460" type="curve" smooth="yes"/>
      <point x="370" y="-460"/>
      <point x="480" y="-376"/>
    </contour>
  </outline>
</glyph>
<glyph name="uni0289" format="2">
  <advance width="1296"/>
  <unicode hex="0289"/>
  <outline>
    <contour>
      <point x="0" y="600" type="line"/>
      <point x="1296" y="600" type="line"/>
      <point x="1296" y="440" type="line"/>
      <point x="0" y="440" type="line"/>
    </contour>
    <contour>
      <point x="390" y="1040" type="line"/>
      <point x="390" y="468" type="line" smooth="yes"/>
      <point x="390" y="249"/>
      <point x="468" y="140"/>
      <point x="648" y="140" type="curve" smooth="yes"/>
      <point x="828" y="140"/>
      <point x="906" y="249"/>
      <point x="906" y="468" type="curve" smooth="yes"/>
      <point x="906" y="1040" type="line"/>
      <point x="1086" y="1040" type="line"/>
      <point x="1086" y="168" type="line"/>
      <point x="1086" y="66"/>
      <point x="1106" y="0"/>
      <point x="1106" y="0" type="curve"/>
      <point x="934" y="0" type="line"/>
      <point x="934" y="0"/>
      <point x="918" y="60"/>
      <point x="918" y="120" type="curve"/>
      <point x="833" y="35"/>
      <point x="733" y="-20"/>
      <point x="608" y="-20" type="curve" smooth="yes"/>
      <point x="338" y="-20"/>
      <point x="210" y="148"/>
      <point x="210" y="468" type="curve"/>
      <point x="210" y="1040" type="line"/>
    </contour>
  </outline>
</glyph>
<glyph name="uni029B" format="2">
  <advance width="1211"/>
  <unicode hex="029B"/>
  <outline>
    <contour>
      <point x="1213" y="1160" type="curve" smooth="yes"/>
      <point x="1228" y="1160"/>
      <point x="1243" y="1159"/>
      <point x="1257" y="1157" type="curve"/>
      <point x="1257" y="994" type="line"/>
      <point x="1244" y="998"/>
      <point x="1229" y="1000"/>
      <point x="1213" y="1000" type="curve" smooth="yes"/>
      <point x="1123" y="1000"/>
      <point x="1063" y="930"/>
      <point x="1063" y="840" type="curve" smooth="yes"/>
      <point x="1063" y="822"/>
      <point x="1064" y="805"/>
      <point x="1069" y="790" type="curve"/>
      <point x="887" y="790" type="line"/>
      <point x="884" y="806"/>
      <point x="883" y="823"/>
      <point x="883" y="840" type="curve" smooth="yes"/>
      <point x="883" y="1018"/>
      <point x="1035" y="1160"/>
    </contour>
    <contour>
      <point x="921" y="703" type="line"/>
      <point x="875" y="803"/>
      <point x="775" y="914"/>
      <point x="625" y="914" type="curve" smooth="yes"/>
      <point x="421" y="914"/>
      <point x="280" y="753"/>
      <point x="280" y="520" type="curve" smooth="yes"/>
      <point x="280" y="287"/>
      <point x="421" y="125"/>
      <point x="625" y="125" type="curve" smooth="yes"/>
      <point x="775" y="125"/>
      <point x="871" y="236"/>
      <point x="917" y="336" type="curve"/>
      <point x="1030" y="256" type="line"/>
      <point x="943" y="71"/>
      <point x="823" y="-36"/>
      <point x="625" y="-36" type="curve" smooth="yes"/>
      <point x="333" y="-36"/>
      <point x="100" y="199"/>
      <point x="100" y="520" type="curve" smooth="yes"/>
      <point x="100" y="841"/>
      <point x="333" y="1075"/>
      <point x="625" y="1075" type="curve" smooth="yes"/>
      <point x="823" y="1075"/>
      <point x="983" y="974"/>
      <point x="1070" y="789" type="curve"/>
    </contour>
    <contour>
      <point x="891" y="277" type="line"/>
      <point x="891" y="363" type="line"/>
      <point x="588" y="363" type="line"/>
      <point x="588" y="523" type="line"/>
      <point x="1071" y="523" type="line"/>
      <point x="1071" y="0" type="line"/>
      <point x="899" y="0" type="line"/>
      <point x="899" y="132" type="line"/>
    </contour>
  </outline>
</glyph>
<glyph name="uni02A1" format="2">
  <advance width="1192"/>
  <unicode hex="02A1"/>
  <outline>
    <contour>
      <point x="929" y="206" type="line"/>
      <point x="929" y="374" type="line"/>
      <point x="259" y="374" type="line"/>
      <point x="259" y="328"/>
      <point x="259" y="252"/>
      <point x="259" y="206" type="curve"/>
    </contour>
    <contour>
      <point x="504" y="0" type="line"/>
      <point x="684" y="0" type="line"/>
      <point x="684" y="580" type="line"/>
      <point x="504" y="580" type="line"/>
    </contour>
    <contour>
      <point x="594" y="420" type="line" smooth="yes"/>
      <point x="875" y="420"/>
      <point x="1092" y="648"/>
      <point x="1092" y="960" type="curve" smooth="yes"/>
      <point x="1092" y="1272"/>
      <point x="894" y="1500"/>
      <point x="594" y="1500" type="curve" smooth="yes"/>
      <point x="324" y="1500"/>
      <point x="131" y="1306"/>
      <point x="100" y="1032" type="curve"/>
      <point x="276" y="978" type="line"/>
      <point x="282" y="1189"/>
      <point x="396" y="1340"/>
      <point x="594" y="1340" type="curve" smooth="yes"/>
      <point x="796" y="1340"/>
      <point x="912" y="1180"/>
      <point x="912" y="960" type="curve" smooth="yes"/>
      <point x="912" y="740"/>
      <point x="785" y="580"/>
      <point x="594" y="580" type="curve" smooth="yes"/>
    </contour>
  </outline>
</glyph>
<glyph name="uni02A3" format="2">
  <advance width="1928"/>
  <unicode hex="02A3"/>
  <outline>
    <contour>
      <point x="1044" y="1040" type="line"/>
      <point x="1784" y="1040" type="line"/>
      <point x="1784" y="896" type="line"/>
      <point x="1670" y="880" type="line"/>
      <point x="1044" y="880" type="line"/>
    </contour>
    <contour>
      <point x="1784" y="160" type="line"/>
      <point x="1784" y="0" type="line"/>
      <point x="1044" y="0" type="line"/>
      <point x="1044" y="144" type="line"/>
      <point x="1168" y="160" type="line"/>
    </contour>
    <contour>
      <point x="1248" y="160" type="line"/>
      <point x="1044" y="144" type="line"/>
      <point x="1580" y="880" type="line"/>
      <point x="1784" y="896" type="line"/>
    </contour>
    <contour>
      <point x="876" y="520" type="curve" smooth="yes"/>
      <point x="876" y="750"/>
      <point x="758" y="900"/>
      <point x="578" y="900" type="curve" smooth="yes"/>
      <point x="398" y="900"/>
      <point x="280" y="750"/>
      <point x="280" y="520" type="curve" smooth="yes"/>
      <point x="280" y="290"/>
      <point x="398" y="140"/>
      <point x="578" y="140" type="curve" smooth="yes"/>
      <point x="758" y="140"/>
      <point x="876" y="290"/>
    </contour>
    <contour>
      <point x="1044" y="168" type="line"/>
      <point x="1044" y="66"/>
      <point x="1064" y="0"/>
      <point x="1064" y="0" type="curve"/>
      <point x="892" y="0" type="line"/>
      <point x="892" y="0"/>
      <point x="876" y="60"/>
      <point x="876" y="120" type="curve"/>
      <point x="791" y="35"/>
      <point x="703" y="-20"/>
      <point x="578" y="-20" type="curve" smooth="yes"/>
      <point x="297" y="-20"/>
      <point x="100" y="208"/>
      <point x="100" y="520" type="curve" smooth="yes"/>
      <point x="100" y="832"/>
      <point x="297" y="1060"/>
      <point x="578" y="1060" type="curve" smooth="yes"/>
      <point x="703" y="1060"/>
      <point x="779" y="1005"/>
      <point x="864" y="920" type="curve"/>
      <point x="864" y="1480" type="line"/>
      <point x="1044" y="1480" type="line"/>
    </contour>
  </outline>
</glyph>
<glyph name="uni02AE" format="2">
  <advance width="1201"/>
  <unicode hex="02AE"/>
  <outline>
    <contour>
      <point x="1029" y="-440" type="line"/>
      <point x="1029" y="120" type="line"/>
      <point x="944" y="35"/>
      <point x="848" y="-20"/>
      <point x="723" y="-20" type="curve" smooth="yes"/>
      <point x="453" y="-20"/>
      <point x="325" y="148"/>
      <point x="325" y="468" type="curve"/>
      <point x="325" y="1180" type="line" smooth="yes"/>
      <point x="325" y="1282"/>
      <point x="267" y="1340"/>
      <point x="165" y="1340" type="curve" smooth="yes"/>
      <point x="122" y="1340"/>
      <point x="71" y="1324"/>
      <point x="45" y="1305" type="curve"/>
      <point x="0" y="1468" type="line"/>
      <point x="45" y="1486"/>
      <point x="109" y="1500"/>
      <point x="165" y="1500" type="curve" smooth="yes"/>
      <point x="365" y="1500"/>
      <point x="505" y="1380"/>
      <point x="505" y="1180" type="curve" smooth="yes"/>
      <point x="505" y="468" type="line" smooth="yes"/>
      <point x="505" y="249"/>
      <point x="583" y="140"/>
      <point x="763" y="140" type="curve" smooth="yes"/>
      <point x="943" y="140"/>
      <point x="1021" y="249"/>
      <point x="1021" y="468" type="curve" smooth="yes"/>
      <point x="1021" y="1040" type="line"/>
      <point x="1201" y="1040" type="line"/>
      <point x="1201" y="-440" type="line"/>
    </contour>
  </outline>
</glyph>
<glyph name="uni02BE" format="2">
  <advance width="348"/>
  <unicode hex="02BE"/>
  <outline>
    <contour>
      <point x="70" y="1247" type="line" smooth="yes"/>
      <point x="116" y="1247"/>
      <point x="150" y="1281"/>
      <point x="150" y="1327" type="curve" smooth="yes"/>
      <point x="150" y="1373"/>
      <point x="116" y="1407"/>
      <point x="70" y="1407" type="curve" smooth="yes"/>
      <point x="70" y="1524" type="line" smooth="yes"/>
      <point x="180" y="1524"/>
      <point x="278" y="1437"/>
      <point x="278" y="1327" type="curve" smooth="yes"/>
      <point x="278" y="1217"/>
      <point x="180" y="1130"/>
      <point x="70" y="1130" type="curve" smooth="yes"/>
    </contour>
  </outline>
</glyph>
<glyph name="uni0307" format="2">
  <advance width="0"/>
  <unicode hex="0307"/>
  <anchor x="642" y="1040" name="_top_center"/>
  <outline>
    <contour>
      <point x="514" y="1352" type="curve" smooth="yes"/>
      <point x="514" y="1424"/>
      <point x="570" y="1480"/>
      <point x="642" y="1480" type="curve" smooth="yes"/>
      <point x="714" y="1480"/>
      <point x="770" y="1424"/>
      <point x="770" y="1352" type="curve" smooth="yes"/>
      <point x="770" y="1280"/>
      <point x="714" y="1224"/>
      <point x="642" y="1224" type="curve" smooth="yes"/>
      <point x="570" y="1224"/>
      <point x="514" y="1280"/>
    </contour>
  </outline>
</glyph>
<glyph name="uni0308" format="2">
  <advance width="0"/>
  <unicode hex="0308"/>
  <anchor x="642" y="1040" name="_top_center"/>
  <anchor x="641" y="1350" name="dieresis_center"/>
  <outline>
    <contour>
      <point x="737" y="1352" type="curve" smooth="yes"/>
      <point x="737" y="1424"/>
      <point x="793" y="1480"/>
      <point x="865" y="1480" type="curve" smooth="yes"/>
      <point x="937" y="1480"/>
      <point x="993" y="1424"/>
      <point x="993" y="1352" type="curve" smooth="yes"/>
      <point x="993" y="1280"/>
      <point x="937" y="1224"/>
      <point x="865" y="1224" type="curve" smooth="yes"/>
      <point x="793" y="1224"/>
      <point x="737" y="1280"/>
    </contour>
    <contour>
      <point x="289" y="1352" type="curve" smooth="yes"/>
      <point x="289" y="1424"/>
      <point x="345" y="1480"/>
      <point x="417" y="1480" type="curve" smooth="yes"/>
      <point x="489" y="1480"/>
      <point x="545" y="1424"/>
      <point x="545" y="1352" type="curve" smooth="yes"/>
      <point x="545" y="1280"/>
      <point x="489" y="1224"/>
      <point x="417" y="1224" type="curve" smooth="yes"/>
      <point x="345" y="1224"/>
      <point x="289" y="1280"/>
    </contour>
  </outline>
</glyph>
<glyph name="uni030B" format="2">
  <advance width="0"/>
  <unicode hex="030B"/>
  <anchor x="642" y="1040" name="_top_center"/>
  <outline>
    <contour>
      <point x="883" y="1224" type="line"/>
      <point x="705" y="1224" type="line"/>
      <point x="883" y="1480" type="line"/>
      <point x="1109" y="1480" type="line"/>
    </contour>
    <contour>
      <point x="479" y="1224" type="line"/>
      <point x="301" y="1224" type="line"/>
      <point x="479" y="1480" type="line"/>
      <point x="705" y="1480" type="line"/>
    </contour>
  </outline>
</glyph>
<glyph name="uni0328" format="2">
  <advance width="0"/>
  <unicode hex="0328"/>
  <anchor x="642" y="0" name="_bottom_right"/>
  <outline>
    <contour>
      <point x="609" y="-225" type="curve"/>
      <point x="667" y="-326" type="line"/>
      <point x="612" y="-364"/>
      <point x="569" y="-380"/>
      <point x="505" y="-380" type="curve" smooth="yes"/>
      <point x="405" y="-380"/>
      <point x="315" y="-324"/>
      <point x="315" y="-204" type="curve" smooth="yes"/>
      <point x="315" y="-84"/>
      <point x="507" y="44"/>
      <point x="562" y="80" type="curve" smooth="yes"/>
      <point x="642" y="0" type="line" smooth="yes"/>
      <point x="534" y="-78"/>
      <point x="442" y="-137"/>
      <point x="442" y="-204" type="curve" smooth="yes"/>
      <point x="442" y="-240"/>
      <point x="469" y="-263"/>
      <point x="505" y="-263" type="curve" smooth="yes"/>
      <point x="541" y="-263"/>
      <point x="575" y="-250"/>
    </contour>
  </outline>
</glyph>
<glyph name="uni032D" format="2">
  <advance width="0"/>
  <unicode hex="032D"/>
  <anchor x="642" y="0" name="_bottom_center"/>
  <outline>
    <contour>
      <point x="755" y="-440" type="line"/>
      <point x="547" y="-184" type="line"/>
      <point x="737" y="-184" type="line"/>
      <point x="933" y="-440" type="line"/>
    </contour>
    <contour>
      <point x="529" y="-440" type="line"/>
      <point x="351" y="-440" type="line"/>
      <point x="547" y="-184" type="line"/>
      <point x="737" y="-184" type="line"/>
    </contour>
  </outline>
</glyph>
<glyph name="uni0338" format="2">
  <advance width="0"/>
  <unicode hex="0338"/>
  <outline>
    <contour>
      <point x="1057" y="1596" type="line"/>
      <point x="1185" y="1500" type="line"/>
      <point x="-72" y="-116" type="line"/>
      <point x="-200" y="-20" type="line"/>
    </contour>
  </outline>
</glyph>
<glyph name="uni0340" format="2">
  <advance width="0"/>
  <unicode hex="0340"/>
  <anchor x="844" y="1480" name="_top_left"/>
  <anchor x="831" y="1224" name="_top_left_O2"/>
  <anchor x="697" y="1092" name="_circumflex_left"/>
  <anchor x="642" y="1040" name="_top_center"/>
  <outline>
    <contour>
      <point x="563" y="1224" type="line"/>
      <point x="337" y="1480" type="line"/>
      <point x="563" y="1480" type="line"/>
      <point x="741" y="1224" type="line"/>
    </contour>
  </outline>
</glyph>
<glyph name="uni0357" format="2">
  <advance width="0"/>
  <unicode hex="0357"/>
  <anchor x="642" y="1040" name="_top_center"/>
  <outline>
    <contour>
      <point x="642" y="1247" type="line" smooth="yes"/>
      <point x="688" y="1247"/>
      <point x="722" y="1281"/>
      <point x="722" y="1327" type="curve" smooth="yes"/>
      <point x="722" y="1373"/>
      <point x="688" y="1407"/>
      <point x="642" y="1407" type="curve" smooth="yes"/>
      <point x="642" y="1524" type="line" smooth="yes"/>
      <point x="752" y="1524"/>
      <point x="850" y="1437"/>
      <point x="850" y="1327" type="curve" smooth="yes"/>
      <point x="850" y="1217"/>
      <point x="752" y="1130"/>
      <point x="642" y="1130" type="curve" smooth="yes"/>
    </contour>
  </outline>
</glyph>
<glyph name="uni0376" format="2">
  <advance width="1398"/>
  <unicode hex="0376"/>
  <outline>
    <contour>
      <point x="1068" y="1480" type="line"/>
      <point x="330" y="320" type="line"/>
      <point x="330" y="1480" type="line"/>
      <point x="140" y="1480" type="line"/>
      <point x="140" y="0" type="line"/>
      <point x="330" y="0" type="line"/>
      <point x="1068" y="1160" type="line"/>
      <point x="1068" y="0" type="line"/>
      <point x="1258" y="0" type="line"/>
      <point x="1258" y="1480" type="line"/>
    </contour>
  </outline>
</glyph>
<glyph name="Theta" format="2">
  <advance width="1602"/>
  <unicode hex="0398"/>
  <anchor x="801" y="1380" name="top_center"/>
  <anchor x="801" y="0" name="bottom_center"/>
  <outline>
    <contour>
      <point x="479" y="824" type="line"/>
      <point x="801" y="824" type="line"/>
      <point x="1123" y="824" type="line"/>
      <point x="1123" y="656" type="line"/>
      <point x="801" y="656" type="line"/>
      <point x="479" y="656" type="line"/>
    </contour>
    <component base="O"/>
  </outline>
</glyph>
<glyph name="uni03A9" format="2">
  <advance width="1602"/>
  <unicode hex="03A9"/>
  <anchor x="801" y="-90" name="bottom_ypogegrammeni"/>
  <anchor x="252" y="1224" name="top_left_O2"/>
  <anchor x="801" y="1380" name="top_center"/>
  <anchor x="801" y="0" name="bottom_center"/>
  <outline>
    <contour>
      <point x="661" y="0" type="line"/>
      <point x="100" y="0" type="line"/>
      <point x="100" y="168" type="line"/>
      <point x="661" y="168" type="line"/>
    </contour>
    <contour>
      <point x="1502" y="0" type="line"/>
      <point x="941" y="0" type="line"/>
      <point x="941" y="168" type="line"/>
      <point x="1502" y="168" type="line"/>
    </contour>
    <contour>
      <point x="100" y="740" type="curve" smooth="yes"/>
      <point x="100" y="1179"/>
      <point x="406" y="1500"/>
      <point x="801" y="1500" type="curve" smooth="yes"/>
      <point x="801" y="1332" type="line" smooth="yes"/>
      <point x="511" y="1332"/>
      <point x="290" y="1090"/>
      <point x="290" y="740" type="curve" smooth="yes"/>
      <point x="290" y="449"/>
      <point x="443" y="233"/>
      <point x="661" y="168" type="curve"/>
      <point x="339" y="168" type="line"/>
      <point x="197" y="304"/>
      <point x="100" y="505"/>
    </contour>
    <contour>
      <point x="1502" y="740" type="curve" smooth="yes"/>
      <point x="1502" y="505"/>
      <point x="1405" y="304"/>
      <point x="1263" y="168" type="curve"/>
      <point x="941" y="168" type="line"/>
      <point x="1159" y="233"/>
      <point x="1312" y="449"/>
      <point x="1312" y="740" type="curve" smooth="yes"/>
      <point x="1312" y="1090"/>
      <point x="1091" y="1332"/>
      <point x="801" y="1332" type="curve" smooth="yes"/>
      <point x="801" y="1500" type="line" smooth="yes"/>
      <point x="1196" y="1500"/>
      <point x="1502" y="1179"/>
    </contour>
  </outline>
</glyph>
<glyph name="uni03BC" format="2">
  <advance width="1176"/>
  <unicode hex="03BC"/>
  <anchor x="578" y="1040" name="top_center"/>
  <anchor x="230" y="-360" name="bottom_center"/>
  <outline>
    <contour>
      <point x="1064" y="-20" type="curve"/>
      <point x="1106" y="138" type="line" smooth="yes"/>
      <point x="1046" y="138"/>
      <point x="1016" y="167"/>
      <point x="1016" y="227" type="curve" smooth="yes"/>
      <point x="1016" y="468" type="line"/>
      <point x="836" y="286" type="line"/>
      <point x="836" y="227" type="line" smooth="yes"/>
      <point x="836" y="72"/>
      <point x="920" y="-7"/>
    </contour>
    <contour>
      <point x="836" y="1040" type="line"/>
      <point x="836" y="468" type="line" smooth="yes"/>
      <point x="836" y="249"/>
      <point x="758" y="140"/>
      <point x="578" y="140" type="curve" smooth="yes"/>
      <point x="398" y="140"/>
      <point x="320" y="249"/>
      <point x="320" y="468" type="curve" smooth="yes"/>
      <point x="320" y="1040" type="line"/>
      <point x="140" y="1040" type="line"/>
      <point x="140" y="-440" type="line"/>
      <point x="320" y="-440" type="line"/>
      <point x="320" y="108" type="line"/>
      <point x="405" y="23"/>
      <point x="493" y="-20"/>
      <point x="618" y="-20" type="curve" smooth="yes"/>
      <point x="888" y="-20"/>
      <point x="1016" y="148"/>
      <point x="1016" y="468" type="curve"/>
      <point x="1016" y="1040" type="line"/>
    </contour>
  </outline>
</glyph>
<glyph name="uni03D0" format="2">
  <advance width="1164"/>
  <unicode hex="03D0"/>
  <outline>
    <contour>
      <point x="220" y="852" type="line"/>
      <point x="220" y="692" type="line"/>
      <point x="487" y="692" type="line"/>
      <point x="487" y="852" type="line"/>
    </contour>
    <contour>
      <point x="100" y="772" type="curve" smooth="yes"/>
      <point x="100" y="272"/>
      <point x="322" y="-20"/>
      <point x="602" y="-20" type="curve" smooth="yes"/>
      <point x="882" y="-20"/>
      <point x="1064" y="161"/>
      <point x="1064" y="416" type="curve" smooth="yes"/>
      <point x="1064" y="671"/>
      <point x="787" y="852"/>
      <point x="487" y="852" type="curve" smooth="yes"/>
      <point x="487" y="692" type="line" smooth="yes"/>
      <point x="687" y="692"/>
      <point x="884" y="572"/>
      <point x="884" y="416" type="curve" smooth="yes"/>
      <point x="884" y="260"/>
      <point x="782" y="140"/>
      <point x="602" y="140" type="curve" smooth="yes"/>
      <point x="422" y="140"/>
      <point x="280" y="372"/>
      <point x="280" y="772" type="curve" smooth="yes"/>
      <point x="280" y="1172"/>
      <point x="417" y="1340"/>
      <point x="557" y="1340" type="curve" smooth="yes"/>
      <point x="697" y="1340"/>
      <point x="794" y="1237"/>
      <point x="794" y="1082" type="curve" smooth="yes"/>
      <point x="794" y="947"/>
      <point x="637" y="852"/>
      <point x="487" y="852" type="curve" smooth="yes"/>
      <point x="487" y="729" type="line" smooth="yes"/>
      <point x="742" y="729"/>
      <point x="974" y="852"/>
      <point x="974" y="1082" type="curve" smooth="yes"/>
      <point x="974" y="1312"/>
      <point x="787" y="1500"/>
      <point x="557" y="1500" type="curve" smooth="yes"/>
      <point x="327" y="1500"/>
      <point x="100" y="1322"/>
    </contour>
  </outline>
</glyph>
<glyph name="uni03DE" format="2">
  <advance width="1419"/>
  <unicode hex="03DE"/>
  <outline>
    <contour>
      <point x="1004" y="490" type="curve" smooth="yes"/>
      <point x="1004" y="240"/>
      <point x="1044" y="140"/>
      <point x="1184" y="140" type="curve" smooth="yes"/>
      <point x="1227" y="140"/>
      <point x="1278" y="156"/>
      <point x="1304" y="175" type="curve"/>
      <point x="1349" y="12" type="line"/>
      <point x="1304" y="-6"/>
      <point x="1240" y="-20"/>
      <point x="1184" y="-20" type="curve" smooth="yes"/>
      <point x="851" y="-20"/>
      <point x="834" y="240"/>
      <point x="834" y="490" type="curve" smooth="yes"/>
      <point x="834" y="740"/>
      <point x="1034" y="1040"/>
      <point x="1034" y="1040" type="curve"/>
      <point x="1214" y="1040" type="line"/>
      <point x="1214" y="1040"/>
      <point x="1004" y="790"/>
    </contour>
    <contour>
      <point x="415" y="970" type="curve" smooth="yes"/>
      <point x="415" y="1220"/>
      <point x="375" y="1320"/>
      <point x="235" y="1320" type="curve" smooth="yes"/>
      <point x="192" y="1320"/>
      <point x="141" y="1304"/>
      <point x="115" y="1285" type="curve"/>
      <point x="70" y="1448" type="line"/>
      <point x="115" y="1466"/>
      <point x="179" y="1480"/>
      <point x="235" y="1480" type="curve" smooth="yes"/>
      <point x="568" y="1480"/>
      <point x="585" y="1220"/>
      <point x="585" y="970" type="curve" smooth="yes"/>
      <point x="585" y="720"/>
      <point x="385" y="420"/>
      <point x="385" y="420" type="curve"/>
      <point x="205" y="420" type="line"/>
      <point x="205" y="420"/>
      <point x="415" y="670"/>
    </contour>
    <contour>
      <point x="1119" y="1160" type="line"/>
      <point x="1214" y="1040" type="line"/>
      <point x="300" y="300" type="line"/>
      <point x="205" y="420" type="line"/>
    </contour>
  </outline>
</glyph>
<glyph name="uni03EB" format="2">
  <advance width="968"/>
  <unicode hex="03EB"/>
  <outline>
    <contour>
      <point x="720" y="850" type="line"/>
      <point x="736" y="882"/>
      <point x="760" y="900"/>
      <point x="804" y="900" type="curve" smooth="yes"/>
      <point x="820" y="900"/>
      <point x="844" y="891"/>
      <point x="856" y="884" type="curve"/>
      <point x="898" y="1036" type="line"/>
      <point x="876" y="1049"/>
      <point x="836" y="1060"/>
      <point x="804" y="1060" type="curve" smooth="yes"/>
      <point x="674" y="1060"/>
      <point x="616" y="1018"/>
      <point x="572" y="915" type="curve"/>
      <point x="484" y="723" type="line"/>
      <point x="396" y="915" type="line"/>
      <point x="352" y="1018"/>
      <point x="294" y="1060"/>
      <point x="164" y="1060" type="curve" smooth="yes"/>
      <point x="132" y="1060"/>
      <point x="92" y="1049"/>
      <point x="70" y="1036" type="curve"/>
      <point x="112" y="884" type="line"/>
      <point x="124" y="891"/>
      <point x="148" y="900"/>
      <point x="164" y="900" type="curve" smooth="yes"/>
      <point x="208" y="900"/>
      <point x="232" y="882"/>
      <point x="248" y="850" type="curve"/>
      <point x="390" y="570" type="line"/>
      <point x="168" y="144" type="line"/>
      <point x="168" y="0" type="line"/>
      <point x="800" y="0" type="line"/>
      <point x="800" y="144" type="line"/>
      <point x="579" y="570" type="line"/>
    </contour>
    <contour>
      <point x="484" y="448" type="line"/>
      <point x="618" y="160" type="line"/>
      <point x="350" y="160" type="line"/>
    </contour>
  </outline>
</glyph>
<glyph name="uni03F9" format="2">
  <advance width="1514"/>
  <unicode hex="03F9"/>
  <outline>
    <contour>
      <point x="1253" y="1028" type="line"/>
      <point x="1170" y="1215"/>
      <point x="1002" y="1332"/>
      <point x="801" y="1332" type="curve" smooth="yes"/>
      <point x="511" y="1332"/>
      <point x="290" y="1090"/>
      <point x="290" y="740" type="curve" smooth="yes"/>
      <point x="290" y="390"/>
      <point x="511" y="148"/>
      <point x="801" y="148" type="curve" smooth="yes"/>
      <point x="1002" y="148"/>
      <point x="1170" y="265"/>
      <point x="1253" y="452" type="curve"/>
      <point x="1414" y="360" type="line"/>
      <point x="1296" y="128"/>
      <point x="1069" y="-20"/>
      <point x="801" y="-20" type="curve" smooth="yes"/>
      <point x="406" y="-20"/>
      <point x="100" y="301"/>
      <point x="100" y="740" type="curve" smooth="yes"/>
      <point x="100" y="1179"/>
      <point x="406" y="1500"/>
      <point x="801" y="1500" type="curve" smooth="yes"/>
      <point x="1069" y="1500"/>
      <point x="1296" y="1352"/>
      <point x="1414" y="1120" type="curve"/>
    </contour>
  </outline>
</glyph>
<glyph name="uni03FA" format="2">
  <advance width="1588"/>
  <unicode hex="03FA"/>
  <outline>
    <contour>
      <point x="789" y="940" type="line"/>
      <point x="330" y="1480" type="line"/>
      <point x="237" y="1298" type="line"/>
      <point x="715" y="740" type="line"/>
      <point x="863" y="740" type="line"/>
      <point x="1343" y="1298" type="line"/>
      <point x="1258" y="1480" type="line"/>
    </contour>
    <contour>
      <point x="1448" y="1480" type="line"/>
      <point x="1258" y="1480" type="line"/>
      <point x="1258" y="0" type="line"/>
      <point x="1448" y="0" type="line"/>
    </contour>
    <contour>
      <point x="140" y="1480" type="line"/>
      <point x="140" y="0" type="line"/>
      <point x="330" y="0" type="line"/>
      <point x="330" y="1480" type="line"/>
    </contour>
  </outline>
</glyph>
<glyph name="uni040A" format="2">
  <advance width="2211"/>
  <unicode hex="040A"/>
  <outline>
    <contour>
      <point x="1218" y="168" type="line"/>
      <point x="1635" y="168" type="line"/>
      <point x="1800" y="168"/>
      <point x="1921" y="247"/>
      <point x="1921" y="412" type="curve" smooth="yes"/>
      <point x="1921" y="577"/>
      <point x="1800" y="656"/>
      <point x="1635" y="656" type="curve"/>
      <point x="1218" y="656" type="line"/>
      <point x="1128" y="824" type="line"/>
      <point x="1275" y="824" type="line"/>
      <point x="1635" y="824" type="line"/>
      <point x="1890" y="824"/>
      <point x="2111" y="667"/>
      <point x="2111" y="412" type="curve" smooth="yes"/>
      <point x="2111" y="157"/>
      <point x="1890" y="0"/>
      <point x="1635" y="0" type="curve"/>
      <point x="1258" y="0" type="line"/>
    </contour>
    <contour>
      <point x="140" y="1480" type="line"/>
      <point x="330" y="1480" type="line"/>
      <point x="330" y="824" type="line"/>
      <point x="1068" y="824" type="line"/>
      <point x="1068" y="1480" type="line"/>
      <point x="1258" y="1480" type="line"/>
      <point x="1258" y="0" type="line"/>
      <point x="1068" y="0" type="line"/>
      <point x="1068" y="656" type="line"/>
      <point x="330" y="656" type="line"/>
      <point x="330" y="0" type="line"/>
      <point x="140" y="0" type="line"/>
    </contour>
  </outline>
</glyph>
<glyph name="uni042A" format="2">
  <advance width="1508"/>
  <unicode hex="042A"/>
  <anchor x="460" y="1380" name="top_center"/>
  <anchor x="705" y="0" name="bottom_center"/>
  <outline>
    <contour>
      <point x="5" y="1312" type="line"/>
      <point x="5" y="1480" type="line"/>
      <point x="365" y="1480" type="line"/>
      <point x="365" y="1312" type="line"/>
    </contour>
    <contour>
      <point x="555" y="168" type="line"/>
      <point x="932" y="168" type="line"/>
      <point x="1097" y="168"/>
      <point x="1218" y="289"/>
      <point x="1218" y="454" type="curve" smooth="yes"/>
      <point x="1218" y="619"/>
      <point x="1097" y="740"/>
      <point x="932" y="740" type="curve"/>
      <point x="555" y="740" type="line"/>
    </contour>
    <contour>
      <point x="555" y="908" type="line"/>
      <point x="932" y="908" type="line"/>
      <point x="1187" y="908"/>
      <point x="1408" y="709"/>
      <point x="1408" y="454" type="curve" smooth="yes"/>
      <point x="1408" y="199"/>
      <point x="1187" y="0"/>
      <point x="932" y="0" type="curve"/>
      <point x="365" y="0" type="line"/>
      <point x="365" y="1480" type="line"/>
      <point x="555" y="1480" type="line"/>
    </contour>
  </outline>
</glyph>
<glyph name="uni0431" format="2">
  <advance width="1196"/>
  <unicode hex="0431"/>
  <anchor x="598" y="0" name="bottom_center"/>
  <anchor x="598" y="1400" name="top_center"/>
  <outline>
    <contour>
      <point x="280" y="740" type="curve" smooth="yes"/>
      <point x="280" y="520" type="line"/>
      <point x="100" y="520" type="line"/>
      <point x="100" y="740" type="line" smooth="yes"/>
      <point x="100" y="1140"/>
      <point x="318" y="1432"/>
      <point x="598" y="1432" type="curve"/>
      <point x="748" y="1432"/>
      <point x="676" y="1432"/>
      <point x="776" y="1432" type="curve" smooth="yes"/>
      <point x="894" y="1432"/>
      <point x="909" y="1441"/>
      <point x="990" y="1500" type="curve"/>
      <point x="1030" y="1330" type="line"/>
      <point x="956" y="1285"/>
      <point x="917" y="1263"/>
      <point x="777" y="1263" type="curve" smooth="yes"/>
      <point x="627" y="1263"/>
      <point x="698" y="1263"/>
      <point x="598" y="1264" type="curve"/>
      <point x="398" y="1264"/>
      <point x="280" y="1015"/>
    </contour>
    <contour>
      <point x="598" y="900" type="curve" smooth="yes"/>
      <point x="407" y="900"/>
      <point x="280" y="740"/>
      <point x="280" y="520" type="curve" smooth="yes"/>
      <point x="280" y="300"/>
      <point x="407" y="140"/>
      <point x="598" y="140" type="curve" smooth="yes"/>
      <point x="789" y="140"/>
      <point x="916" y="300"/>
      <point x="916" y="520" type="curve" smooth="yes"/>
      <point x="916" y="740"/>
      <point x="789" y="900"/>
    </contour>
    <contour>
      <point x="598" y="1060" type="curve" smooth="yes"/>
      <point x="879" y="1060"/>
      <point x="1096" y="832"/>
      <point x="1096" y="520" type="curve" smooth="yes"/>
      <point x="1096" y="208"/>
      <point x="879" y="-20"/>
      <point x="598" y="-20" type="curve" smooth="yes"/>
      <point x="317" y="-20"/>
      <point x="100" y="208"/>
      <point x="100" y="520" type="curve" smooth="yes"/>
      <point x="100" y="832"/>
      <point x="317" y="1060"/>
    </contour>
  </outline>
</glyph>
<glyph name="uni0434" format="2">
  <advance width="1270"/>
  <unicode hex="0434"/>
  <anchor x="684" y="0" name="bottom_center"/>
  <anchor x="684" y="1040" name="top_center"/>
  <outline>
    <contour>
      <point x="930" y="159" type="line"/>
      <point x="1200" y="159" type="line"/>
      <point x="1200" y="-300" type="line"/>
      <point x="1020" y="-300" type="line"/>
      <point x="1020" y="0" type="line"/>
      <point x="930" y="0" type="line"/>
    </contour>
    <contour>
      <point x="70" y="-300" type="line"/>
      <point x="70" y="160" type="line"/>
      <point x="250" y="160" type="line"/>
      <point x="250" y="-300" type="line"/>
    </contour>
    <contour>
      <point x="230" y="160" type="line"/>
      <point x="890" y="160" type="line"/>
      <point x="890" y="0" type="line"/>
      <point x="230" y="0" type="line"/>
    </contour>
    <contour>
      <point x="1020" y="1040" type="line"/>
      <point x="1020" y="0" type="line"/>
      <point x="840" y="0" type="line"/>
      <point x="840" y="880" type="line"/>
      <point x="517" y="880" type="line"/>
      <point x="467" y="377" type="line" smooth="yes"/>
      <point x="438" y="86"/>
      <point x="271" y="0"/>
      <point x="130" y="0" type="curve" smooth="yes"/>
      <point x="130" y="160" type="line"/>
      <point x="190" y="160"/>
      <point x="270" y="187"/>
      <point x="287" y="377" type="curve" smooth="yes"/>
      <point x="352" y="1040" type="line"/>
    </contour>
  </outline>
</glyph>
<glyph name="uni043B" format="2">
  <advance width="1035"/>
  <unicode hex="043B"/>
  <anchor x="561" y="1040" name="top_center"/>
  <anchor x="561" y="0" name="bottom_center"/>
  <outline>
    <contour>
      <point x="895" y="1040" type="line"/>
      <point x="895" y="0" type="line"/>
      <point x="715" y="0" type="line"/>
      <point x="715" y="880" type="line"/>
      <point x="392" y="880" type="line"/>
      <point x="342" y="377" type="line" smooth="yes"/>
      <point x="319" y="85"/>
      <point x="146" y="-20"/>
      <point x="5" y="-20" type="curve" smooth="yes"/>
      <point x="5" y="139" type="line"/>
      <point x="65" y="139"/>
      <point x="145" y="187"/>
      <point x="162" y="377" type="curve" smooth="yes"/>
      <point x="227" y="1040" type="line"/>
    </contour>
  </outline>
</glyph>
<glyph name="uni044B" format="2">
  <advance width="1466"/>
  <unicode hex="044B"/>
  <anchor x="733" y="1040" name="top_center"/>
  <anchor x="733" y="0" name="bottom_center"/>
  <outline>
    <contour>
      <point x="1326" y="653" type="line"/>
      <point x="1326" y="1040" type="line"/>
      <point x="1146" y="1040" type="line"/>
      <point x="1146" y="0" type="line"/>
      <point x="1326" y="0" type="line"/>
    </contour>
    <contour>
      <point x="320" y="159" type="line"/>
      <point x="584" y="159" type="line"/>
      <point x="700" y="159"/>
      <point x="786" y="230"/>
      <point x="786" y="326" type="curve" smooth="yes"/>
      <point x="786" y="422"/>
      <point x="700" y="492"/>
      <point x="584" y="492" type="curve"/>
      <point x="320" y="492" type="line"/>
    </contour>
    <contour>
      <point x="140" y="1040" type="line"/>
      <point x="320" y="1040" type="line"/>
      <point x="320" y="653" type="line"/>
      <point x="584" y="653" type="line"/>
      <point x="788" y="653"/>
      <point x="966" y="509"/>
      <point x="966" y="326" type="curve" smooth="yes"/>
      <point x="966" y="143"/>
      <point x="788" y="0"/>
      <point x="584" y="0" type="curve"/>
      <point x="140" y="0" type="line"/>
    </contour>
  </outline>
</glyph>
<glyph name="uni044C" format="2">
  <advance width="1066"/>
  <unicode hex="044C"/>
  <anchor x="543" y="0" name="bottom_center"/>
  <anchor x="240" y="1040" name="top_center"/>
  <outline>
    <contour>
      <point x="320" y="159" type="line"/>
      <point x="584" y="159" type="line"/>
      <point x="700" y="159"/>
      <point x="786" y="230"/>
      <point x="786" y="326" type="curve" smooth="yes"/>
      <point x="786" y="422"/>
      <point x="700" y="492"/>
      <point x="584" y="492" type="curve"/>
      <point x="320" y="492" type="line"/>
    </contour>
    <contour>
      <point x="140" y="1040" type="line"/>
      <point x="320" y="1040" type="line"/>
      <point x="320" y="653" type="line"/>
      <point x="584" y="653" type="line"/>
      <point x="788" y="653"/>
      <point x="966" y="509"/>
      <point x="966" y="326" type="curve" smooth="yes"/>
      <point x="966" y="143"/>
      <point x="788" y="0"/>
      <point x="584" y="0" type="curve"/>
      <point x="140" y="0" type="line"/>
    </contour>
  </outline>
</glyph>
<glyph name="uni045A" format="2">
  <advance width="1749"/>
  <unicode hex="045A"/>
  <outline>
    <contour>
      <point x="1019" y="159" type="line"/>
      <point x="1283" y="159" type="line"/>
      <point x="1399" y="159"/>
      <point x="1485" y="230"/>
      <point x="1485" y="326" type="curve" smooth="yes"/>
      <point x="1485" y="422"/>
      <point x="1399" y="492"/>
      <point x="1283" y="492" type="curve"/>
      <point x="1019" y="492" type="line"/>
      <point x="1019" y="653" type="line"/>
      <point x="1283" y="653" type="line"/>
      <point x="1487" y="653"/>
      <point x="1665" y="509"/>
      <point x="1665" y="326" type="curve" smooth="yes"/>
      <point x="1665" y="143"/>
      <point x="1487" y="0"/>
      <point x="1283" y="0" type="curve"/>
      <point x="1019" y="0" type="line"/>
    </contour>
    <contour>
      <point x="140" y="1040" type="line"/>
      <point x="320" y="1040" type="line"/>
      <point x="320" y="600" type="line"/>
      <point x="839" y="600" type="line"/>
      <point x="839" y="1040" type="line"/>
      <point x="1019" y="1040" type="line"/>
      <point x="1019" y="0" type="line"/>
      <point x="839" y="0" type="line"/>
      <point x="839" y="440" type="line"/>
      <point x="320" y="440" type="line"/>
      <point x="320" y="0" type="line"/>
      <point x="140" y="0" type="line"/>
    </contour>
  </outline>
</glyph>
<glyph name="uni0463" format="2">
  <advance width="1136"/>
  <unicode hex="0463"/>
  <outline>
    <contour>
      <point x="670" y="1160" type="line"/>
      <point x="0" y="1160" type="line"/>
      <point x="0" y="1206"/>
      <point x="0" y="1274"/>
      <point x="0" y="1320" type="curve"/>
      <point x="670" y="1320" type="line"/>
    </contour>
    <contour>
      <point x="390" y="159" type="line"/>
      <point x="654" y="159" type="line"/>
      <point x="770" y="159"/>
      <point x="856" y="230"/>
      <point x="856" y="326" type="curve" smooth="yes"/>
      <point x="856" y="422"/>
      <point x="770" y="492"/>
      <point x="654" y="492" type="curve"/>
      <point x="390" y="492" type="line"/>
    </contour>
    <contour>
      <point x="210" y="1480" type="line"/>
      <point x="390" y="1480" type="line"/>
      <point x="390" y="653" type="line"/>
      <point x="654" y="653" type="line"/>
      <point x="858" y="653"/>
      <point x="1036" y="509"/>
      <point x="1036" y="326" type="curve" smooth="yes"/>
      <point x="1036" y="143"/>
      <point x="858" y="0"/>
      <point x="654" y="0" type="curve"/>
      <point x="210" y="0" type="line"/>
    </contour>
  </outline>
</glyph>
<glyph name="uni0469" format="2">
  <advance width="1568"/>
  <unicode hex="0469"/>
  <outline>
    <contour>
      <point x="1072" y="530" type="line"/>
      <point x="1072" y="0" type="line"/>
      <point x="892" y="0" type="line"/>
      <point x="892" y="530" type="line"/>
    </contour>
    <contour>
      <point x="742" y="600" type="line"/>
      <point x="1195" y="600" type="line"/>
      <point x="1195" y="440" type="line"/>
      <point x="742" y="440" type="line"/>
    </contour>
    <contour>
      <point x="982" y="816" type="line"/>
      <point x="656" y="0" type="line"/>
      <point x="466" y="0" type="line"/>
      <point x="892" y="1040" type="line"/>
      <point x="1072" y="1040" type="line"/>
      <point x="1498" y="0" type="line"/>
      <point x="1308" y="0" type="line"/>
    </contour>
    <contour>
      <point x="140" y="1040" type="line"/>
      <point x="306" y="1040" type="line"/>
      <point x="306" y="0" type="line"/>
      <point x="140" y="0" type="line"/>
    </contour>
    <contour>
      <point x="306" y="600" type="line"/>
      <point x="722" y="600" type="line"/>
      <point x="722" y="440" type="line"/>
      <point x="306" y="440" type="line"/>
    </contour>
  </outline>
</glyph>
<glyph name="uni047C" format="2">
  <advance width="1722"/>
  <unicode hex="047C"/>
  <outline>
    <contour>
      <point x="1268" y="1544" type="line" smooth="yes"/>
      <point x="1028" y="1544"/>
      <point x="1032" y="1680"/>
      <point x="862" y="1680" type="curve" smooth="yes"/>
      <point x="766" y="1680"/>
      <point x="712" y="1617"/>
      <point x="707" y="1557" type="curve"/>
      <point x="568" y="1594" type="line"/>
      <point x="584" y="1730"/>
      <point x="754" y="1820"/>
      <point x="862" y="1820" type="curve" smooth="yes"/>
      <point x="1102" y="1820"/>
      <point x="1098" y="1680"/>
      <point x="1268" y="1680" type="curve" smooth="yes"/>
    </contour>
    <contour>
      <point x="774" y="1302" type="line"/>
      <point x="820" y="1312"/>
      <point x="891" y="1351"/>
      <point x="891" y="1447" type="curve" smooth="yes"/>
      <point x="891" y="1469"/>
      <point x="863" y="1517"/>
      <point x="863" y="1517" type="curve"/>
      <point x="862" y="1620" type="line"/>
      <point x="918" y="1620"/>
      <point x="992" y="1583"/>
      <point x="992" y="1447" type="curve" smooth="yes"/>
      <point x="992" y="1303"/>
      <point x="860" y="1226"/>
      <point x="798" y="1210" type="curve"/>
    </contour>
    <contour>
      <point x="762" y="1517" type="curve" smooth="yes"/>
      <point x="762" y="1575"/>
      <point x="804" y="1620"/>
      <point x="862" y="1620" type="curve" smooth="yes"/>
      <point x="918" y="1620"/>
      <point x="963" y="1575"/>
      <point x="963" y="1517" type="curve" smooth="yes"/>
      <point x="963" y="1459"/>
      <point x="920" y="1415"/>
      <point x="862" y="1415" type="curve" smooth="yes"/>
      <point x="804" y="1415"/>
      <point x="762" y="1459"/>
    </contour>
    <contour>
      <point x="547" y="1500" type="line"/>
      <point x="317" y="1500"/>
      <point x="140" y="1362"/>
      <point x="140" y="1002" type="curve" smooth="yes"/>
      <point x="140" y="468" type="line" smooth="yes"/>
      <point x="140" y="108"/>
      <point x="318" y="-30"/>
      <point x="548" y="-30" type="curve" smooth="yes"/>
      <point x="675" y="-30"/>
      <point x="787" y="12"/>
      <point x="861" y="111" type="curve"/>
      <point x="935" y="12"/>
      <point x="1047" y="-30"/>
      <point x="1174" y="-30" type="curve" smooth="yes"/>
      <point x="1404" y="-30"/>
      <point x="1582" y="108"/>
      <point x="1582" y="468" type="curve" smooth="yes"/>
      <point x="1582" y="1002" type="line" smooth="yes"/>
      <point x="1582" y="1362"/>
      <point x="1405" y="1500"/>
      <point x="1175" y="1500" type="curve"/>
      <point x="1175" y="1322" type="line"/>
      <point x="1335" y="1322"/>
      <point x="1392" y="1221"/>
      <point x="1392" y="1002" type="curve" smooth="yes"/>
      <point x="1392" y="468" type="line" smooth="yes"/>
      <point x="1392" y="249"/>
      <point x="1334" y="148"/>
      <point x="1174" y="148" type="curve" smooth="yes"/>
      <point x="1014" y="148"/>
      <point x="956" y="249"/>
      <point x="956" y="468" type="curve" smooth="yes"/>
      <point x="956" y="1002" type="line"/>
      <point x="766" y="1002" type="line"/>
      <point x="766" y="468" type="line" smooth="yes"/>
      <point x="766" y="249"/>
      <point x="708" y="148"/>
      <point x="548" y="148" type="curve" smooth="yes"/>
      <point x="388" y="148"/>
      <point x="330" y="249"/>
      <point x="330" y="468" type="curve" smooth="yes"/>
      <point x="330" y="1002" type="line" smooth="yes"/>
      <point x="330" y="1221"/>
      <point x="387" y="1322"/>
      <point x="547" y="1322" type="curve"/>
    </contour>
  </outline>
</glyph>
<glyph name="uni0483" format="2">
  <advance width="0"/>
  <unicode hex="0483"/>
  <outline>
    <contour>
      <point x="433" y="1145" type="curve" smooth="yes"/>
      <point x="380" y="1145"/>
      <point x="337" y="1188"/>
      <point x="337" y="1241" type="curve" smooth="yes"/>
      <point x="337" y="1294"/>
      <point x="380" y="1337"/>
      <point x="433" y="1337" type="curve" smooth="yes"/>
      <point x="486" y="1337"/>
      <point x="529" y="1294"/>
      <point x="529" y="1241" type="curve" smooth="yes"/>
      <point x="529" y="1188"/>
      <point x="486" y="1145"/>
    </contour>
    <contour>
      <point x="851" y="1433" type="curve" smooth="yes"/>
      <point x="904" y="1433"/>
      <point x="947" y="1390"/>
      <point x="947" y="1337" type="curve" smooth="yes"/>
      <point x="947" y="1284"/>
      <point x="904" y="1241"/>
      <point x="851" y="1241" type="curve" smooth="yes"/>
      <point x="798" y="1241"/>
      <point x="755" y="1284"/>
      <point x="755" y="1337" type="curve" smooth="yes"/>
      <point x="755" y="1390"/>
      <point x="798" y="1433"/>
    </contour>
    <contour>
      <point x="433" y="1241" type="line"/>
      <point x="433" y="1337" type="line"/>
      <point x="851" y="1337" type="line"/>
      <point x="851" y="1241" type="line"/>
    </contour>
  </outline>
</glyph>
<glyph name="uni0484" format="2">
  <advance width="0"/>
  <unicode hex="0484"/>
  <outline>
    <contour>
      <point x="371" y="1181" type="line" smooth="yes"/>
      <point x="551" y="1181"/>
      <point x="647" y="1316"/>
      <point x="727" y="1316" type="curve" smooth="yes"/>
      <point x="774" y="1316"/>
      <point x="807" y="1253"/>
      <point x="812" y="1193" type="curve"/>
      <point x="951" y="1230" type="line"/>
      <point x="935" y="1366"/>
      <point x="834" y="1456"/>
      <point x="727" y="1456" type="curve" smooth="yes"/>
      <point x="595" y="1456"/>
      <point x="531" y="1319"/>
      <point x="371" y="1319" type="curve" smooth="yes"/>
    </contour>
  </outline>
</glyph>
<glyph name="uni0488" format="2">
  <advance width="0"/>
  <unicode hex="0488"/>
  <outline>
    <contour>
      <point x="1169" y="291" type="curve" smooth="yes"/>
      <point x="1319" y="291"/>
      <point x="1449" y="165"/>
      <point x="1449" y="25" type="curve"/>
      <point x="1289" y="25" type="line"/>
      <point x="1289" y="91"/>
      <point x="1235" y="151"/>
      <point x="1169" y="151" type="curve" smooth="yes"/>
      <point x="1103" y="151"/>
      <point x="1049" y="91"/>
      <point x="1049" y="25" type="curve"/>
      <point x="889" y="25" type="line"/>
      <point x="889" y="165"/>
      <point x="1019" y="291"/>
    </contour>
    <contour>
      <point x="1169" y="1161" type="curve" smooth="yes"/>
      <point x="1319" y="1161"/>
      <point x="1449" y="1035"/>
      <point x="1449" y="895" type="curve"/>
      <point x="1289" y="895" type="line"/>
      <point x="1289" y="961"/>
      <point x="1235" y="1021"/>
      <point x="1169" y="1021" type="curve" smooth="yes"/>
      <point x="1103" y="1021"/>
      <point x="1049" y="961"/>
      <point x="1049" y="895" type="curve"/>
      <point x="889" y="895" type="line"/>
      <point x="889" y="1035"/>
      <point x="1019" y="1161"/>
    </contour>
    <contour>
      <point x="1344" y="740" type="curve" smooth="yes"/>
      <point x="1494" y="740"/>
      <point x="1624" y="614"/>
      <point x="1624" y="474" type="curve"/>
      <point x="1464" y="474" type="line"/>
      <point x="1464" y="540"/>
      <point x="1410" y="600"/>
      <point x="1344" y="600" type="curve" smooth="yes"/>
      <point x="1278" y="600"/>
      <point x="1224" y="540"/>
      <point x="1224" y="474" type="curve"/>
      <point x="1064" y="474" type="line"/>
      <point x="1064" y="614"/>
      <point x="1194" y="740"/>
    </contour>
    <contour>
      <point x="642" y="-20" type="curve" smooth="yes"/>
      <point x="492" y="-20"/>
      <point x="362" y="-146"/>
      <point x="362" y="-286" type="curve"/>
      <point x="522" y="-286" type="line"/>
      <point x="522" y="-220"/>
      <point x="576" y="-160"/>
      <point x="642" y="-160" type="curve" smooth="yes"/>
      <point x="708" y="-160"/>
      <point x="762" y="-220"/>
      <point x="762" y="-286" type="curve"/>
      <point x="922" y="-286" type="line"/>
      <point x="922" y="-146"/>
      <point x="792" y="-20"/>
    </contour>
    <contour>
      <point x="116" y="291" type="curve" smooth="yes"/>
      <point x="-34" y="291"/>
      <point x="-164" y="165"/>
      <point x="-164" y="25" type="curve"/>
      <point x="-4" y="25" type="line"/>
      <point x="-4" y="91"/>
      <point x="50" y="151"/>
      <point x="116" y="151" type="curve" smooth="yes"/>
      <point x="182" y="151"/>
      <point x="236" y="91"/>
      <point x="236" y="25" type="curve"/>
      <point x="396" y="25" type="line"/>
      <point x="396" y="165"/>
      <point x="266" y="291"/>
    </contour>
    <contour>
      <point x="116" y="1161" type="curve" smooth="yes"/>
      <point x="-34" y="1161"/>
      <point x="-164" y="1035"/>
      <point x="-164" y="895" type="curve"/>
      <point x="-4" y="895" type="line"/>
      <point x="-4" y="961"/>
      <point x="50" y="1021"/>
      <point x="116" y="1021" type="curve" smooth="yes"/>
      <point x="182" y="1021"/>
      <point x="236" y="961"/>
      <point x="236" y="895" type="curve"/>
      <point x="396" y="895" type="line"/>
      <point x="396" y="1035"/>
      <point x="266" y="1161"/>
    </contour>
    <contour>
      <point x="-59" y="740" type="curve" smooth="yes"/>
      <point x="-209" y="740"/>
      <point x="-339" y="614"/>
      <point x="-339" y="474" type="curve"/>
      <point x="-179" y="474" type="line"/>
      <point x="-179" y="540"/>
      <point x="-125" y="600"/>
      <point x="-59" y="600" type="curve" smooth="yes"/>
      <point x="7" y="600"/>
      <point x="61" y="540"/>
      <point x="61" y="474" type="curve"/>
      <point x="221" y="474" type="line"/>
      <point x="221" y="614"/>
      <point x="91" y="740"/>
    </contour>
    <contour>
      <point x="642" y="1500" type="curve" smooth="yes"/>
      <point x="492" y="1500"/>
      <point x="362" y="1374"/>
      <point x="362" y="1234" type="curve"/>
      <point x="522" y="1234" type="line"/>
      <point x="522" y="1300"/>
      <point x="576" y="1360"/>
      <point x="642" y="1360" type="curve" smooth="yes"/>
      <point x="708" y="1360"/>
      <point x="762" y="1300"/>
      <point x="762" y="1234" type="curve"/>
      <point x="922" y="1234" type="line"/>
      <point x="922" y="1374"/>
      <point x="792" y="1500"/>
    </contour>
  </outline>
</glyph>
<glyph name="uni048C" format="2">
  <advance width="1383"/>
  <unicode hex="048C"/>
  <outline>
    <contour>
      <point x="670" y="1156" type="line"/>
      <point x="0" y="1156" type="line"/>
      <point x="0" y="1202"/>
      <point x="0" y="1278"/>
      <point x="0" y="1324" type="curve"/>
      <point x="670" y="1324" type="line"/>
    </contour>
    <contour>
      <point x="430" y="168" type="line"/>
      <point x="807" y="168" type="line"/>
      <point x="972" y="168"/>
      <point x="1093" y="289"/>
      <point x="1093" y="454" type="curve" smooth="yes"/>
      <point x="1093" y="619"/>
      <point x="972" y="740"/>
      <point x="807" y="740" type="curve"/>
      <point x="430" y="740" type="line"/>
    </contour>
    <contour>
      <point x="240" y="1480" type="line"/>
      <point x="430" y="1480" type="line"/>
      <point x="430" y="908" type="line"/>
      <point x="807" y="908" type="line"/>
      <point x="1062" y="908"/>
      <point x="1283" y="709"/>
      <point x="1283" y="454" type="curve" smooth="yes"/>
      <point x="1283" y="199"/>
      <point x="1062" y="0"/>
      <point x="807" y="0" type="curve"/>
      <point x="240" y="0" type="line"/>
    </contour>
  </outline>
</glyph>
<glyph name="uni0494" format="2">
  <advance width="1427"/>
  <unicode hex="0494"/>
  <outline>
    <contour>
      <point x="706" y="892" type="curve" smooth="yes"/>
      <point x="506" y="892"/>
      <point x="358" y="777"/>
      <point x="285" y="591" type="curve"/>
      <point x="234" y="852" type="line"/>
      <point x="350" y="983"/>
      <point x="512" y="1060"/>
      <point x="706" y="1060" type="curve" smooth="yes"/>
      <point x="1101" y="1060"/>
      <point x="1327" y="739"/>
      <point x="1327" y="300" type="curve" smooth="yes"/>
      <point x="1327" y="-139"/>
      <point x="1101" y="-460"/>
      <point x="706" y="-460" type="curve" smooth="yes"/>
      <point x="706" y="-292" type="line" smooth="yes"/>
      <point x="996" y="-292"/>
      <point x="1137" y="-50"/>
      <point x="1137" y="300" type="curve" smooth="yes"/>
      <point x="1137" y="650"/>
      <point x="996" y="892"/>
    </contour>
    <contour>
      <point x="330" y="656" type="line"/>
      <point x="330" y="168" type="line"/>
      <point x="330" y="0" type="line"/>
      <point x="140" y="0" type="line"/>
      <point x="140" y="1480" type="line"/>
      <point x="1068" y="1480" type="line"/>
      <point x="1068" y="1312" type="line"/>
      <point x="330" y="1312" type="line"/>
    </contour>
  </outline>
</glyph>
<glyph name="uni0495" format="2">
  <advance width="1146"/>
  <unicode hex="0495"/>
  <outline>
    <contour>
      <point x="548" y="460" type="curve" smooth="yes"/>
      <point x="421" y="460"/>
      <point x="323" y="391"/>
      <point x="271" y="278" type="curve"/>
      <point x="197" y="470" type="line"/>
      <point x="286" y="564"/>
      <point x="409" y="620"/>
      <point x="548" y="620" type="curve" smooth="yes"/>
      <point x="829" y="620"/>
      <point x="1046" y="392"/>
      <point x="1046" y="80" type="curve" smooth="yes"/>
      <point x="1046" y="-232"/>
      <point x="829" y="-460"/>
      <point x="548" y="-460" type="curve" smooth="yes"/>
      <point x="548" y="-300" type="line" smooth="yes"/>
      <point x="739" y="-300"/>
      <point x="866" y="-140"/>
      <point x="866" y="80" type="curve" smooth="yes"/>
      <point x="866" y="300"/>
      <point x="739" y="460"/>
    </contour>
    <contour>
      <point x="140" y="0" type="line"/>
      <point x="140" y="1040" type="line"/>
      <point x="839" y="1040" type="line"/>
      <point x="839" y="880" type="line"/>
      <point x="320" y="880" type="line"/>
      <point x="320" y="0" type="line"/>
    </contour>
  </outline>
</glyph>
<glyph name="uni0496" format="2">
  <advance width="1974"/>
  <unicode hex="0496"/>
  <outline>
    <contour>
      <point x="1749" y="168" type="line"/>
      <point x="1749" y="-300" type="line"/>
      <point x="1939" y="-300" type="line"/>
      <point x="1939" y="168" type="line"/>
    </contour>
    <contour>
      <point x="871" y="824" type="line"/>
      <point x="618" y="824" type="line"/>
      <point x="618" y="656" type="line"/>
      <point x="871" y="656" type="line"/>
    </contour>
    <contour>
      <point x="674" y="582" type="line"/>
      <point x="781" y="740" type="line"/>
      <point x="674" y="898" type="line"/>
      <point x="284" y="1480" type="line"/>
      <point x="70" y="1480" type="line"/>
      <point x="568" y="740" type="line"/>
      <point x="70" y="0" type="line"/>
      <point x="284" y="0" type="line"/>
    </contour>
    <contour>
      <point x="1061" y="824" type="line"/>
      <point x="1061" y="656" type="line"/>
      <point x="1314" y="656" type="line"/>
      <point x="1314" y="824" type="line"/>
    </contour>
    <contour>
      <point x="1061" y="490" type="line"/>
      <point x="1061" y="1480" type="line"/>
      <point x="871" y="1480" type="line"/>
      <point x="871" y="0" type="line"/>
      <point x="1061" y="0" type="line"/>
    </contour>
    <contour>
      <point x="1258" y="582" type="line"/>
      <point x="1648" y="0" type="line"/>
      <point x="1862" y="0" type="line"/>
      <point x="1364" y="740" type="line"/>
      <point x="1862" y="1480" type="line"/>
      <point x="1648" y="1480" type="line"/>
      <point x="1258" y="898" type="line"/>
      <point x="1151" y="740" type="line"/>
    </contour>
  </outline>
</glyph>
<glyph name="uni04AB" format="2">
  <advance width="1142"/>
  <unicode hex="04AB"/>
  <outline>
    <contour>
      <point x="280" y="520" type="curve" smooth="yes"/>
      <point x="280" y="300"/>
      <point x="407" y="140"/>
      <point x="598" y="140" type="curve" smooth="yes"/>
      <point x="739" y="140"/>
      <point x="840" y="207"/>
      <point x="889" y="340" type="curve"/>
      <point x="1042" y="252" type="line"/>
      <point x="959" y="74"/>
      <point x="797" y="-20"/>
      <point x="598" y="-20" type="curve" smooth="yes"/>
      <point x="317" y="-20"/>
      <point x="100" y="208"/>
      <point x="100" y="520" type="curve" smooth="yes"/>
      <point x="100" y="832"/>
      <point x="317" y="1060"/>
      <point x="598" y="1060" type="curve" smooth="yes"/>
      <point x="797" y="1060"/>
      <point x="959" y="966"/>
      <point x="1042" y="788" type="curve"/>
      <point x="889" y="700" type="line"/>
      <point x="840" y="833"/>
      <point x="739" y="900"/>
      <point x="598" y="900" type="curve" smooth="yes"/>
      <point x="407" y="900"/>
      <point x="280" y="740"/>
    </contour>
    <contour>
      <point x="428" y="-225" type="line"/>
      <point x="462" y="-250"/>
      <point x="496" y="-263"/>
      <point x="532" y="-263" type="curve" smooth="yes"/>
      <point x="568" y="-263"/>
      <point x="595" y="-240"/>
      <point x="595" y="-204" type="curve" smooth="yes"/>
      <point x="595" y="30" type="line"/>
      <point x="723" y="30" type="line"/>
      <point x="723" y="-220" type="line" smooth="yes"/>
      <point x="723" y="-310"/>
      <point x="632" y="-380"/>
      <point x="532" y="-380" type="curve" smooth="yes"/>
      <point x="468" y="-380"/>
      <point x="425" y="-364"/>
      <point x="370" y="-326" type="curve"/>
    </contour>
  </outline>
</glyph>
<glyph name="uni04AF" format="2">
  <advance width="1060"/>
  <unicode hex="04AF"/>
  <outline>
    <contour>
      <point x="620" y="0" type="line"/>
      <point x="990" y="1040" type="line"/>
      <point x="798" y="1040" type="line"/>
      <point x="530" y="224" type="line"/>
      <point x="262" y="1040" type="line"/>
      <point x="70" y="1040" type="line"/>
      <point x="440" y="0" type="line"/>
      <point x="440" y="-440" type="line"/>
      <point x="620" y="-440" type="line"/>
    </contour>
  </outline>
</glyph>
<glyph name="uni04B0" format="2">
  <advance width="1392"/>
  <unicode hex="04B0"/>
  <outline>
    <contour>
      <point x="1031" y="356" type="line"/>
      <point x="361" y="356" type="line"/>
      <point x="361" y="402"/>
      <point x="361" y="478"/>
      <point x="361" y="524" type="curve"/>
      <point x="1031" y="524" type="line"/>
    </contour>
    <component base="Y"/>
  </outline>
</glyph>
<glyph name="uni04BC" format="2">
  <advance width="1832"/>
  <unicode hex="04BC"/>
  <outline>
    <contour>
      <point x="196" y="1026" type="curve"/>
      <point x="4" y="1026" type="line"/>
      <point x="1" y="1010"/>
      <point x="0" y="993"/>
      <point x="0" y="976" type="curve" smooth="yes"/>
      <point x="0" y="798"/>
      <point x="152" y="656"/>
      <point x="330" y="656" type="curve" smooth="yes"/>
      <point x="330" y="824" type="line" smooth="yes"/>
      <point x="240" y="824"/>
      <point x="190" y="886"/>
      <point x="190" y="976" type="curve" smooth="yes"/>
      <point x="190" y="994"/>
      <point x="191" y="1011"/>
    </contour>
    <contour>
      <point x="1728" y="656" type="line"/>
      <point x="1730" y="683"/>
      <point x="1732" y="711"/>
      <point x="1732" y="740" type="curve" smooth="yes"/>
      <point x="1732" y="1179"/>
      <point x="1426" y="1500"/>
      <point x="1031" y="1500" type="curve" smooth="yes"/>
      <point x="636" y="1500"/>
      <point x="330" y="1189"/>
      <point x="330" y="750" type="curve" smooth="yes"/>
      <point x="330" y="311"/>
      <point x="636" y="-20"/>
      <point x="1031" y="-20" type="curve" smooth="yes"/>
      <point x="1299" y="-20"/>
      <point x="1550" y="129"/>
      <point x="1668" y="361" type="curve"/>
      <point x="1507" y="453" type="line"/>
      <point x="1424" y="266"/>
      <point x="1232" y="148"/>
      <point x="1031" y="148" type="curve" smooth="yes"/>
      <point x="741" y="148"/>
      <point x="520" y="390"/>
      <point x="520" y="740" type="curve" smooth="yes"/>
      <point x="520" y="1090"/>
      <point x="741" y="1332"/>
      <point x="1031" y="1332" type="curve" smooth="yes"/>
      <point x="1321" y="1332"/>
      <point x="1542" y="1090"/>
      <point x="1542" y="740" type="curve" smooth="yes"/>
      <point x="1542" y="711"/>
      <point x="1541" y="683"/>
      <point x="1538" y="656" type="curve"/>
    </contour>
    <contour>
      <point x="1634" y="824" type="line"/>
      <point x="330" y="824" type="line"/>
      <point x="330" y="656" type="line"/>
      <point x="1538" y="656" type="line"/>
    </contour>
  </outline>
</glyph>
<glyph name="uni04C3" format="2">
  <advance width="1427"/>
  <unicode hex="04C3"/>
  <outline>
    <contour>
      <point x="706" y="892" type="curve" smooth="yes"/>
      <point x="672" y="892"/>
      <point x="663" y="892"/>
      <point x="662" y="871" type="curve"/>
      <point x="630" y="1026" type="line"/>
      <point x="635" y="1033"/>
      <point x="666" y="1060"/>
      <point x="706" y="1060" type="curve" smooth="yes"/>
      <point x="1101" y="1060"/>
      <point x="1327" y="739"/>
      <point x="1327" y="300" type="curve" smooth="yes"/>
      <point x="1327" y="-139"/>
      <point x="1101" y="-460"/>
      <point x="706" y="-460" type="curve" smooth="yes"/>
      <point x="706" y="-292" type="line" smooth="yes"/>
      <point x="996" y="-292"/>
      <point x="1137" y="-50"/>
      <point x="1137" y="300" type="curve" smooth="yes"/>
      <point x="1137" y="650"/>
      <point x="996" y="892"/>
    </contour>
    <contour>
      <point x="330" y="490" type="line"/>
      <point x="330" y="0" type="line"/>
      <point x="140" y="0" type="line"/>
      <point x="140" y="1480" type="line"/>
      <point x="330" y="1480" type="line"/>
      <point x="330" y="730" type="line"/>
      <point x="1056" y="1480" type="line"/>
      <point x="1116" y="1480"/>
      <point x="1236" y="1480"/>
      <point x="1296" y="1480" type="curve"/>
    </contour>
  </outline>
</glyph>
<glyph name="uni04C4" format="2">
  <advance width="1146"/>
  <unicode hex="04C4"/>
  <outline>
    <contour>
      <point x="377" y="428" type="curve"/>
      <point x="480" y="635" type="line"/>
      <point x="502" y="638"/>
      <point x="525" y="640"/>
      <point x="548" y="640" type="curve" smooth="yes"/>
      <point x="829" y="640"/>
      <point x="1046" y="412"/>
      <point x="1046" y="100" type="curve" smooth="yes"/>
      <point x="1046" y="-212"/>
      <point x="829" y="-440"/>
      <point x="548" y="-440" type="curve" smooth="yes"/>
      <point x="548" y="-280" type="line" smooth="yes"/>
      <point x="739" y="-280"/>
      <point x="866" y="-120"/>
      <point x="866" y="100" type="curve" smooth="yes"/>
      <point x="866" y="320"/>
      <point x="739" y="480"/>
      <point x="548" y="480" type="curve" smooth="yes"/>
      <point x="483" y="480"/>
      <point x="425" y="460"/>
    </contour>
    <contour>
      <point x="320" y="340" type="line"/>
      <point x="320" y="0" type="line"/>
      <point x="140" y="0" type="line"/>
      <point x="140" y="1040" type="line"/>
      <point x="320" y="1040" type="line"/>
      <point x="320" y="572" type="line"/>
      <point x="788" y="1040" type="line"/>
      <point x="848" y="1040"/>
      <point x="960" y="1040"/>
      <point x="1020" y="1040" type="curve"/>
    </contour>
  </outline>
</glyph>
<glyph name="uni04C8" format="2">
  <advance width="1159"/>
  <unicode hex="04C8"/>
  <outline>
    <contour>
      <point x="1019" y="0" type="curve"/>
      <point x="1019" y="1040" type="line"/>
      <point x="839" y="1040" type="line"/>
      <point x="839" y="600" type="line"/>
      <point x="320" y="600" type="line"/>
      <point x="320" y="1040" type="line"/>
      <point x="140" y="1040" type="line"/>
      <point x="140" y="0" type="line"/>
      <point x="320" y="0" type="line"/>
      <point x="320" y="439" type="line"/>
      <point x="839" y="439" type="line"/>
      <point x="839" y="0" type="line"/>
      <point x="839" y="-93"/>
      <point x="783" y="-163"/>
      <point x="693" y="-163" type="curve" smooth="yes"/>
      <point x="677" y="-163"/>
      <point x="662" y="-161"/>
      <point x="649" y="-157" type="curve"/>
      <point x="649" y="-320" type="line"/>
      <point x="663" y="-322"/>
      <point x="678" y="-323"/>
      <point x="693" y="-323" type="curve" smooth="yes"/>
      <point x="871" y="-323"/>
      <point x="1019" y="-181"/>
    </contour>
  </outline>
</glyph>
<glyph name="uni04E8" format="2">
  <advance width="1602"/>
  <unicode hex="04E8"/>
  <anchor x="801" y="1380" name="top_center"/>
  <anchor x="801" y="0" name="bottom_center"/>
  <outline>
    <contour>
      <point x="239" y="824" type="line"/>
      <point x="801" y="824" type="line"/>
      <point x="1343" y="824" type="line"/>
      <point x="1343" y="656" type="line"/>
      <point x="801" y="656" type="line"/>
      <point x="239" y="656" type="line"/>
    </contour>
    <component base="O"/>
  </outline>
</glyph>
<glyph name="uni0500" format="2">
  <advance width="1283"/>
  <unicode hex="0500"/>
  <outline>
    <contour>
      <point x="953" y="168" type="line"/>
      <point x="576" y="168" type="line"/>
      <point x="411" y="168"/>
      <point x="290" y="289"/>
      <point x="290" y="454" type="curve" smooth="yes"/>
      <point x="290" y="619"/>
      <point x="411" y="740"/>
      <point x="576" y="740" type="curve"/>
      <point x="953" y="740" type="line"/>
    </contour>
    <contour>
      <point x="1143" y="1480" type="line"/>
      <point x="953" y="1480" type="line"/>
      <point x="953" y="908" type="line"/>
      <point x="576" y="908" type="line"/>
      <point x="321" y="908"/>
      <point x="100" y="709"/>
      <point x="100" y="454" type="curve" smooth="yes"/>
      <point x="100" y="199"/>
      <point x="321" y="0"/>
      <point x="576" y="0" type="curve"/>
      <point x="1143" y="0" type="line"/>
    </contour>
  </outline>
</glyph>
<glyph name="uni0501" format="2">
  <advance width="1066"/>
  <unicode hex="0501"/>
  <outline>
    <contour>
      <point x="746" y="159" type="line"/>
      <point x="482" y="159" type="line"/>
      <point x="366" y="159"/>
      <point x="280" y="230"/>
      <point x="280" y="326" type="curve" smooth="yes"/>
      <point x="280" y="422"/>
      <point x="366" y="492"/>
      <point x="482" y="492" type="curve"/>
      <point x="746" y="492" type="line"/>
    </contour>
    <contour>
      <point x="926" y="1040" type="line"/>
      <point x="746" y="1040" type="line"/>
      <point x="746" y="653" type="line"/>
      <point x="482" y="653" type="line"/>
      <point x="278" y="653"/>
      <point x="100" y="509"/>
      <point x="100" y="326" type="curve" smooth="yes"/>
      <point x="100" y="143"/>
      <point x="278" y="0"/>
      <point x="482" y="0" type="curve"/>
      <point x="926" y="0" type="line"/>
    </contour>
  </outline>
</glyph>
<glyph name="uni0503" format="2">
  <advance width="1609"/>
  <unicode hex="0503"/>
  <outline>
    <contour>
      <point x="1469" y="758" type="line"/>
      <point x="1469" y="346" type="line"/>
      <point x="1469" y="88"/>
      <point x="1326" y="-14"/>
      <point x="1108" y="-14" type="curve" smooth="yes"/>
      <point x="890" y="-14"/>
      <point x="746" y="88"/>
      <point x="746" y="346" type="curve"/>
      <point x="926" y="365" type="line"/>
      <point x="926" y="214"/>
      <point x="981" y="145"/>
      <point x="1108" y="145" type="curve" smooth="yes"/>
      <point x="1235" y="145"/>
      <point x="1289" y="214"/>
      <point x="1289" y="365" type="curve" smooth="yes"/>
      <point x="1289" y="758" type="line"/>
    </contour>
    <contour>
      <point x="481" y="517" type="line"/>
      <point x="365" y="517"/>
      <point x="280" y="435"/>
      <point x="280" y="331" type="curve" smooth="yes"/>
      <point x="280" y="227"/>
      <point x="365" y="145"/>
      <point x="481" y="145" type="curve"/>
      <point x="564" y="145" type="line" smooth="yes"/>
      <point x="691" y="145"/>
      <point x="746" y="221"/>
      <point x="746" y="359" type="curve" smooth="yes"/>
      <point x="746" y="517" type="line"/>
    </contour>
    <contour>
      <point x="746" y="1040" type="line"/>
      <point x="926" y="1040" type="line"/>
      <point x="926" y="359" type="line"/>
      <point x="926" y="102"/>
      <point x="786" y="-14"/>
      <point x="574" y="-14" type="curve" smooth="yes"/>
      <point x="481" y="-14" type="line"/>
      <point x="277" y="-14"/>
      <point x="100" y="141"/>
      <point x="100" y="331" type="curve" smooth="yes"/>
      <point x="100" y="521"/>
      <point x="277" y="676"/>
      <point x="481" y="676" type="curve"/>
      <point x="746" y="676" type="line"/>
    </contour>
  </outline>
</glyph>
<glyph name="uni0509" format="2">
  <advance width="1580"/>
  <unicode hex="0509"/>
  <outline>
    <contour>
      <point x="895" y="324" type="curve" smooth="yes"/>
      <point x="895" y="1040" type="line"/>
      <point x="227" y="1040" type="line"/>
      <point x="162" y="377" type="line" smooth="yes"/>
      <point x="145" y="187"/>
      <point x="65" y="140"/>
      <point x="5" y="140" type="curve"/>
      <point x="5" y="-19" type="line" smooth="yes"/>
      <point x="146" y="-19"/>
      <point x="319" y="85"/>
      <point x="342" y="377" type="curve" smooth="yes"/>
      <point x="392" y="880" type="line"/>
      <point x="715" y="880" type="line"/>
      <point x="715" y="324" type="line"/>
      <point x="715" y="56"/>
      <point x="858" y="-30"/>
      <point x="1077" y="-30" type="curve" smooth="yes"/>
      <point x="1296" y="-30"/>
      <point x="1440" y="76"/>
      <point x="1440" y="344" type="curve"/>
      <point x="1440" y="725" type="line"/>
      <point x="1260" y="725" type="line"/>
      <point x="1260" y="344" type="line" smooth="yes"/>
      <point x="1260" y="198"/>
      <point x="1205" y="131"/>
      <point x="1077" y="131" type="curve" smooth="yes"/>
      <point x="949" y="131"/>
      <point x="895" y="178"/>
    </contour>
  </outline>
</glyph>
<glyph name="uni0513" format="2">
  <advance width="1035"/>
  <unicode hex="0513"/>
  <outline>
    <contour>
      <point x="227" y="1040" type="line"/>
      <point x="162" y="377" type="line" smooth="yes"/>
      <point x="145" y="187"/>
      <point x="65" y="140"/>
      <point x="5" y="140" type="curve"/>
      <point x="5" y="-19" type="line" smooth="yes"/>
      <point x="146" y="-19"/>
      <point x="319" y="85"/>
      <point x="342" y="377" type="curve" smooth="yes"/>
      <point x="392" y="880" type="line"/>
      <point x="715" y="880" type="line"/>
      <point x="715" y="0" type="line"/>
      <point x="715" y="-93"/>
      <point x="659" y="-163"/>
      <point x="569" y="-163" type="curve" smooth="yes"/>
      <point x="553" y="-163"/>
      <point x="538" y="-161"/>
      <point x="525" y="-157" type="curve"/>
      <point x="525" y="-320" type="line"/>
      <point x="539" y="-322"/>
      <point x="554" y="-323"/>
      <point x="569" y="-323" type="curve" smooth="yes"/>
      <point x="747" y="-323"/>
      <point x="895" y="-181"/>
      <point x="895" y="0" type="curve"/>
      <point x="895" y="1040" type="line"/>
    </contour>
  </outline>
</glyph>
<glyph name="uni051C" format="2">
  <advance width="1984"/>
  <unicode hex="051C"/>
  <outline>
    <contour>
      <point x="1404" y="280" type="line"/>
      <point x="1718" y="1480" type="line"/>
      <point x="1914" y="1480" type="line"/>
      <point x="1502" y="0" type="line"/>
      <point x="1306" y="0" type="line"/>
      <point x="992" y="1150" type="line"/>
      <point x="678" y="0" type="line"/>
      <point x="482" y="0" type="line"/>
      <point x="70" y="1480" type="line"/>
      <point x="266" y="1480" type="line"/>
      <point x="580" y="280" type="line"/>
      <point x="906" y="1480" type="line"/>
      <point x="1078" y="1480" type="line"/>
    </contour>
  </outline>
</glyph>
<glyph name="uni0521" format="2">
  <advance width="1721"/>
  <unicode hex="0521"/>
  <outline>
    <contour>
      <point x="1123" y="460" type="curve" smooth="yes"/>
      <point x="996" y="460"/>
      <point x="898" y="391"/>
      <point x="846" y="278" type="curve"/>
      <point x="772" y="470" type="line"/>
      <point x="861" y="564"/>
      <point x="984" y="620"/>
      <point x="1123" y="620" type="curve" smooth="yes"/>
      <point x="1404" y="620"/>
      <point x="1621" y="392"/>
      <point x="1621" y="80" type="curve" smooth="yes"/>
      <point x="1621" y="-232"/>
      <point x="1404" y="-460"/>
      <point x="1123" y="-460" type="curve" smooth="yes"/>
      <point x="1123" y="-300" type="line" smooth="yes"/>
      <point x="1314" y="-300"/>
      <point x="1441" y="-140"/>
      <point x="1441" y="80" type="curve" smooth="yes"/>
      <point x="1441" y="300"/>
      <point x="1314" y="460"/>
    </contour>
    <contour>
      <point x="895" y="1040" type="line"/>
      <point x="895" y="0" type="line"/>
      <point x="715" y="0" type="line"/>
      <point x="715" y="880" type="line"/>
      <point x="392" y="880" type="line"/>
      <point x="342" y="377" type="line" smooth="yes"/>
      <point x="319" y="85"/>
      <point x="146" y="-19"/>
      <point x="5" y="-19" type="curve" smooth="yes"/>
      <point x="5" y="140" type="line"/>
      <point x="65" y="140"/>
      <point x="145" y="187"/>
      <point x="162" y="377" type="curve" smooth="yes"/>
      <point x="227" y="1040" type="line"/>
    </contour>
  </outline>
</glyph>
<glyph name="uni052B" format="2">
  <advance width="2269"/>
  <unicode hex="052B"/>
  <outline>
    <contour>
      <point x="70" y="-300" type="line"/>
      <point x="70" y="160" type="line"/>
      <point x="250" y="160" type="line"/>
      <point x="250" y="-300" type="line"/>
    </contour>
    <contour>
      <point x="230" y="160" type="line"/>
      <point x="1100" y="160" type="line"/>
      <point x="1100" y="0" type="line"/>
      <point x="230" y="0" type="line"/>
    </contour>
    <contour>
      <point x="1020" y="-300" type="line"/>
      <point x="1020" y="160" type="line"/>
      <point x="1200" y="160" type="line"/>
      <point x="1200" y="-300" type="line"/>
    </contour>
    <contour>
      <point x="1020" y="1040" type="line"/>
      <point x="1020" y="0" type="line"/>
      <point x="840" y="0" type="line"/>
      <point x="840" y="880" type="line"/>
      <point x="517" y="880" type="line"/>
      <point x="467" y="377" type="line" smooth="yes"/>
      <point x="438" y="86"/>
      <point x="271" y="0"/>
      <point x="130" y="0" type="curve" smooth="yes"/>
      <point x="130" y="160" type="line"/>
      <point x="190" y="160"/>
      <point x="270" y="187"/>
      <point x="287" y="377" type="curve" smooth="yes"/>
      <point x="352" y="1040" type="line"/>
    </contour>
    <contour>
      <point x="981" y="600" type="line"/>
      <point x="1437" y="600" type="line"/>
      <point x="1437" y="440" type="line"/>
      <point x="981" y="440" type="line"/>
    </contour>
    <contour>
      <point x="1657" y="562" type="line"/>
      <point x="1766" y="702" type="line"/>
      <point x="2264" y="0" type="line"/>
      <point x="2056" y="0" type="line"/>
    </contour>
    <contour>
      <point x="1560" y="340" type="line"/>
      <point x="1560" y="0" type="line"/>
      <point x="1380" y="0" type="line"/>
      <point x="1380" y="1040" type="line"/>
      <point x="1560" y="1040" type="line"/>
      <point x="1560" y="572" type="line"/>
      <point x="2028" y="1040" type="line"/>
      <point x="2088" y="1040"/>
      <point x="2200" y="1040"/>
      <point x="2260" y="1040" type="curve"/>
    </contour>
  </outline>
</glyph>
<glyph name="uni1D49" format="2">
  <advance width="738"/>
  <unicode hex="1D49"/>
  <outline>
    <contour>
      <point x="93" y="1171" type="line"/>
      <point x="93" y="1051" type="line"/>
      <point x="627" y="1051" type="line"/>
      <point x="620" y="1171" type="line"/>
    </contour>
    <contour>
      <point x="369" y="798" type="curve" smooth="yes"/>
      <point x="490" y="798"/>
      <point x="602" y="838"/>
      <point x="653" y="953" type="curve"/>
      <point x="540" y="1016" type="line"/>
      <point x="512" y="952"/>
      <point x="451" y="919"/>
      <point x="369" y="919" type="curve" smooth="yes"/>
      <point x="261" y="919"/>
      <point x="195" y="996"/>
      <point x="195" y="1111" type="curve" smooth="yes"/>
      <point x="195" y="1226"/>
      <point x="261" y="1304"/>
      <point x="369" y="1304" type="curve" smooth="yes"/>
      <point x="477" y="1304"/>
      <point x="543" y="1226"/>
      <point x="543" y="1111" type="curve" smooth="yes"/>
      <point x="543" y="1090"/>
      <point x="540" y="1070"/>
      <point x="536" y="1051" type="curve"/>
      <point x="673" y="1051" type="line"/>
      <point x="676" y="1070"/>
      <point x="678" y="1090"/>
      <point x="678" y="1111" type="curve" smooth="yes"/>
      <point x="678" y="1291"/>
      <point x="541" y="1425"/>
      <point x="369" y="1425" type="curve" smooth="yes"/>
      <point x="197" y="1425"/>
      <point x="60" y="1291"/>
      <point x="60" y="1111" type="curve" smooth="yes"/>
      <point x="60" y="931"/>
      <point x="197" y="798"/>
    </contour>
  </outline>
</glyph>
<glyph name="uni1FEE" format="2">
  <advance width="844"/>
  <unicode hex="1FEE"/>
  <anchor x="421" y="1040" name="_top_center"/>
  <outline>
    <contour>
      <point x="508" y="1436" type="line"/>
      <point x="330" y="1436" type="line"/>
      <point x="508" y="1692" type="line"/>
      <point x="734" y="1692" type="line"/>
    </contour>
    <contour>
      <point x="515" y="1352" type="curve" smooth="yes"/>
      <point x="515" y="1424"/>
      <point x="571" y="1480"/>
      <point x="643" y="1480" type="curve" smooth="yes"/>
      <point x="715" y="1480"/>
      <point x="771" y="1424"/>
      <point x="771" y="1352" type="curve" smooth="yes"/>
      <point x="771" y="1280"/>
      <point x="715" y="1224"/>
      <point x="643" y="1224" type="curve" smooth="yes"/>
      <point x="571" y="1224"/>
      <point x="515" y="1280"/>
    </contour>
    <contour>
      <point x="67" y="1352" type="curve" smooth="yes"/>
      <point x="67" y="1424"/>
      <point x="123" y="1480"/>
      <point x="195" y="1480" type="curve" smooth="yes"/>
      <point x="267" y="1480"/>
      <point x="323" y="1424"/>
      <point x="323" y="1352" type="curve" smooth="yes"/>
      <point x="323" y="1280"/>
      <point x="267" y="1224"/>
      <point x="195" y="1224" type="curve" smooth="yes"/>
      <point x="123" y="1224"/>
      <point x="67" y="1280"/>
    </contour>
  </outline>
</glyph>
<glyph name="quoteleft" format="2">
  <advance width="488"/>
  <unicode hex="2018"/>
  <outline>
    <contour>
      <point x="388" y="1117" type="curve" smooth="yes"/>
      <point x="388" y="1045"/>
      <point x="335" y="988"/>
      <point x="263" y="988" type="curve" smooth="yes"/>
      <point x="191" y="988"/>
      <point x="136" y="1045"/>
      <point x="136" y="1117" type="curve" smooth="yes"/>
      <point x="136" y="1189"/>
      <point x="191" y="1244"/>
      <point x="263" y="1244" type="curve" smooth="yes"/>
      <point x="335" y="1244"/>
      <point x="388" y="1189"/>
    </contour>
    <contour>
      <point x="373" y="1385" type="line"/>
      <point x="316" y="1372"/>
      <point x="227" y="1324"/>
      <point x="227" y="1204" type="curve" smooth="yes"/>
      <point x="227" y="1176"/>
      <point x="262" y="1116"/>
      <point x="262" y="1116" type="curve"/>
      <point x="263" y="988" type="line"/>
      <point x="193" y="988"/>
      <point x="100" y="1034"/>
      <point x="100" y="1204" type="curve" smooth="yes"/>
      <point x="100" y="1384"/>
      <point x="266" y="1480"/>
      <point x="343" y="1500" type="curve"/>
    </contour>
  </outline>
</glyph>
<glyph name="quoteright" format="2">
  <advance width="488"/>
  <unicode hex="2019"/>
  <outline>
    <contour>
      <point x="100" y="1371" type="curve" smooth="yes"/>
      <point x="100" y="1443"/>
      <point x="153" y="1500"/>
      <point x="225" y="1500" type="curve" smooth="yes"/>
      <point x="297" y="1500"/>
      <point x="352" y="1443"/>
      <point x="352" y="1371" type="curve" smooth="yes"/>
      <point x="352" y="1299"/>
      <point x="297" y="1244"/>
      <point x="225" y="1244" type="curve" smooth="yes"/>
      <point x="153" y="1244"/>
      <point x="100" y="1299"/>
    </contour>
    <contour>
      <point x="115" y="1103" type="line"/>
      <point x="172" y="1116"/>
      <point x="261" y="1164"/>
      <point x="261" y="1284" type="curve" smooth="yes"/>
      <point x="261" y="1312"/>
      <point x="226" y="1372"/>
      <point x="226" y="1372" type="curve"/>
      <point x="225" y="1500" type="line"/>
      <point x="295" y="1500"/>
      <point x="388" y="1454"/>
      <point x="388" y="1284" type="curve" smooth="yes"/>
      <point x="388" y="1104"/>
      <point x="222" y="1008"/>
      <point x="145" y="988" type="curve"/>
    </contour>
  </outline>
</glyph>
<glyph name="quotereversed" format="2">
  <advance width="488"/>
  <unicode hex="201B"/>
  <outline>
    <contour>
      <point x="388" y="1371" type="curve" smooth="yes"/>
      <point x="388" y="1443"/>
      <point x="335" y="1500"/>
      <point x="263" y="1500" type="curve" smooth="yes"/>
      <point x="191" y="1500"/>
      <point x="136" y="1443"/>
      <point x="136" y="1371" type="curve" smooth="yes"/>
      <point x="136" y="1299"/>
      <point x="191" y="1244"/>
      <point x="263" y="1244" type="curve" smooth="yes"/>
      <point x="335" y="1244"/>
      <point x="388" y="1299"/>
    </contour>
    <contour>
      <point x="373" y="1103" type="line"/>
      <point x="316" y="1116"/>
      <point x="227" y="1164"/>
      <point x="227" y="1284" type="curve" smooth="yes"/>
      <point x="227" y="1312"/>
      <point x="262" y="1372"/>
      <point x="262" y="1372" type="curve"/>
      <point x="263" y="1500" type="line"/>
      <point x="193" y="1500"/>
      <point x="100" y="1454"/>
      <point x="100" y="1284" type="curve" smooth="yes"/>
      <point x="100" y="1104"/>
      <point x="266" y="1008"/>
      <point x="343" y="988" type="curve"/>
    </contour>
  </outline>
</glyph>
<glyph name="uni2042" format="2">
  <advance width="1988"/>
  <unicode hex="2042"/>
  <outline>
    <contour>
      <point x="1888" y="-155" type="line"/>
      <point x="1527" y="39" type="line"/>
      <point x="1487" y="-30" type="line"/>
      <point x="1447" y="-99" type="line"/>
      <point x="1796" y="-315" type="line"/>
    </contour>
    <contour>
      <point x="1086" y="95" type="line"/>
      <point x="1447" y="-99" type="line"/>
      <point x="1487" y="-30" type="line"/>
      <point x="1527" y="39" type="line"/>
      <point x="1178" y="255" type="line"/>
    </contour>
    <contour>
      <point x="1178" y="-315" type="line"/>
      <point x="1527" y="-99" type="line"/>
      <point x="1487" y="-30" type="line"/>
      <point x="1447" y="39" type="line"/>
      <point x="1086" y="-155" type="line"/>
    </contour>
    <contour>
      <point x="1796" y="255" type="line"/>
      <point x="1447" y="39" type="line"/>
      <point x="1487" y="-30" type="line"/>
      <point x="1527" y="-99" type="line"/>
      <point x="1888" y="95" type="line"/>
    </contour>
    <contour>
      <point x="1579" y="-440" type="line"/>
      <point x="1567" y="-30" type="line"/>
      <point x="1487" y="-30" type="line"/>
      <point x="1407" y="-30" type="line"/>
      <point x="1395" y="-440" type="line"/>
    </contour>
    <contour>
      <point x="1395" y="380" type="line"/>
      <point x="1407" y="-30" type="line"/>
      <point x="1487" y="-30" type="line"/>
      <point x="1567" y="-30" type="line"/>
      <point x="1579" y="380" type="line"/>
    </contour>
    <contour>
      <point x="902" y="-155" type="line"/>
      <point x="541" y="39" type="line"/>
      <point x="501" y="-30" type="line"/>
      <point x="461" y="-99" type="line"/>
      <point x="810" y="-315" type="line"/>
    </contour>
    <contour>
      <point x="100" y="95" type="line"/>
      <point x="461" y="-99" type="line"/>
      <point x="501" y="-30" type="line"/>
      <point x="541" y="39" type="line"/>
      <point x="192" y="255" type="line"/>
    </contour>
    <contour>
      <point x="192" y="-315" type="line"/>
      <point x="541" y="-99" type="line"/>
      <point x="501" y="-30" type="line"/>
      <point x="461" y="39" type="line"/>
      <point x="100" y="-155" type="line"/>
    </contour>
    <contour>
      <point x="810" y="255" type="line"/>
      <point x="461" y="39" type="line"/>
      <point x="501" y="-30" type="line"/>
      <point x="541" y="-99" type="line"/>
      <point x="902" y="95" type="line"/>
    </contour>
    <contour>
      <point x="593" y="-440" type="line"/>
      <point x="581" y="-30" type="line"/>
      <point x="501" y="-30" type="line"/>
      <point x="421" y="-30" type="line"/>
      <point x="409" y="-440" type="line"/>
    </contour>
    <contour>
      <point x="409" y="380" type="line"/>
      <point x="421" y="-30" type="line"/>
      <point x="501" y="-30" type="line"/>
      <point x="581" y="-30" type="line"/>
      <point x="593" y="380" type="line"/>
    </contour>
    <contour>
      <point x="1395" y="945" type="line"/>
      <point x="1034" y="1139" type="line"/>
      <point x="994" y="1070" type="line"/>
      <point x="954" y="1001" type="line"/>
      <point x="1303" y="785" type="line"/>
    </contour>
    <contour>
      <point x="593" y="1195" type="line"/>
      <point x="954" y="1001" type="line"/>
      <point x="994" y="1070" type="line"/>
      <point x="1034" y="1139" type="line"/>
      <point x="685" y="1355" type="line"/>
    </contour>
    <contour>
      <point x="685" y="785" type="line"/>
      <point x="1034" y="1001" type="line"/>
      <point x="994" y="1070" type="line"/>
      <point x="954" y="1139" type="line"/>
      <point x="593" y="945" type="line"/>
    </contour>
    <contour>
      <point x="1303" y="1355" type="line"/>
      <point x="954" y="1139" type="line"/>
      <point x="994" y="1070" type="line"/>
      <point x="1034" y="1001" type="line"/>
      <point x="1395" y="1195" type="line"/>
    </contour>
    <contour>
      <point x="1086" y="660" type="line"/>
      <point x="1074" y="1070" type="line"/>
      <point x="994" y="1070" type="line"/>
      <point x="914" y="1070" type="line"/>
      <point x="902" y="660" type="line"/>
    </contour>
    <contour>
      <point x="902" y="1480" type="line"/>
      <point x="914" y="1070" type="line"/>
      <point x="994" y="1070" type="line"/>
      <point x="1074" y="1070" type="line"/>
      <point x="1086" y="1480" type="line"/>
    </contour>
  </outline>
</glyph>
<glyph name="uni2045" format="2">
  <advance width="858"/>
  <unicode hex="2045"/>
  <outline>
    <contour>
      <point x="180" y="740" type="line"/>
      <point x="788" y="740" type="line"/>
      <point x="788" y="580" type="line"/>
      <point x="200" y="580" type="line"/>
    </contour>
    <contour>
      <point x="788" y="1480" type="line"/>
      <point x="320" y="1480" type="line"/>
      <point x="320" y="-160" type="line"/>
      <point x="788" y="-160" type="line"/>
      <point x="788" y="-320" type="line"/>
      <point x="140" y="-320" type="line"/>
      <point x="140" y="1640" type="line"/>
      <point x="788" y="1640" type="line"/>
    </contour>
  </outline>
</glyph>
<glyph name="uni204F" format="2">
  <advance width="568"/>
  <unicode hex="204F"/>
  <outline>
    <contour>
      <point x="428" y="107" type="curve" smooth="yes"/>
      <point x="428" y="179"/>
      <point x="375" y="236"/>
      <point x="303" y="236" type="curve" smooth="yes"/>
      <point x="231" y="236"/>
      <point x="176" y="179"/>
      <point x="176" y="107" type="curve" smooth="yes"/>
      <point x="176" y="35"/>
      <point x="231" y="-20"/>
      <point x="303" y="-20" type="curve" smooth="yes"/>
      <point x="375" y="-20"/>
      <point x="428" y="35"/>
    </contour>
    <contour>
      <point x="413" y="-161" type="line"/>
      <point x="356" y="-148"/>
      <point x="267" y="-100"/>
      <point x="267" y="20" type="curve" smooth="yes"/>
      <point x="267" y="48"/>
      <point x="302" y="108"/>
      <point x="302" y="108" type="curve"/>
      <point x="303" y="236" type="line"/>
      <point x="233" y="236"/>
      <point x="140" y="190"/>
      <point x="140" y="20" type="curve" smooth="yes"/>
      <point x="140" y="-160"/>
      <point x="306" y="-256"/>
      <point x="383" y="-276" type="curve"/>
    </contour>
    <contour>
      <point x="428" y="931" type="curve" smooth="yes"/>
      <point x="428" y="1003"/>
      <point x="375" y="1060"/>
      <point x="303" y="1060" type="curve" smooth="yes"/>
      <point x="231" y="1060"/>
      <point x="176" y="1003"/>
      <point x="176" y="931" type="curve" smooth="yes"/>
      <point x="176" y="859"/>
      <point x="231" y="804"/>
      <point x="303" y="804" type="curve" smooth="yes"/>
      <point x="375" y="804"/>
      <point x="428" y="859"/>
    </contour>
  </outline>
</glyph>
<glyph name="uni205A" format="2">
  <advance width="532"/>
  <unicode hex="205A"/>
  <outline>
    <contour>
      <point x="140" y="1370" type="curve" smooth="yes"/>
      <point x="140" y="1442"/>
      <point x="194" y="1499"/>
      <point x="266" y="1499" type="curve" smooth="yes"/>
      <point x="338" y="1499"/>
      <point x="392" y="1442"/>
      <point x="392" y="1370" type="curve" smooth="yes"/>
      <point x="392" y="1298"/>
      <point x="338" y="1243"/>
      <point x="266" y="1243" type="curve" smooth="yes"/>
      <point x="194" y="1243"/>
      <point x="140" y="1298"/>
    </contour>
    <contour>
      <point x="140" y="107" type="curve" smooth="yes"/>
      <point x="140" y="179"/>
      <point x="194" y="236"/>
      <point x="266" y="236" type="curve" smooth="yes"/>
      <point x="338" y="236"/>
      <point x="392" y="179"/>
      <point x="392" y="107" type="curve" smooth="yes"/>
      <point x="392" y="35"/>
      <point x="338" y="-20"/>
      <point x="266" y="-20" type="curve" smooth="yes"/>
      <point x="194" y="-20"/>
      <point x="140" y="35"/>
    </contour>
  </outline>
</glyph>
<glyph name="uni205B" format="2">
  <advance width="1370"/>
  <unicode hex="205B"/>
  <outline>
    <contour>
      <point x="560" y="1371" type="curve" smooth="yes"/>
      <point x="560" y="1443"/>
      <point x="614" y="1500"/>
      <point x="686" y="1500" type="curve" smooth="yes"/>
      <point x="758" y="1500"/>
      <point x="812" y="1443"/>
      <point x="812" y="1371" type="curve" smooth="yes"/>
      <point x="812" y="1299"/>
      <point x="758" y="1244"/>
      <point x="686" y="1244" type="curve" smooth="yes"/>
      <point x="614" y="1244"/>
      <point x="560" y="1299"/>
    </contour>
    <contour>
      <point x="560" y="107" type="curve" smooth="yes"/>
      <point x="560" y="179"/>
      <point x="614" y="236"/>
      <point x="686" y="236" type="curve" smooth="yes"/>
      <point x="758" y="236"/>
      <point x="812" y="179"/>
      <point x="812" y="107" type="curve" smooth="yes"/>
      <point x="812" y="35"/>
      <point x="758" y="-20"/>
      <point x="686" y="-20" type="curve" smooth="yes"/>
      <point x="614" y="-20"/>
      <point x="560" y="35"/>
    </contour>
    <contour>
      <point x="978" y="740" type="curve" smooth="yes"/>
      <point x="978" y="812"/>
      <point x="1032" y="869"/>
      <point x="1104" y="869" type="curve" smooth="yes"/>
      <point x="1176" y="869"/>
      <point x="1230" y="812"/>
      <point x="1230" y="740" type="curve" smooth="yes"/>
      <point x="1230" y="668"/>
      <point x="1176" y="613"/>
      <point x="1104" y="613" type="curve" smooth="yes"/>
      <point x="1032" y="613"/>
      <point x="978" y="668"/>
    </contour>
    <contour>
      <point x="140" y="740" type="curve" smooth="yes"/>
      <point x="140" y="812"/>
      <point x="194" y="869"/>
      <point x="266" y="869" type="curve" smooth="yes"/>
      <point x="338" y="869"/>
      <point x="392" y="812"/>
      <point x="392" y="740" type="curve" smooth="yes"/>
      <point x="392" y="668"/>
      <point x="338" y="613"/>
      <point x="266" y="613" type="curve" smooth="yes"/>
      <point x="194" y="613"/>
      <point x="140" y="668"/>
    </contour>
  </outline>
</glyph>
<glyph name="uni2076" format="2">
  <advance width="796"/>
  <unicode hex="2076"/>
  <outline>
    <contour>
      <point x="208" y="1265" type="curve"/>
      <point x="246" y="1345"/>
      <point x="313" y="1397"/>
      <point x="415" y="1397" type="curve" smooth="yes"/>
      <point x="594" y="1397"/>
      <point x="721" y="1272"/>
      <point x="721" y="1097" type="curve" smooth="yes"/>
      <point x="721" y="922"/>
      <point x="590" y="798"/>
      <point x="406" y="798" type="curve" smooth="yes"/>
      <point x="282" y="798"/>
      <point x="189" y="855"/>
      <point x="141" y="945" type="curve" smooth="yes"/>
      <point x="119" y="981"/>
      <point x="75" y="1063"/>
      <point x="75" y="1212" type="curve" smooth="yes"/>
      <point x="75" y="1522"/>
      <point x="258" y="1680"/>
      <point x="484" y="1680" type="curve" smooth="yes"/>
      <point x="616" y="1680"/>
      <point x="692" y="1594"/>
      <point x="692" y="1594" type="curve"/>
      <point x="630" y="1487" type="line"/>
      <point x="630" y="1487"/>
      <point x="578" y="1559"/>
      <point x="462" y="1559" type="curve" smooth="yes"/>
      <point x="341" y="1559"/>
      <point x="228" y="1458"/>
    </contour>
    <contour>
      <point x="229" y="1098" type="curve" smooth="yes"/>
      <point x="229" y="987"/>
      <point x="304" y="919"/>
      <point x="407" y="919" type="curve" smooth="yes"/>
      <point x="510" y="919"/>
      <point x="586" y="987"/>
      <point x="586" y="1098" type="curve" smooth="yes"/>
      <point x="586" y="1209"/>
      <point x="510" y="1277"/>
      <point x="407" y="1277" type="curve" smooth="yes"/>
      <point x="304" y="1277"/>
      <point x="229" y="1209"/>
    </contour>
  </outline>
</glyph>
<glyph name="uni2079" format="2">
  <advance width="796"/>
  <unicode hex="2079"/>
  <outline>
    <contour>
      <point x="588" y="1213" type="curve"/>
      <point x="550" y="1133"/>
      <point x="483" y="1081"/>
      <point x="381" y="1081" type="curve" smooth="yes"/>
      <point x="202" y="1081"/>
      <point x="75" y="1206"/>
      <point x="75" y="1381" type="curve" smooth="yes"/>
      <point x="75" y="1556"/>
      <point x="206" y="1680"/>
      <point x="390" y="1680" type="curve" smooth="yes"/>
      <point x="514" y="1680"/>
      <point x="607" y="1623"/>
      <point x="655" y="1533" type="curve" smooth="yes"/>
      <point x="677" y="1497"/>
      <point x="721" y="1415"/>
      <point x="721" y="1266" type="curve" smooth="yes"/>
      <point x="721" y="956"/>
      <point x="538" y="798"/>
      <point x="312" y="798" type="curve" smooth="yes"/>
      <point x="180" y="798"/>
      <point x="104" y="884"/>
      <point x="104" y="884" type="curve"/>
      <point x="166" y="991" type="line"/>
      <point x="166" y="991"/>
      <point x="218" y="919"/>
      <point x="334" y="919" type="curve" smooth="yes"/>
      <point x="455" y="919"/>
      <point x="568" y="1020"/>
    </contour>
    <contour>
      <point x="567" y="1380" type="curve" smooth="yes"/>
      <point x="567" y="1491"/>
      <point x="492" y="1559"/>
      <point x="389" y="1559" type="curve" smooth="yes"/>
      <point x="286" y="1559"/>
      <point x="210" y="1491"/>
      <point x="210" y="1380" type="curve" smooth="yes"/>
      <point x="210" y="1269"/>
      <point x="286" y="1201"/>
      <point x="389" y="1201" type="curve" smooth="yes"/>
      <point x="492" y="1201"/>
      <point x="567" y="1269"/>
    </contour>
  </outline>
</glyph>
<glyph name="uni207A" format="2">
  <advance width="714"/>
  <unicode hex="207A"/>
  <outline>
    <contour>
      <point x="290" y="1468" type="line"/>
      <point x="290" y="916" type="line"/>
      <point x="424" y="916" type="line"/>
      <point x="424" y="1468" type="line"/>
    </contour>
    <contour>
      <point x="81" y="1132" type="line"/>
      <point x="633" y="1132" type="line"/>
      <point x="633" y="1252" type="line"/>
      <point x="81" y="1252" type="line"/>
    </contour>
  </outline>
</glyph>
<glyph name="uni2082" format="2">
  <advance width="796"/>
  <unicode hex="2082"/>
  <outline>
    <contour>
      <point x="85" y="-188" type="line"/>
      <point x="85" y="-78"/>
      <point x="97" y="34"/>
      <point x="388" y="202" type="curve" smooth="yes"/>
      <point x="481" y="256"/>
      <point x="571" y="297"/>
      <point x="571" y="398" type="curve" smooth="yes"/>
      <point x="571" y="499"/>
      <point x="502" y="562"/>
      <point x="398" y="562" type="curve" smooth="yes"/>
      <point x="294" y="562"/>
      <point x="225" y="479"/>
      <point x="225" y="382" type="curve" smooth="yes"/>
      <point x="225" y="372"/>
      <point x="226" y="354"/>
      <point x="227" y="345" type="curve"/>
      <point x="90" y="382" type="line"/>
      <point x="90" y="562"/>
      <point x="221" y="682"/>
      <point x="398" y="682" type="curve" smooth="yes"/>
      <point x="575" y="682"/>
      <point x="706" y="581"/>
      <point x="706" y="423" type="curve" smooth="yes"/>
      <point x="706" y="259"/>
      <point x="612" y="184"/>
      <point x="447" y="89" type="curve" smooth="yes"/>
      <point x="343" y="29"/>
      <point x="265" y="-16"/>
      <point x="245" y="-68" type="curve"/>
      <point x="711" y="-68" type="line"/>
      <point x="711" y="-188" type="line"/>
      <point x="205" y="-188" type="line"/>
      <point x="141" y="-188" type="line"/>
    </contour>
  </outline>
</glyph>
<glyph name="uni2086" format="2">
  <advance width="796"/>
  <unicode hex="2086"/>
  <outline>
    <contour>
      <point x="208" y="267" type="curve"/>
      <point x="246" y="347"/>
      <point x="313" y="399"/>
      <point x="415" y="399" type="curve" smooth="yes"/>
      <point x="594" y="399"/>
      <point x="721" y="274"/>
      <point x="721" y="99" type="curve" smooth="yes"/>
      <point x="721" y="-76"/>
      <point x="590" y="-200"/>
      <point x="406" y="-200" type="curve" smooth="yes"/>
      <point x="282" y="-200"/>
      <point x="189" y="-143"/>
      <point x="141" y="-53" type="curve" smooth="yes"/>
      <point x="119" y="-17"/>
      <point x="75" y="65"/>
      <point x="75" y="214" type="curve" smooth="yes"/>
      <point x="75" y="524"/>
      <point x="258" y="682"/>
      <point x="484" y="682" type="curve" smooth="yes"/>
      <point x="616" y="682"/>
      <point x="692" y="596"/>
      <point x="692" y="596" type="curve"/>
      <point x="630" y="489" type="line"/>
      <point x="630" y="489"/>
      <point x="578" y="561"/>
      <point x="462" y="561" type="curve" smooth="yes"/>
      <point x="341" y="561"/>
      <point x="228" y="460"/>
    </contour>
    <contour>
      <point x="229" y="100" type="curve" smooth="yes"/>
      <point x="229" y="-11"/>
      <point x="304" y="-79"/>
      <point x="407" y="-79" type="curve" smooth="yes"/>
      <point x="510" y="-79"/>
      <point x="586" y="-11"/>
      <point x="586" y="100" type="curve" smooth="yes"/>
      <point x="586" y="211"/>
      <point x="510" y="279"/>
      <point x="407" y="279" type="curve" smooth="yes"/>
      <point x="304" y="279"/>
      <point x="229" y="211"/>
    </contour>
  </outline>
</glyph>
<glyph name="uni2091" format="2">
  <advance width="738"/>
  <unicode hex="2091"/>
  <outline>
    <contour>
      <point x="93" y="173" type="line"/>
      <point x="93" y="53" type="line"/>
      <point x="627" y="53" type="line"/>
      <point x="620" y="173" type="line"/>
    </contour>
    <contour>
      <point x="369" y="-200" type="curve" smooth="yes"/>
      <point x="490" y="-200"/>
      <point x="602" y="-160"/>
      <point x="653" y="-45" type="curve"/>
      <point x="540" y="18" type="line"/>
      <point x="512" y="-46"/>
      <point x="451" y="-79"/>
      <point x="369" y="-79" type="curve" smooth="yes"/>
      <point x="261" y="-79"/>
      <point x="195" y="-2"/>
      <point x="195" y="113" type="curve" smooth="yes"/>
      <point x="195" y="228"/>
      <point x="261" y="306"/>
      <point x="369" y="306" type="curve" smooth="yes"/>
      <point x="477" y="306"/>
      <point x="543" y="228"/>
      <point x="543" y="113" type="curve" smooth="yes"/>
      <point x="543" y="92"/>
      <point x="540" y="72"/>
      <point x="536" y="53" type="curve"/>
      <point x="673" y="53" type="line"/>
      <point x="676" y="72"/>
      <point x="678" y="92"/>
      <point x="678" y="113" type="curve" smooth="yes"/>
      <point x="678" y="293"/>
      <point x="541" y="427"/>
      <point x="369" y="427" type="curve" smooth="yes"/>
      <point x="197" y="427"/>
      <point x="60" y="293"/>
      <point x="60" y="113" type="curve" smooth="yes"/>
      <point x="60" y="-67"/>
      <point x="197" y="-200"/>
    </contour>
  </outline>
</glyph>
<glyph name="uni2093" format="2">
  <advance width="672"/>
  <unicode hex="2093"/>
  <outline>
    <contour>
      <point x="245" y="114" type="line"/>
      <point x="40" y="415" type="line"/>
      <point x="186" y="415" type="line"/>
      <point x="336" y="182" type="line"/>
      <point x="485" y="415" type="line"/>
      <point x="632" y="415" type="line"/>
      <point x="426" y="114" type="line"/>
      <point x="632" y="-188" type="line"/>
      <point x="485" y="-188" type="line"/>
      <point x="334" y="47" type="line"/>
      <point x="187" y="-188" type="line"/>
      <point x="40" y="-188" type="line"/>
    </contour>
  </outline>
</glyph>
<glyph name="uni209B" format="2">
  <advance width="637"/>
  <unicode hex="209B"/>
  <outline>
    <contour>
      <point x="321" y="427" type="curve" smooth="yes"/>
      <point x="445" y="427"/>
      <point x="536" y="374"/>
      <point x="562" y="276" type="curve"/>
      <point x="449" y="213" type="line"/>
      <point x="431" y="276"/>
      <point x="388" y="306"/>
      <point x="321" y="306" type="curve" smooth="yes"/>
      <point x="254" y="306"/>
      <point x="218" y="284"/>
      <point x="218" y="245" type="curve" smooth="yes"/>
      <point x="218" y="206"/>
      <point x="236" y="194"/>
      <point x="321" y="178" type="curve" smooth="yes"/>
      <point x="474" y="144"/>
      <point x="577" y="103"/>
      <point x="577" y="-19" type="curve" smooth="yes"/>
      <point x="577" y="-141"/>
      <point x="452" y="-200"/>
      <point x="321" y="-200" type="curve" smooth="yes"/>
      <point x="190" y="-200"/>
      <point x="86" y="-142"/>
      <point x="60" y="-45" type="curve"/>
      <point x="176" y="18" type="line"/>
      <point x="195" y="-45"/>
      <point x="241" y="-79"/>
      <point x="321" y="-79" type="curve" smooth="yes"/>
      <point x="401" y="-79"/>
      <point x="442" y="-62"/>
      <point x="442" y="-18" type="curve" smooth="yes"/>
      <point x="442" y="26"/>
      <point x="406" y="35"/>
      <point x="321" y="51" type="curve" smooth="yes"/>
      <point x="166" y="85"/>
      <point x="83" y="137"/>
      <point x="83" y="246" type="curve" smooth="yes"/>
      <point x="83" y="355"/>
      <point x="197" y="427"/>
    </contour>
  </outline>
</glyph>
<glyph name="franc" format="2">
  <advance width="1278"/>
  <unicode hex="20A3"/>
  <outline>
    <contour>
      <point x="670" y="272" type="line"/>
      <point x="0" y="272" type="line"/>
      <point x="0" y="318"/>
      <point x="0" y="394"/>
      <point x="0" y="440" type="curve"/>
      <point x="670" y="440" type="line"/>
    </contour>
    <contour>
      <point x="400" y="338" type="line"/>
      <point x="400" y="0" type="line"/>
      <point x="210" y="0" type="line"/>
      <point x="210" y="1480" type="line"/>
      <point x="1138" y="1480" type="line"/>
      <point x="1138" y="1312" type="line"/>
      <point x="400" y="1312" type="line"/>
      <point x="400" y="824" type="line"/>
      <point x="1043" y="824" type="line"/>
      <point x="1043" y="656" type="line"/>
      <point x="400" y="656" type="line"/>
    </contour>
  </outline>
</glyph>
<glyph name="uni20AE" format="2">
  <advance width="1398"/>
  <unicode hex="20AE"/>
  <outline>
    <contour>
      <point x="1114" y="1198" type="line"/>
      <point x="1114" y="1021" type="line"/>
      <point x="284" y="541" type="line"/>
      <point x="284" y="718" type="line"/>
    </contour>
    <contour>
      <point x="1114" y="824" type="line"/>
      <point x="1114" y="657" type="line"/>
      <point x="284" y="168" type="line"/>
      <point x="284" y="345" type="line"/>
    </contour>
    <contour>
      <point x="794" y="0" type="line"/>
      <point x="604" y="0" type="line"/>
      <point x="604" y="1312" type="line"/>
      <point x="140" y="1312" type="line"/>
      <point x="140" y="1480" type="line"/>
      <point x="1258" y="1480" type="line"/>
      <point x="1258" y="1312" type="line"/>
      <point x="794" y="1312" type="line"/>
    </contour>
  </outline>
</glyph>
<glyph name="uni20B7" format="2">
  <advance width="1528"/>
  <unicode hex="20B7"/>
  <note>Based on capital letter S with lowercase subscript m, which is moved so the base of the "m" is at y=-160</note>
  <outline>
    <contour>
      <point x="230" y="71" type="curve"/>
      <point x="267" y="245" type="line"/>
      <point x="267" y="245"/>
      <point x="487" y="148"/>
      <point x="878" y="148" type="curve" smooth="yes"/>
      <point x="1098" y="148"/>
      <point x="1238" y="255"/>
      <point x="1238" y="396" type="curve" smooth="yes"/>
      <point x="1238" y="537"/>
      <point x="1111" y="601"/>
      <point x="918" y="653" type="curve" smooth="yes"/>
      <point x="628" y="731"/>
      <point x="453" y="854"/>
      <point x="453" y="1084" type="curve" smooth="yes"/>
      <point x="453" y="1314"/>
      <point x="627" y="1500"/>
      <point x="918" y="1500" type="curve" smooth="yes"/>
      <point x="1199" y="1500"/>
      <point x="1381" y="1332"/>
      <point x="1408" y="1094" type="curve"/>
      <point x="1221" y="1044" type="line" smooth="yes"/>
      <point x="1221" y="1201"/>
      <point x="1119" y="1332"/>
      <point x="918" y="1332" type="curve" smooth="yes"/>
      <point x="708" y="1332"/>
      <point x="643" y="1212"/>
      <point x="643" y="1084" type="curve" smooth="yes"/>
      <point x="643" y="956"/>
      <point x="773" y="876"/>
      <point x="918" y="837" type="curve" smooth="yes"/>
      <point x="1208" y="759"/>
      <point x="1428" y="656"/>
      <point x="1428" y="396" type="curve" smooth="yes"/>
      <point x="1428" y="136"/>
      <point x="1184" y="-20"/>
      <point x="878" y="-20" type="curve" smooth="yes"/>
      <point x="448" y="-20"/>
      <point x="230" y="71"/>
    </contour>
    <contour>
      <point x="544" y="-160" type="line"/>
      <point x="544" y="157" type="line" smooth="yes"/>
      <point x="544" y="276"/>
      <point x="500" y="344"/>
      <point x="407" y="344" type="curve" smooth="yes"/>
      <point x="314" y="344"/>
      <point x="275" y="284"/>
      <point x="275" y="163" type="curve" smooth="yes"/>
      <point x="275" y="-160" type="line"/>
      <point x="140" y="-160" type="line"/>
      <point x="140" y="452" type="line"/>
      <point x="274" y="452" type="line"/>
      <point x="274" y="358" type="line"/>
      <point x="328" y="422"/>
      <point x="358" y="464"/>
      <point x="437" y="464" type="curve" smooth="yes"/>
      <point x="519" y="464"/>
      <point x="586" y="433"/>
      <point x="628" y="368" type="curve"/>
      <point x="668" y="430"/>
      <point x="730" y="464"/>
      <point x="812" y="464" type="curve" smooth="yes"/>
      <point x="962" y="464"/>
      <point x="1061" y="365"/>
      <point x="1061" y="157" type="curve" smooth="yes"/>
      <point x="1061" y="-160" type="line"/>
      <point x="926" y="-160" type="line"/>
      <point x="926" y="157" type="line" smooth="yes"/>
      <point x="926" y="276"/>
      <point x="882" y="344"/>
      <point x="789" y="344" type="curve" smooth="yes"/>
      <point x="696" y="344"/>
      <point x="679" y="276"/>
      <point x="679" y="157" type="curve" smooth="yes"/>
      <point x="679" y="-160" type="line"/>
    </contour>
  </outline>
</glyph>
<glyph name="uni20BA" format="2">
  <advance width="1451"/>
  <unicode hex="20BA"/>
  <outline>
    <contour>
      <point x="970" y="1312" type="line"/>
      <point x="970" y="1135" type="line"/>
      <point x="140" y="655" type="line"/>
      <point x="140" y="832" type="line"/>
    </contour>
    <contour>
      <point x="970" y="938" type="line"/>
      <point x="970" y="771" type="line"/>
      <point x="140" y="282" type="line"/>
      <point x="140" y="459" type="line"/>
    </contour>
    <contour>
      <point x="650" y="148" type="line" smooth="yes"/>
      <point x="940" y="148"/>
      <point x="1161" y="390"/>
      <point x="1161" y="740" type="curve" smooth="yes"/>
      <point x="1351" y="740" type="line" smooth="yes"/>
      <point x="1351" y="301"/>
      <point x="1045" y="-20"/>
      <point x="650" y="-20" type="curve" smooth="yes"/>
    </contour>
    <contour>
      <point x="650" y="1480" type="line"/>
      <point x="650" y="-20" type="line"/>
      <point x="460" y="-20" type="line"/>
      <point x="460" y="1480" type="line"/>
    </contour>
  </outline>
</glyph>
<glyph name="uni20BF" format="2">
  <advance width="1323"/>
  <unicode hex="20BF"/>
  <outline>
    <contour>
      <point x="499" y="100" type="line"/>
      <point x="499" y="-180" type="line"/>
      <point x="347" y="-180" type="line"/>
      <point x="347" y="100" type="line"/>
    </contour>
    <contour>
      <point x="803" y="100" type="line"/>
      <point x="803" y="-180" type="line"/>
      <point x="651" y="-180" type="line"/>
      <point x="651" y="100" type="line"/>
    </contour>
    <contour>
      <point x="499" y="1660" type="line"/>
      <point x="499" y="1380" type="line"/>
      <point x="347" y="1380" type="line"/>
      <point x="347" y="1660" type="line"/>
    </contour>
    <contour>
      <point x="803" y="1660" type="line"/>
      <point x="803" y="1380" type="line"/>
      <point x="651" y="1380" type="line"/>
      <point x="651" y="1660" type="line"/>
    </contour>
    <contour>
      <point x="707" y="1480" type="line"/>
      <point x="927" y="1480"/>
      <point x="1119" y="1330"/>
      <point x="1119" y="1110" type="curve" smooth="yes"/>
      <point x="1119" y="890"/>
      <point x="927" y="740"/>
      <point x="707" y="740" type="curve"/>
      <point x="707" y="908" type="line"/>
      <point x="832" y="908"/>
      <point x="929" y="987"/>
      <point x="929" y="1112" type="curve" smooth="yes"/>
      <point x="929" y="1237"/>
      <point x="832" y="1312"/>
      <point x="707" y="1312" type="curve"/>
      <point x="330" y="1312" type="line"/>
      <point x="330" y="1480" type="line"/>
    </contour>
    <contour>
      <point x="330" y="168" type="line"/>
      <point x="707" y="168" type="line"/>
      <point x="872" y="168"/>
      <point x="993" y="289"/>
      <point x="993" y="454" type="curve" smooth="yes"/>
      <point x="993" y="619"/>
      <point x="872" y="740"/>
      <point x="707" y="740" type="curve"/>
      <point x="330" y="740" type="line"/>
    </contour>
    <contour>
      <point x="140" y="1480" type="line"/>
      <point x="330" y="1480" type="line"/>
      <point x="330" y="908" type="line"/>
      <point x="707" y="908" type="line"/>
      <point x="962" y="908"/>
      <point x="1183" y="709"/>
      <point x="1183" y="454" type="curve" smooth="yes"/>
      <point x="1183" y="199"/>
      <point x="962" y="0"/>
      <point x="707" y="0" type="curve"/>
      <point x="140" y="0" type="line"/>
    </contour>
  </outline>
</glyph>
<glyph name="uni2100" format="2">
  <advance width="1686"/>
  <unicode hex="2100"/>
  <outline>
    <contour>
      <point x="600" y="98" type="line"/>
      <point x="492" y="160" type="line"/>
      <point x="1200" y="1382" type="line"/>
      <point x="1308" y="1320" type="line"/>
    </contour>
    <contour>
      <point x="1308" y="494" type="curve" smooth="yes"/>
      <point x="1390" y="494"/>
      <point x="1451" y="452"/>
      <point x="1479" y="380" type="curve"/>
      <point x="1586" y="443" type="line"/>
      <point x="1535" y="562"/>
      <point x="1430" y="615"/>
      <point x="1308" y="615" type="curve" smooth="yes"/>
      <point x="1136" y="615"/>
      <point x="999" y="481"/>
      <point x="999" y="301" type="curve" smooth="yes"/>
      <point x="999" y="121"/>
      <point x="1136" y="-12"/>
      <point x="1308" y="-12" type="curve" smooth="yes"/>
      <point x="1430" y="-12"/>
      <point x="1535" y="41"/>
      <point x="1586" y="160" type="curve"/>
      <point x="1479" y="223" type="line"/>
      <point x="1451" y="151"/>
      <point x="1390" y="109"/>
      <point x="1308" y="109" type="curve" smooth="yes"/>
      <point x="1200" y="109"/>
      <point x="1134" y="186"/>
      <point x="1134" y="301" type="curve" smooth="yes"/>
      <point x="1134" y="416"/>
      <point x="1200" y="494"/>
    </contour>
    <contour>
      <point x="549" y="844" type="curve"/>
      <point x="497" y="796"/>
      <point x="432" y="775"/>
      <point x="360" y="775" type="curve" smooth="yes"/>
      <point x="194" y="775"/>
      <point x="100" y="872"/>
      <point x="100" y="986" type="curve" smooth="yes"/>
      <point x="100" y="1100"/>
      <point x="197" y="1197"/>
      <point x="360" y="1197" type="curve" smooth="yes"/>
      <point x="432" y="1197"/>
      <point x="494" y="1174"/>
      <point x="537" y="1136" type="curve"/>
      <point x="536" y="1232"/>
      <point x="469" y="1275"/>
      <point x="360" y="1275" type="curve" smooth="yes"/>
      <point x="252" y="1275"/>
      <point x="182" y="1228"/>
      <point x="182" y="1228" type="curve"/>
      <point x="130" y="1341" type="line"/>
      <point x="130" y="1341"/>
      <point x="203" y="1402"/>
      <point x="368" y="1402" type="curve" smooth="yes"/>
      <point x="527" y="1402"/>
      <point x="672" y="1352"/>
      <point x="672" y="1136" type="curve" smooth="yes"/>
      <point x="672" y="1068" type="line"/>
      <point x="672" y="1055" type="line"/>
      <point x="672" y="926" type="line" smooth="yes"/>
      <point x="672" y="895"/>
      <point x="689" y="881"/>
      <point x="724" y="881" type="curve"/>
      <point x="700" y="761" type="line"/>
      <point x="624" y="767"/>
      <point x="571" y="794"/>
    </contour>
    <contour>
      <point x="537" y="987" type="curve"/>
      <point x="535" y="1045"/>
      <point x="489" y="1076"/>
      <point x="386" y="1076" type="curve" smooth="yes"/>
      <point x="281" y="1076"/>
      <point x="235" y="1043"/>
      <point x="235" y="986" type="curve" smooth="yes"/>
      <point x="235" y="929"/>
      <point x="281" y="896"/>
      <point x="386" y="896" type="curve" smooth="yes"/>
      <point x="471" y="896"/>
      <point x="535" y="925"/>
    </contour>
  </outline>
</glyph>
<glyph name="uni2114" format="2">
  <advance width="1644"/>
  <unicode hex="2114"/>
  <outline>
    <contour>
      <point x="532" y="156" type="curve"/>
      <point x="574" y="4" type="line"/>
      <point x="552" y="-9"/>
      <point x="512" y="-20"/>
      <point x="480" y="-20" type="curve" smooth="yes"/>
      <point x="310" y="-20"/>
      <point x="210" y="60"/>
      <point x="210" y="230" type="curve" smooth="yes"/>
      <point x="210" y="440" type="line"/>
      <point x="210" y="578" type="line"/>
      <point x="210" y="1480" type="line"/>
      <point x="390" y="1480" type="line"/>
      <point x="390" y="578" type="line"/>
      <point x="390" y="440" type="line"/>
      <point x="390" y="230" type="line" smooth="yes"/>
      <point x="390" y="170"/>
      <point x="420" y="140"/>
      <point x="480" y="140" type="curve" smooth="yes"/>
      <point x="496" y="140"/>
      <point x="520" y="149"/>
    </contour>
    <contour>
      <point x="1060" y="1160" type="line"/>
      <point x="0" y="1160" type="line"/>
      <point x="0" y="1206"/>
      <point x="0" y="1274"/>
      <point x="0" y="1320" type="curve"/>
      <point x="1060" y="1320" type="line"/>
    </contour>
    <contour>
      <point x="768" y="520" type="curve" smooth="yes"/>
      <point x="768" y="290"/>
      <point x="886" y="140"/>
      <point x="1066" y="140" type="curve" smooth="yes"/>
      <point x="1246" y="140"/>
      <point x="1364" y="290"/>
      <point x="1364" y="520" type="curve" smooth="yes"/>
      <point x="1364" y="750"/>
      <point x="1246" y="900"/>
      <point x="1066" y="900" type="curve" smooth="yes"/>
      <point x="886" y="900"/>
      <point x="768" y="750"/>
    </contour>
    <contour>
      <point x="600" y="168" type="curve"/>
      <point x="600" y="1480" type="line"/>
      <point x="780" y="1480" type="line"/>
      <point x="780" y="920" type="line"/>
      <point x="865" y="1005"/>
      <point x="941" y="1060"/>
      <point x="1066" y="1060" type="curve" smooth="yes"/>
      <point x="1347" y="1060"/>
      <point x="1544" y="832"/>
      <point x="1544" y="520" type="curve" smooth="yes"/>
      <point x="1544" y="208"/>
      <point x="1347" y="-20"/>
      <point x="1066" y="-20" type="curve" smooth="yes"/>
      <point x="941" y="-20"/>
      <point x="857" y="35"/>
      <point x="772" y="120" type="curve"/>
      <point x="772" y="0" type="line"/>
      <point x="600" y="0" type="line"/>
      <point x="600" y="0"/>
      <point x="600" y="66"/>
    </contour>
  </outline>
</glyph>
<glyph name="uni2123" format="2">
  <advance width="1356"/>
  <unicode hex="2123"/>
  <outline>
    <contour>
      <point x="602" y="1592" type="line"/>
      <point x="941" y="1453" type="line"/>
      <point x="998" y="1588" type="line"/>
      <point x="662" y="1726" type="line"/>
    </contour>
    <contour>
      <point x="856" y="1644" type="line"/>
      <point x="130" y="-107" type="line"/>
      <point x="272" y="-164" type="line"/>
      <point x="998" y="1588" type="line"/>
    </contour>
    <contour>
      <point x="678" y="250" type="line"/>
      <point x="266" y="1480" type="line"/>
      <point x="70" y="1480" type="line"/>
      <point x="580" y="0" type="line"/>
      <point x="776" y="0" type="line"/>
      <point x="1286" y="1480" type="line"/>
      <point x="1090" y="1480" type="line"/>
    </contour>
  </outline>
</glyph>
<glyph name="uni2133" format="2">
  <advance width="2400"/>
  <unicode hex="2133"/>
  <note>From Noto Sans (https://notofonts.github.io/)</note>
  <outline>
    <contour>
      <point x="278" y="-21" type="curve" smooth="yes"/>
      <point x="194" y="-21"/>
      <point x="126" y="4"/>
      <point x="76" y="55" type="curve" smooth="yes"/>
      <point x="26" y="106"/>
      <point x="0" y="172"/>
      <point x="0" y="252" type="curve" smooth="yes"/>
      <point x="0" y="310"/>
      <point x="18" y="360"/>
      <point x="53" y="401" type="curve" smooth="yes"/>
      <point x="88" y="442"/>
      <point x="134" y="462"/>
      <point x="189" y="462" type="curve" smooth="yes"/>
      <point x="235" y="462"/>
      <point x="265" y="449"/>
      <point x="281" y="425" type="curve" smooth="yes"/>
      <point x="297" y="401"/>
      <point x="305" y="376"/>
      <point x="305" y="348" type="curve" smooth="yes"/>
      <point x="305" y="316"/>
      <point x="290" y="287"/>
      <point x="262" y="259" type="curve" smooth="yes"/>
      <point x="234" y="231"/>
      <point x="188" y="213"/>
      <point x="124" y="205" type="curve" smooth="yes"/>
      <point x="106" y="204"/>
      <point x="95" y="199"/>
      <point x="89" y="191" type="curve" smooth="yes"/>
      <point x="83" y="183"/>
      <point x="81" y="173"/>
      <point x="81" y="161" type="curve" smooth="yes"/>
      <point x="81" y="153"/>
      <point x="87" y="137"/>
      <point x="99" y="114" type="curve" smooth="yes"/>
      <point x="111" y="91"/>
      <point x="133" y="68"/>
      <point x="162" y="47" type="curve" smooth="yes"/>
      <point x="191" y="26"/>
      <point x="230" y="16"/>
      <point x="280" y="16" type="curve" smooth="yes"/>
      <point x="355" y="16"/>
      <point x="423" y="36"/>
      <point x="487" y="77" type="curve" smooth="yes"/>
      <point x="551" y="118"/>
      <point x="612" y="172"/>
      <point x="671" y="238" type="curve" smooth="yes"/>
      <point x="703" y="274"/>
      <point x="736" y="313"/>
      <point x="768" y="355" type="curve" smooth="yes"/>
      <point x="800" y="397"/>
      <point x="832" y="441"/>
      <point x="862" y="487" type="curve" smooth="yes"/>
      <point x="891" y="530"/>
      <point x="921" y="572"/>
      <point x="952" y="616" type="curve" smooth="yes"/>
      <point x="983" y="660"/>
      <point x="1015" y="703"/>
      <point x="1047" y="746" type="curve" smooth="yes"/>
      <point x="1134" y="865"/>
      <point x="1220" y="975"/>
      <point x="1306" y="1077" type="curve" smooth="yes"/>
      <point x="1392" y="1179"/>
      <point x="1470" y="1268"/>
      <point x="1543" y="1342" type="curve" smooth="yes"/>
      <point x="1616" y="1416"/>
      <point x="1676" y="1468"/>
      <point x="1724" y="1501" type="curve"/>
      <point x="1758" y="1480" type="line"/>
      <point x="1752" y="1466"/>
      <point x="1741" y="1443"/>
      <point x="1724" y="1406" type="curve" smooth="yes"/>
      <point x="1707" y="1369"/>
      <point x="1688" y="1326"/>
      <point x="1666" y="1276" type="curve" smooth="yes"/>
      <point x="1644" y="1226"/>
      <point x="1621" y="1175"/>
      <point x="1598" y="1121" type="curve" smooth="yes"/>
      <point x="1575" y="1067"/>
      <point x="1552" y="1015"/>
      <point x="1531" y="966" type="curve" smooth="yes"/>
      <point x="1510" y="917"/>
      <point x="1491" y="876"/>
      <point x="1476" y="841" type="curve" smooth="yes"/>
      <point x="1461" y="806"/>
      <point x="1451" y="784"/>
      <point x="1445" y="773" type="curve" smooth="yes"/>
      <point x="1439" y="759"/>
      <point x="1428" y="733"/>
      <point x="1411" y="694" type="curve" smooth="yes"/>
      <point x="1394" y="655"/>
      <point x="1376" y="609"/>
      <point x="1355" y="555" type="curve" smooth="yes"/>
      <point x="1334" y="501"/>
      <point x="1313" y="445"/>
      <point x="1292" y="386" type="curve" smooth="yes"/>
      <point x="1271" y="327"/>
      <point x="1252" y="271"/>
      <point x="1236" y="216" type="curve" smooth="yes"/>
      <point x="1220" y="161"/>
      <point x="1209" y="114"/>
      <point x="1202" y="74" type="curve"/>
      <point x="1243" y="115"/>
      <point x="1291" y="178"/>
      <point x="1345" y="261" type="curve" smooth="yes"/>
      <point x="1359" y="282"/>
      <point x="1374" y="304"/>
      <point x="1389" y="329" type="curve" smooth="yes"/>
      <point x="1404" y="354"/>
      <point x="1418" y="378"/>
      <point x="1432" y="400" type="curve" smooth="yes"/>
      <point x="1473" y="469"/>
      <point x="1517" y="539"/>
      <point x="1562" y="610" type="curve" smooth="yes"/>
      <point x="1607" y="681"/>
      <point x="1648" y="745"/>
      <point x="1687" y="800" type="curve" smooth="yes"/>
      <point x="1748" y="883"/>
      <point x="1800" y="951"/>
      <point x="1842" y="1006" type="curve" smooth="yes"/>
      <point x="1884" y="1061"/>
      <point x="1928" y="1112"/>
      <point x="1975" y="1162" type="curve" smooth="yes"/>
      <point x="2052" y="1245"/>
      <point x="2127" y="1316"/>
      <point x="2197" y="1373" type="curve" smooth="yes"/>
      <point x="2267" y="1430"/>
      <point x="2324" y="1471"/>
      <point x="2365" y="1496" type="curve"/>
      <point x="2400" y="1463" type="line"/>
      <point x="2377" y="1430"/>
      <point x="2348" y="1384"/>
      <point x="2315" y="1327" type="curve" smooth="yes"/>
      <point x="2282" y="1270"/>
      <point x="2246" y="1206"/>
      <point x="2209" y="1138" type="curve" smooth="yes"/>
      <point x="2172" y="1070"/>
      <point x="2137" y="1002"/>
      <point x="2102" y="936" type="curve" smooth="yes"/>
      <point x="2067" y="870"/>
      <point x="2037" y="811"/>
      <point x="2012" y="758" type="curve" smooth="yes"/>
      <point x="1995" y="723"/>
      <point x="1975" y="681"/>
      <point x="1952" y="630" type="curve" smooth="yes"/>
      <point x="1929" y="579"/>
      <point x="1905" y="524"/>
      <point x="1880" y="466" type="curve" smooth="yes"/>
      <point x="1855" y="408"/>
      <point x="1831" y="351"/>
      <point x="1810" y="296" type="curve" smooth="yes"/>
      <point x="1789" y="241"/>
      <point x="1772" y="191"/>
      <point x="1758" y="147" type="curve" smooth="yes"/>
      <point x="1744" y="103"/>
      <point x="1737" y="68"/>
      <point x="1737" y="45" type="curve" smooth="yes"/>
      <point x="1737" y="26"/>
      <point x="1742" y="16"/>
      <point x="1753" y="16" type="curve" smooth="yes"/>
      <point x="1778" y="16"/>
      <point x="1810" y="32"/>
      <point x="1849" y="64" type="curve" smooth="yes"/>
      <point x="1888" y="96"/>
      <point x="1928" y="136"/>
      <point x="1972" y="184" type="curve" smooth="yes"/>
      <point x="2016" y="232"/>
      <point x="2055" y="280"/>
      <point x="2091" y="327" type="curve"/>
      <point x="2116" y="306" type="line"/>
      <point x="2081" y="258"/>
      <point x="2042" y="208"/>
      <point x="1998" y="158" type="curve" smooth="yes"/>
      <point x="1954" y="108"/>
      <point x="1909" y="66"/>
      <point x="1865" y="31" type="curve" smooth="yes"/>
      <point x="1821" y="-4"/>
      <point x="1781" y="-21"/>
      <point x="1745" y="-21" type="curve" smooth="yes"/>
      <point x="1698" y="-21"/>
      <point x="1661" y="-2"/>
      <point x="1633" y="36" type="curve" smooth="yes"/>
      <point x="1605" y="74"/>
      <point x="1592" y="143"/>
      <point x="1592" y="242" type="curve" smooth="yes"/>
      <point x="1592" y="282"/>
      <point x="1601" y="328"/>
      <point x="1618" y="380" type="curve" smooth="yes"/>
      <point x="1635" y="432"/>
      <point x="1657" y="485"/>
      <point x="1683" y="540" type="curve" smooth="yes"/>
      <point x="1709" y="595"/>
      <point x="1738" y="649"/>
      <point x="1768" y="701" type="curve" smooth="yes"/>
      <point x="1798" y="753"/>
      <point x="1827" y="800"/>
      <point x="1854" y="841" type="curve" smooth="yes"/>
      <point x="1881" y="882"/>
      <point x="1902" y="914"/>
      <point x="1919" y="936" type="curve" smooth="yes"/>
      <point x="1940" y="965"/>
      <point x="1967" y="1000"/>
      <point x="1999" y="1039" type="curve" smooth="yes"/>
      <point x="2031" y="1078"/>
      <point x="2066" y="1119"/>
      <point x="2102" y="1162" type="curve" smooth="yes"/>
      <point x="2138" y="1205"/>
      <point x="2172" y="1246"/>
      <point x="2205" y="1285" type="curve" smooth="yes"/>
      <point x="2238" y="1324"/>
      <point x="2267" y="1356"/>
      <point x="2291" y="1384" type="curve" smooth="yes"/>
      <point x="2315" y="1412"/>
      <point x="2332" y="1430"/>
      <point x="2340" y="1438" type="curve"/>
      <point x="2318" y="1423"/>
      <point x="2278" y="1392"/>
      <point x="2219" y="1344" type="curve" smooth="yes"/>
      <point x="2160" y="1296"/>
      <point x="2089" y="1227"/>
      <point x="2005" y="1139" type="curve" smooth="yes"/>
      <point x="1921" y="1051"/>
      <point x="1831" y="938"/>
      <point x="1733" y="800" type="curve" smooth="yes"/>
      <point x="1687" y="735"/>
      <point x="1645" y="672"/>
      <point x="1606" y="611" type="curve" smooth="yes"/>
      <point x="1567" y="550"/>
      <point x="1531" y="492"/>
      <point x="1498" y="437" type="curve" smooth="yes"/>
      <point x="1470" y="391"/>
      <point x="1445" y="348"/>
      <point x="1420" y="308" type="curve" smooth="yes"/>
      <point x="1395" y="268"/>
      <point x="1371" y="231"/>
      <point x="1349" y="198" type="curve" smooth="yes"/>
      <point x="1308" y="136"/>
      <point x="1269" y="84"/>
      <point x="1234" y="42" type="curve" smooth="yes"/>
      <point x="1199" y="0"/>
      <point x="1168" y="-21"/>
      <point x="1140" y="-21" type="curve" smooth="yes"/>
      <point x="1110" y="-21"/>
      <point x="1088" y="-8"/>
      <point x="1074" y="18" type="curve" smooth="yes"/>
      <point x="1060" y="44"/>
      <point x="1051" y="75"/>
      <point x="1047" y="111" type="curve" smooth="yes"/>
      <point x="1043" y="147"/>
      <point x="1040" y="179"/>
      <point x="1040" y="205" type="curve" smooth="yes"/>
      <point x="1040" y="235"/>
      <point x="1048" y="283"/>
      <point x="1065" y="347" type="curve" smooth="yes"/>
      <point x="1082" y="411"/>
      <point x="1115" y="496"/>
      <point x="1164" y="601" type="curve" smooth="yes"/>
      <point x="1213" y="706"/>
      <point x="1285" y="833"/>
      <point x="1382" y="982" type="curve" smooth="yes"/>
      <point x="1407" y="1021"/>
      <point x="1436" y="1065"/>
      <point x="1469" y="1113" type="curve" smooth="yes"/>
      <point x="1502" y="1161"/>
      <point x="1536" y="1209"/>
      <point x="1569" y="1255" type="curve" smooth="yes"/>
      <point x="1602" y="1301"/>
      <point x="1631" y="1341"/>
      <point x="1656" y="1376" type="curve" smooth="yes"/>
      <point x="1681" y="1411"/>
      <point x="1698" y="1433"/>
      <point x="1706" y="1444" type="curve"/>
      <point x="1660" y="1411"/>
      <point x="1608" y="1363"/>
      <point x="1551" y="1301" type="curve" smooth="yes"/>
      <point x="1494" y="1239"/>
      <point x="1434" y="1171"/>
      <point x="1373" y="1097" type="curve" smooth="yes"/>
      <point x="1312" y="1023"/>
      <point x="1253" y="950"/>
      <point x="1198" y="877" type="curve" smooth="yes"/>
      <point x="1143" y="804"/>
      <point x="1094" y="742"/>
      <point x="1053" y="688" type="curve" smooth="yes"/>
      <point x="1027" y="653"/>
      <point x="1000" y="617"/>
      <point x="973" y="578" type="curve" smooth="yes"/>
      <point x="946" y="539"/>
      <point x="919" y="501"/>
      <point x="893" y="462" type="curve" smooth="yes"/>
      <point x="861" y="415"/>
      <point x="829" y="369"/>
      <point x="796" y="325" type="curve" smooth="yes"/>
      <point x="763" y="281"/>
      <point x="728" y="238"/>
      <point x="692" y="198" type="curve" smooth="yes"/>
      <point x="634" y="133"/>
      <point x="571" y="81"/>
      <point x="503" y="40" type="curve" smooth="yes"/>
      <point x="435" y="-1"/>
      <point x="360" y="-21"/>
    </contour>
  </outline>
</glyph>
<glyph name="uni2141" format="2">
  <advance width="1562"/>
  <unicode hex="2141"/>
  <outline>
    <contour>
      <point x="309" y="451" type="line"/>
      <point x="392" y="264"/>
      <point x="560" y="148"/>
      <point x="761" y="148" type="curve" smooth="yes"/>
      <point x="1051" y="148"/>
      <point x="1272" y="390"/>
      <point x="1272" y="740" type="curve" smooth="yes"/>
      <point x="1272" y="1090"/>
      <point x="1051" y="1332"/>
      <point x="761" y="1332" type="curve" smooth="yes"/>
      <point x="560" y="1332"/>
      <point x="392" y="1216"/>
      <point x="309" y="1029" type="curve"/>
      <point x="148" y="1120" type="line"/>
      <point x="266" y="1352"/>
      <point x="493" y="1500"/>
      <point x="761" y="1500" type="curve" smooth="yes"/>
      <point x="1156" y="1500"/>
      <point x="1462" y="1179"/>
      <point x="1462" y="740" type="curve" smooth="yes"/>
      <point x="1462" y="301"/>
      <point x="1156" y="-20"/>
      <point x="761" y="-20" type="curve" smooth="yes"/>
      <point x="493" y="-20"/>
      <point x="266" y="128"/>
      <point x="148" y="360" type="curve"/>
    </contour>
    <contour>
      <point x="761" y="740" type="line"/>
      <point x="140" y="740" type="line"/>
      <point x="140" y="1480" type="line"/>
      <point x="322" y="1480" type="line"/>
      <point x="322" y="1253" type="line"/>
      <point x="330" y="1227" type="line"/>
      <point x="330" y="908" type="line"/>
      <point x="761" y="908" type="line"/>
    </contour>
  </outline>
</glyph>
<glyph name="uni2143" format="2">
  <advance width="1208"/>
  <unicode hex="2143"/>
  <outline>
    <contour>
      <point x="878" y="1480" type="line"/>
      <point x="878" y="168" type="line"/>
      <point x="140" y="168" type="line"/>
      <point x="140" y="0" type="line"/>
      <point x="1068" y="0" type="line"/>
      <point x="1068" y="1480" type="line"/>
    </contour>
  </outline>
</glyph>
<glyph name="uni2149" format="2">
  <advance width="1149"/>
  <unicode hex="2149"/>
  <note>From Noto Sans (https://notofonts.github.io/)</note>
  <outline>
    <contour>
      <point x="814" y="1324" type="curve" smooth="yes"/>
      <point x="767" y="1324"/>
      <point x="728" y="1338"/>
      <point x="697" y="1364" type="curve" smooth="yes"/>
      <point x="666" y="1390"/>
      <point x="651" y="1429"/>
      <point x="651" y="1480" type="curve" smooth="yes"/>
      <point x="651" y="1538"/>
      <point x="667" y="1588"/>
      <point x="702" y="1629" type="curve" smooth="yes"/>
      <point x="737" y="1670"/>
      <point x="787" y="1691"/>
      <point x="852" y="1691" type="curve" smooth="yes"/>
      <point x="957" y="1691"/>
      <point x="1009" y="1642"/>
      <point x="1009" y="1544" type="curve" smooth="yes"/>
      <point x="1009" y="1474"/>
      <point x="989" y="1419"/>
      <point x="948" y="1381" type="curve" smooth="yes"/>
      <point x="907" y="1343"/>
      <point x="862" y="1324"/>
    </contour>
    <contour>
      <point x="823" y="1428" type="curve" smooth="yes"/>
      <point x="844" y="1428"/>
      <point x="863" y="1436"/>
      <point x="880" y="1453" type="curve" smooth="yes"/>
      <point x="897" y="1470"/>
      <point x="906" y="1493"/>
      <point x="906" y="1523" type="curve" smooth="yes"/>
      <point x="906" y="1566"/>
      <point x="883" y="1588"/>
      <point x="839" y="1588" type="curve" smooth="yes"/>
      <point x="811" y="1588"/>
      <point x="791" y="1579"/>
      <point x="776" y="1560" type="curve" smooth="yes"/>
      <point x="761" y="1541"/>
      <point x="754" y="1519"/>
      <point x="754" y="1496" type="curve" smooth="yes"/>
      <point x="754" y="1474"/>
      <point x="761" y="1458"/>
      <point x="774" y="1446" type="curve" smooth="yes"/>
      <point x="787" y="1434"/>
      <point x="804" y="1428"/>
    </contour>
    <contour>
      <point x="166" y="-398" type="curve" smooth="yes"/>
      <point x="138" y="-398"/>
      <point x="111" y="-396"/>
      <point x="83" y="-391" type="curve" smooth="yes"/>
      <point x="55" y="-386"/>
      <point x="28" y="-377"/>
      <point x="0" y="-365" type="curve"/>
      <point x="23" y="-255" type="line"/>
      <point x="42" y="-263"/>
      <point x="62" y="-270"/>
      <point x="82" y="-276" type="curve" smooth="yes"/>
      <point x="102" y="-282"/>
      <point x="124" y="-284"/>
      <point x="147" y="-284" type="curve" smooth="yes"/>
      <point x="184" y="-284"/>
      <point x="219" y="-272"/>
      <point x="251" y="-248" type="curve" smooth="yes"/>
      <point x="283" y="-224"/>
      <point x="305" y="-179"/>
      <point x="319" y="-114" type="curve" smooth="yes"/>
      <point x="601" y="1210" type="line"/>
      <point x="962" y="1210" type="line"/>
      <point x="711" y="47" type="line" smooth="yes"/>
      <point x="701" y="3"/>
      <point x="684" y="-45"/>
      <point x="658" y="-96" type="curve" smooth="yes"/>
      <point x="632" y="-147"/>
      <point x="598" y="-196"/>
      <point x="554" y="-242" type="curve" smooth="yes"/>
      <point x="510" y="-288"/>
      <point x="457" y="-326"/>
      <point x="393" y="-355" type="curve" smooth="yes"/>
      <point x="329" y="-384"/>
      <point x="253" y="-398"/>
    </contour>
    <contour>
      <point x="404" y="-239" type="line"/>
      <point x="445" y="-211"/>
      <point x="485" y="-175"/>
      <point x="523" y="-130" type="curve" smooth="yes"/>
      <point x="561" y="-85"/>
      <point x="589" y="-21"/>
      <point x="607" y="62" type="curve" smooth="yes"/>
      <point x="825" y="1100" type="line"/>
      <point x="688" y="1100" type="line"/>
    </contour>
  </outline>
</glyph>
